<svg width="410" height="199" viewBox="0 0 410 199" fill="none" xmlns="http://www.w3.org/2000/svg">
<path d="M185.193 184.203C233.872 184.203 273.333 144.741 273.333 96.0629C273.333 47.3844 233.872 7.92273 185.193 7.92273C136.515 7.92273 97.0532 47.3844 97.0532 96.0629C97.0532 144.741 136.515 184.203 185.193 184.203Z" fill="black"/>
<mask id="mask0_36_289" style="mask-type:luminance" maskUnits="userSpaceOnUse" x="83" y="0" width="199" height="199">
<path d="M281.256 0H83.1885V198.068H281.256V0Z" fill="white"/>
</mask>
<g mask="url(#mask0_36_289)">
<path d="M185.294 0.461962C183.901 0.70514 183.802 1.58058 185.144 1.58058C185.691 1.58058 186.139 1.77512 186.139 2.06693C186.139 2.8451 179.873 2.8451 178.928 2.06693C178.629 1.82375 177.983 1.96966 177.485 2.35874C176.59 2.991 176.689 3.03964 178.828 3.03964C180.519 3.03964 181.166 3.23418 181.166 3.72054C181.166 4.59598 180.171 4.93642 178.53 4.6446C177.535 4.45006 177.187 4.59598 177.187 5.17961C177.187 5.76323 176.889 5.90913 175.993 5.66596C175.347 5.52004 173.904 5.66596 172.711 5.95777C170.97 6.39548 170.473 6.39548 169.777 5.76323C168.632 4.74188 168.434 4.79052 165.499 6.20094C163.858 7.02776 162.615 7.36819 161.72 7.17365C160.824 6.97911 159.183 7.3682 156.796 8.34091C153.314 9.79997 151.325 10.2377 151.325 9.45951C151.375 8.68134 152.668 7.56274 154.16 7.02776C155.055 6.73594 156.547 5.90913 157.492 5.22823C159.581 3.67189 162.565 2.79645 163.41 3.47735C163.808 3.76917 164.753 3.62327 166.345 2.94237C167.787 2.35874 169.03 2.11558 169.577 2.3101C170.324 2.60191 170.224 2.74783 168.981 3.03964C167.339 3.38008 165.251 4.54733 165.251 5.03369C165.251 5.22823 165.997 5.17961 166.892 4.93642C167.737 4.74188 169.329 4.40144 170.373 4.25552C171.865 4.01235 172.164 3.81781 171.766 3.33146C171.467 2.94237 171.318 2.3101 171.517 1.87239C171.666 1.43467 171.766 1.09422 171.666 1.09422C170.572 1.09422 155.552 3.13691 155.254 3.28281C155.055 3.42873 154.955 3.86644 155.105 4.20689C155.503 5.27688 154.309 5.66596 153.613 4.69325C153.016 3.91508 152.817 4.01235 150.977 5.76323C149.932 6.78457 149.286 7.51409 149.535 7.27092C149.833 7.07638 150.579 6.93048 151.225 6.93048C152.369 6.93048 152.419 6.97911 151.723 8.00045C151.275 8.63272 150.131 9.31362 149.037 9.55678C147.943 9.75133 146.401 10.4809 145.556 11.1131C144.71 11.7454 143.865 12.1345 143.716 11.9886C143.268 11.5509 140.582 13.1558 137.349 15.7821C134.813 17.8248 134.415 18.3598 135.111 18.603C135.907 18.8462 135.857 19.0407 134.664 20.4511C133.122 22.2507 132.127 22.4452 131.68 21.0348C131.182 19.5757 131.829 18.1653 133.321 17.4357C134.067 17.0467 135.111 16.2685 135.659 15.6362C136.504 14.6149 136.405 14.6635 134.813 15.8308C133.769 16.6089 132.923 17.0953 132.923 16.9494C132.923 16.8521 132.227 16.9007 131.381 17.1439C129.989 17.533 129.889 17.4844 130.039 16.5117C130.237 15.1012 133.719 13.2044 134.365 14.1285C134.813 14.858 136.405 14.2258 138.891 12.2804C139.588 11.7454 140.682 11.2104 141.328 11.0645C142.572 10.8213 146.351 8.58407 146.351 8.09772C146.351 7.8059 145.705 8.14636 143.666 9.50816C142.621 10.2377 142.174 10.335 141.875 9.89724C141.627 9.41089 141.03 9.50816 139.538 10.2863C138.444 10.8213 137.399 11.1618 137.25 11.0159C136.852 10.6268 131.481 13.4963 129.342 15.1985L127.602 16.6089L127.85 20.4026L128.049 24.1961L122.23 29.2055C118.997 31.9291 116.262 34.1178 116.163 33.9718C115.516 33.3396 119.743 28.1355 120.539 28.622C120.738 28.7192 121.435 28.1355 122.031 27.2601C122.678 26.3846 123.822 25.0714 124.568 24.3419C125.861 23.1747 126.458 21.521 125.562 21.521C124.667 21.521 122.479 22.7857 122.131 23.5152C121.932 23.9529 120.589 25.5579 119.147 27.0656C116.71 29.6919 116.61 29.7405 117.058 28.2328C117.307 27.3573 118.053 26.1416 118.749 25.5579C119.445 24.9742 119.793 24.3907 119.594 24.2447C118.948 23.8557 116.56 26.2873 115.516 28.476C114.919 29.6432 113.925 31.1509 113.228 31.7346C112.582 32.3668 112.035 33.1451 112.035 33.4853C112.035 33.7773 110.592 35.285 108.802 36.8412C107.011 38.3489 105.569 39.8081 105.569 40.0513C105.569 41.0725 106.912 40.343 108.703 38.3976C109.747 37.2789 110.493 36.6467 110.294 36.9386C110.145 37.2789 109.896 38.0086 109.797 38.5921C109.548 39.9053 108.603 40.9753 107.758 40.9753C107.409 40.9753 106.862 41.413 106.564 41.948C106.116 42.7262 106.166 42.8234 106.813 42.6289C107.758 42.2397 107.758 42.6289 106.862 44.0394C105.917 45.4983 105.42 47.298 105.917 47.298C106.166 47.298 106.912 46.4225 107.509 45.3038C108.305 43.9906 108.802 43.5044 109.051 43.8934C109.697 44.9148 111.985 39.4676 111.438 38.1059C110.99 36.8412 111.338 35.0905 112.234 34.5555C113.129 33.9718 114.77 34.1178 115.765 34.8472C116.71 35.5282 116.71 35.5767 115.765 36.5982C115.218 37.1817 114.322 37.8626 113.726 38.0571C112.98 38.3489 112.532 39.2243 112.084 41.1698C111.736 42.6775 111.587 44.0879 111.736 44.3311C111.885 44.5744 111.04 45.3526 109.846 46.0333C108.653 46.7143 106.813 48.4165 105.768 49.7784C104.226 51.8211 104.027 52.4046 104.475 53.1341C104.923 53.815 104.823 54.1555 104.077 54.8364C103.232 55.5659 103.182 55.5659 102.983 54.7392C102.834 54.1068 102.486 54.4472 101.64 56.0522C100.994 57.2681 100.049 58.8245 99.5512 59.554C98.3079 61.2077 98.3576 61.8399 99.5512 60.3808C101.043 58.5813 101.342 59.6513 100.148 62.6667C99.6011 64.1743 99.1038 65.9253 99.1038 66.5575C99.1038 67.5302 98.855 67.7247 97.6117 67.7247C95.8709 67.7247 95.2244 66.6547 95.0752 63.1531C94.9756 61.9372 94.7768 61.0617 94.5779 61.2077C94.3788 61.3049 93.4836 63.3961 92.5885 65.7793C91.743 68.2112 90.798 70.3024 90.5991 70.4483C90.3503 70.5943 90.1515 69.4756 90.1515 67.9679C90.1515 65.3903 90.9471 63.1044 92.3895 61.4022C92.7377 61.0132 93.5832 59.019 94.3291 57.0249L95.6223 53.3773V56.3927C95.6223 59.3595 96.2688 60.8185 96.8159 59.1163C96.965 58.63 97.0646 57.1709 97.0147 55.8577C96.9153 53.8637 97.0646 53.3773 98.2582 52.356C99.5512 51.2861 100.098 50.3134 99.1038 50.9456C98.2085 51.4806 98.6064 50.3619 99.6011 49.4864C100.198 48.9515 100.397 48.4652 100.148 48.2707C99.8497 48.1247 100.795 46.8115 102.187 45.4011C104.077 43.4557 104.724 42.4344 104.823 41.1698C104.873 40.2458 104.823 39.5163 104.724 39.5163C104.574 39.5163 103.679 40.0998 102.635 40.7808C100.646 42.1912 96.6667 48.611 93.8815 54.8364C92.9862 56.8304 92.1409 58.3381 91.9915 58.1923C91.8921 58.0463 91.1462 59.1163 90.4498 60.5755C89.0076 63.4449 88.8086 65.1958 89.4054 71.7128C89.7536 75.2634 89.6541 76.1386 88.9577 77.1601C88.5103 77.841 88.1621 78.8137 88.1621 79.3487C88.1621 79.8837 87.9133 80.4672 87.6647 80.6132C87.3662 80.7591 87.1674 80.4672 87.1674 79.9322C87.1674 79.3487 86.9683 78.911 86.67 78.911C86.3716 78.911 86.2224 80.1754 86.3218 81.9264C86.4213 84.6985 86.3218 84.9903 85.4266 84.9903C84.8795 84.9903 84.2827 85.3308 84.0839 85.72C83.4871 87.0329 83.686 90.0971 84.4319 91.8965C85.3769 94.0366 85.3769 96.371 84.4818 97.6355C83.5865 98.9487 83.0395 103.326 83.6362 104.736C83.9345 105.417 84.1336 105.612 84.1833 105.174C84.233 104.785 84.6806 105.806 85.2277 107.46C85.7748 109.162 86.4213 110.524 86.67 110.524C87.3165 110.524 87.3165 108.433 86.7198 107.8C86.4712 107.557 86.1727 106.244 86.0236 104.931C85.9239 103.569 85.9239 102.888 86.0236 103.326C86.123 103.764 86.5706 104.396 86.9186 104.688C87.5156 105.174 87.615 105.028 87.6647 103.861C87.6647 103.131 87.8139 101.089 87.963 99.3379C88.1124 97.1978 88.0627 96.4198 87.7145 96.906C87.3165 97.4897 87.1177 97.3438 86.7198 96.2738C85.9738 94.4256 85.4765 88.4434 85.9239 87.3249C86.2224 86.5467 86.3218 86.5954 86.7695 87.6654L87.2668 88.8811L87.7642 87.8112C88.2615 86.7412 88.3609 86.7899 89.853 88.7839C91.3948 90.8265 91.5441 91.9452 91.0467 97.6355C90.9968 98.1705 90.9968 100.067 91.0467 101.867C91.1462 104.444 91.2953 105.174 91.8921 105.174C92.29 105.174 92.6382 105.563 92.6382 106.001C92.6382 106.487 92.7377 107.314 92.8868 107.849C93.0859 108.53 92.7377 109.114 91.8424 109.746C90.4995 110.67 90.4995 110.67 89.8033 109.746C89.1568 108.87 89.1071 108.919 89.4054 110.135C89.6541 111.01 89.5547 111.497 89.2065 111.497C88.56 111.497 88.4604 115.728 89.1071 115.971C89.3059 116.02 89.6541 117.722 89.7536 119.667L90.0023 123.218L88.56 121.516C86.5706 119.181 85.9239 119.327 87.2171 121.759C87.7642 122.877 88.1621 124.142 88.0129 124.628C87.8636 125.212 88.3112 125.747 89.3556 126.331C90.2012 126.817 91.3948 127.644 92.0414 128.179C93.5832 129.589 93.5335 128.227 91.8921 125.844C90.7483 124.239 90.8974 124.336 93.8815 126.866C97.3132 129.929 97.5618 130.221 98.1091 132.994C98.5565 135.134 97.7111 135.523 96.4677 133.723C95.8212 132.848 95.5726 132.799 95.2244 133.334C94.8265 133.869 94.6773 133.772 94.3788 132.945C94.18 132.313 93.9312 131.972 93.7821 132.118C93.6329 132.264 92.7377 131.389 91.7927 130.221C90.8477 129.005 90.0023 128.033 89.853 128.033C89.7038 128.033 89.7536 128.86 89.9524 129.832L90.3006 131.68L89.1568 130.708C88.4604 130.124 88.1621 130.027 88.4107 130.464C89.1568 131.826 90.798 133.334 91.1959 133.091C91.3948 132.994 91.9418 133.529 92.3895 134.307C93.235 135.96 93.2847 136.349 92.7874 136.252C92.5388 136.203 92.0912 136.203 91.743 136.252C90.798 136.349 91.5441 137.273 92.5388 137.273C93.5832 137.273 94.2297 137.954 97.5618 142.672C100.446 146.806 100.944 147.39 102.585 148.703L103.779 149.675L102.685 148.265C102.088 147.487 101.59 146.563 101.59 146.222C101.59 145.882 101.143 145.347 100.546 145.055C99.402 144.423 97.6117 141.797 97.6117 140.678C97.6117 140.289 98.4571 140.824 99.7502 141.991C100.894 143.061 102.336 144.228 102.933 144.52C104.574 145.347 107.061 149.092 106.763 150.259C106.464 151.329 107.857 152.886 112.582 156.776C114.621 158.479 115.417 159.549 115.914 161.251C116.71 163.828 117.505 164.607 120.241 165.677C121.385 166.163 122.727 167.184 123.424 168.157C124.12 169.178 125.015 169.859 125.662 169.859C126.209 169.859 127.9 170.978 129.392 172.291C130.884 173.653 132.525 174.723 133.023 174.723C133.52 174.723 134.316 175.16 134.813 175.744C135.261 176.279 136.554 177.203 137.648 177.738L139.637 178.76L138.692 177.69C137.349 176.23 137.897 176.036 140.334 177.252C141.676 177.884 142.224 178.419 141.826 178.614C140.881 179.197 142.82 181.386 145.108 182.31C146.252 182.796 149.385 183.283 152.568 183.477C155.9 183.72 159.73 184.353 162.465 185.131C167.936 186.687 171.965 187.125 174.402 186.492C175.993 186.055 176.391 186.103 177.187 186.882C178.132 187.806 178.082 187.806 175.197 187.952C172.91 188.049 172.313 188.243 172.661 188.73C172.959 189.167 174.7 189.459 178.381 189.605C184.1 189.8 186.139 190.14 186.139 190.821C186.139 191.405 190.566 191.356 193.599 190.724C196.136 190.189 197.329 189.07 196.136 188.341C195.738 188.146 196.384 187.757 197.827 187.417C199.666 186.979 200.314 186.979 200.91 187.465C201.607 188 201.558 188.146 200.512 188.438L199.32 188.827L200.561 188.632C201.259 188.535 202.253 188.292 202.75 188.097C203.447 187.806 203.596 187.854 203.348 188.292C202.95 188.876 203.049 188.876 210.11 187.854C212.548 187.465 213.493 186.979 217.72 183.769C220.356 181.726 222.844 180.073 223.24 180.073C223.638 180.073 225.478 179.392 227.318 178.565C229.16 177.738 231.05 177.009 231.597 176.911C232.094 176.765 233.635 175.987 234.978 175.16C236.321 174.285 237.814 173.604 238.262 173.604C238.759 173.604 240.549 172.486 242.34 171.124C244.826 169.178 245.323 168.595 244.578 168.449C244.029 168.351 243.285 168.741 242.787 169.324C242.29 169.859 241.445 170.346 240.896 170.346C240.001 170.346 240.151 170.054 241.892 168.546C243.035 167.525 244.13 166.212 244.378 165.628C244.628 164.996 245.125 164.509 245.523 164.509C245.921 164.509 246.915 163.342 247.761 161.883C249.45 158.916 250.694 157.798 250.098 159.694C249.898 160.327 249.7 161.202 249.651 161.591C249.601 161.98 248.904 163.147 248.159 164.12C247.363 165.142 246.816 166.212 246.915 166.503C247.212 167.33 251.241 162.077 253.529 157.992C254.575 156.241 255.967 154.15 256.712 153.372C257.409 152.594 258.603 151.086 259.348 149.967C260.194 148.751 261.138 147.973 261.685 147.973C262.78 147.973 265.118 143.693 266.26 139.705C266.56 138.489 267.356 137.079 267.952 136.544C268.998 135.669 270.19 133.82 270.19 133.188C270.19 133.042 269.842 132.896 269.445 132.896C268.55 132.896 268.4 130.221 269.245 129.735C270.091 129.2 273.771 121.272 273.524 120.64C273.324 120.251 273.126 120.446 272.925 121.078C272.478 122.537 271.533 122.537 271.931 121.078C272.628 118.743 273.324 117.333 273.672 117.576C274.169 117.868 274.815 110.67 274.567 107.119C274.468 105.66 274.219 104.493 273.92 104.59C273.672 104.688 273.274 104.347 273.076 103.861C272.826 103.326 272.777 103.715 272.925 104.785C273.274 106.925 272.478 107.314 271.931 105.32C271.632 104.055 271.583 104.007 270.937 104.834C270.341 105.66 270.141 105.369 269.047 101.916C267.853 98.2677 267.803 98.2192 267.754 100.165C267.704 101.283 268.051 103.666 268.449 105.417C269.295 108.919 269.047 111.74 267.853 112.178C267.306 112.421 267.156 113.15 267.207 115.047C267.356 118.695 267.257 119.765 266.76 119.765C266.51 119.765 266.112 119.181 265.864 118.451C265.466 117.381 265.217 118.111 264.272 122.975C263.626 126.136 262.481 130.416 261.737 132.41C260.293 136.301 258.055 140.192 257.26 140.192C256.961 140.192 256.763 140.629 256.763 141.116C256.763 141.651 255.27 143.645 253.479 145.639C249.651 149.724 248.805 150.551 249.799 149.189C250.496 148.265 250.496 148.265 249.651 148.897C249.153 149.286 248.159 150.6 247.462 151.815C245.273 155.609 243.732 157.7 243.134 157.652C241.791 157.506 241.096 157.895 237.564 161.105C231.745 166.358 226.425 170.054 224.783 169.956C224.036 169.908 222.545 170.297 221.452 170.832C220.406 171.367 218.865 171.805 218.069 171.805C217.223 171.805 216.08 172.242 215.432 172.777L214.24 173.75L215.731 173.507C217.074 173.264 217.124 173.312 216.278 173.847C212.996 176.085 211.851 176.668 210.857 176.668C210.261 176.668 209.465 177.106 209.116 177.641C208.767 178.176 207.973 178.614 207.325 178.614C206.68 178.614 206.032 178.954 205.834 179.343C205.685 179.732 205.188 180.073 204.741 180.073C203.994 180.073 203.994 179.975 204.79 178.808C205.636 177.544 205.636 177.495 204.741 177.738C204.192 177.884 203.348 178.176 202.8 178.37C202.005 178.662 202.104 178.419 203.247 177.252C204.59 175.841 204.64 175.695 203.744 175.695C203.198 175.695 201.009 176.571 198.872 177.641C194.743 179.732 190.814 180.413 192.157 178.76C192.803 178.03 192.704 177.981 191.361 178.322C187.93 179.149 183.205 179.197 180.967 178.468C179.326 177.933 178.231 177.835 176.739 178.176C174.203 178.711 171.965 177.933 170.174 175.841C168.632 174.09 167.588 173.507 165.101 173.069C164.057 172.875 162.863 172.583 162.465 172.437C162.018 172.291 161.769 172.534 161.769 173.166C161.769 174.577 162.366 174.771 164.157 174.139C165.002 173.799 165.847 173.701 166.046 173.896C166.643 174.48 165.847 174.869 163.41 175.258C160.675 175.647 159.282 174.869 159.282 172.923C159.282 172.34 158.984 171.805 158.636 171.805C158.288 171.805 155.851 170.783 153.314 169.567C150.032 168.011 148.092 167.379 146.849 167.476C143.865 167.622 143.417 167.476 141.279 165.482C140.135 164.412 139.041 163.731 138.891 163.974C138.742 164.169 138.245 164.461 137.797 164.655C136.753 165.044 135.857 163.634 136.206 162.223C136.405 161.542 136.206 161.153 135.559 161.008C135.062 160.862 133.918 159.743 133.072 158.527C131.68 156.63 131.58 156.387 132.426 156.582C134.316 157.068 133.421 156.339 131.182 155.56C129.591 155.074 129.044 155.025 129.292 155.414C129.492 155.755 129.094 155.658 128.447 155.22C127.701 154.782 126.856 153.469 126.408 152.059C125.662 149.919 125.165 149.432 121.832 147.244C118.699 145.201 117.903 144.423 117.058 142.429C116.461 141.116 116.013 139.705 116.013 139.268C116.013 138.83 115.765 138.149 115.466 137.76C115.068 137.176 115.019 137.273 115.118 138.246C115.317 139.948 113.974 140.046 112.035 138.392C110.592 137.225 110.443 137.176 110.99 138.149C111.289 138.733 111.438 139.219 111.338 139.219C110.94 139.219 110.195 137.711 108.852 134.064C108.106 132.118 107.857 131.097 108.305 131.632C109.349 132.994 109.25 132.313 107.807 129.006C107.111 127.401 106.564 125.601 106.564 125.017C106.613 123.899 106.613 123.899 107.36 124.871C108.454 126.282 112.532 134.21 112.532 134.939C112.532 135.279 111.836 134.793 111.04 133.869C109.1 131.68 109.697 133.48 111.736 135.912C113.079 137.614 114.521 138.343 114.521 137.371C114.521 137.127 113.974 135.668 113.328 134.064C112.681 132.507 111.338 128.908 110.344 126.136L108.553 121.078L110.393 121.37C111.438 121.516 114.024 121.807 116.163 122.002C118.252 122.197 119.992 122.488 120.042 122.634C120.092 122.78 120.141 123.655 120.241 124.531C120.34 125.552 120.937 126.768 121.882 127.692C122.678 128.568 123.523 129.784 123.722 130.416C123.921 131.048 124.667 132.118 125.364 132.75C126.06 133.334 126.408 133.869 126.109 133.869C125.612 133.869 122.777 131.194 121.037 129.006L120.042 127.79L119.992 129.832C119.992 130.951 119.743 132.021 119.495 132.167C119.097 132.41 119.147 132.702 119.545 133.188C119.942 133.674 120.887 133.869 122.429 133.772C124.568 133.626 124.717 133.723 125.712 135.425C126.358 136.69 127.054 137.273 127.8 137.273C128.596 137.273 128.795 137.517 128.596 138.198C128.447 138.733 128.696 139.219 129.193 139.365C129.641 139.559 130.337 140.483 130.735 141.408C131.133 142.38 131.68 143.012 131.929 142.866C132.177 142.721 132.476 142.818 132.674 143.11C132.824 143.353 132.625 143.596 132.227 143.596C131.829 143.596 131.332 143.353 131.182 143.11C130.984 142.818 130.635 142.721 130.387 142.915C129.74 143.304 130.784 144.569 131.729 144.569C132.127 144.569 132.824 144.326 133.321 144.034C134.664 143.207 134.167 141.553 131.829 139.122C129.641 136.836 126.955 133.188 126.955 132.556C126.955 132.361 125.911 129.929 124.617 127.157C123.125 123.899 122.031 122.197 121.534 122.197C121.086 122.197 120.44 121.71 120.092 121.175C119.545 120.3 119.097 120.202 117.505 120.446C115.914 120.689 115.466 120.543 114.82 119.716C114.422 119.132 114.223 118.403 114.322 118.062C114.472 117.771 114.223 117.187 113.775 116.846C113.378 116.506 113.029 115.923 113.029 115.582C113.029 115.193 112.781 114.901 112.482 114.901C112.234 114.901 112.134 115.193 112.333 115.485C112.532 115.825 111.885 115.29 110.891 114.269C109.797 113.15 109.051 111.934 109.051 111.205C109.051 109.843 110.244 109.649 110.99 110.864C111.488 111.691 111.488 111.691 111.537 110.864C111.537 109.454 112.433 109.94 112.781 111.594C113.178 113.345 113.775 113.928 115.168 113.928C115.864 113.928 115.964 113.734 115.615 113.15C115.367 112.713 115.367 111.643 115.715 110.475C116.362 107.995 115.615 107.022 114.074 108.53L113.029 109.551V108.19C113.029 107.46 113.228 106.633 113.427 106.341C113.676 106.098 113.726 105.223 113.527 104.444L113.228 102.986L112.582 104.153C112.234 104.785 112.035 105.806 112.184 106.439C112.333 107.411 112.184 107.606 111.289 107.606C110.145 107.606 109.051 106.049 109.996 105.758C110.294 105.66 110.543 104.542 110.592 103.326C110.642 100.7 111.885 96.2738 111.985 98.3652C112.035 99.046 112.283 99.9214 112.582 100.311C112.98 100.846 113.029 100.602 112.83 99.2892C112.582 97.9275 112.681 97.441 113.328 97.1978C113.925 96.9548 114.024 96.7601 113.576 96.2251C113.278 95.8848 113.178 95.1551 113.378 94.7174C113.576 94.1339 113.527 93.9394 113.129 94.1824C112.333 94.6689 111.836 91.5075 112.234 88.0544C112.631 84.2123 113.079 83.6773 113.825 86.0117L114.472 87.9084L114.173 85.2822C113.925 82.8991 114.024 82.6071 115.267 81.6346C116.56 80.6132 116.56 80.4672 116.063 78.5218C115.615 76.9656 115.615 76.2361 116.063 75.4091C116.411 74.8256 116.61 73.561 116.61 72.637C116.511 70.9833 118.003 68.3084 120.042 66.217C120.539 65.7793 121.037 64.6608 121.235 63.7853C121.435 62.8612 121.783 61.8884 121.982 61.6454C122.18 61.3535 122.529 60.4295 122.727 59.5053L123.076 57.9004L121.285 59.7972C120.291 60.8672 119.196 62.4722 118.799 63.3476C118.401 64.3688 118.003 64.7093 117.754 64.3688C117.307 63.6394 117.953 58.0951 118.55 57.7058C118.799 57.5599 118.997 56.7819 118.997 55.9549C118.997 55.0795 119.445 53.961 119.992 53.3773C120.589 52.745 121.186 51.1888 121.435 49.7784C121.882 47.006 123.474 44.6229 123.474 46.7143C123.474 47.298 123.076 48.8542 122.529 50.1674C121.932 51.6751 121.783 52.6478 122.131 52.7938C122.429 52.891 122.429 53.3288 122.031 54.0095C121.435 55.1282 121.733 56.2469 122.529 55.8092C122.777 55.6146 122.976 55.0795 122.976 54.5445C122.976 54.0582 123.225 53.6692 123.573 53.7178C123.872 53.815 124.269 53.426 124.369 52.891C124.717 51.2861 125.562 50.6051 126.856 50.9456C127.502 51.0914 128.348 50.9941 128.696 50.7024C129.74 49.8756 129.342 52.4046 128.298 53.5233C127.353 54.5445 127.204 55.0795 127.95 55.0795C128.696 55.0795 130.934 50.2161 130.934 48.611C130.934 47.833 130.735 47.3465 130.436 47.541C130.188 47.687 129.492 47.541 128.944 47.152C127.999 46.5198 127.999 46.5198 128.944 45.6928C129.492 45.2551 129.939 44.5256 129.939 44.1366C129.939 43.6989 130.387 43.4071 131.083 43.4071C131.729 43.4071 133.57 42.9694 135.111 42.4344C137.399 41.7047 138.145 41.6075 138.891 42.094C139.936 42.7262 139.687 42.8722 145.705 37.9112C149.186 34.9932 151.225 33.6313 150.629 34.604C150.43 34.8958 150.629 35.139 151.076 35.139C152.618 35.139 153.762 34.1178 154.359 32.2696C154.906 30.4699 155.055 30.3727 157.393 30.1297C159.282 29.8864 160.327 29.4 162.068 27.8923C165.052 25.3146 166.494 25.0229 167.986 26.6278C169.329 27.9895 170.324 28.1842 171.169 27.1628C171.865 26.3361 175.496 25.4119 177.933 25.4119C179.524 25.4119 179.723 25.2661 179.425 24.4392C179.176 23.7097 179.326 23.4665 180.071 23.4665C180.619 23.4665 182.459 22.9315 184.199 22.2993C185.94 21.667 188.327 20.9861 189.521 20.7916C190.665 20.5971 191.51 20.2566 191.361 20.0621C191.013 19.5271 192.903 18.9434 193.599 19.3325C193.848 19.4784 194.445 19.4298 194.892 19.1866C195.489 18.8462 195.091 18.5057 193.003 17.6303L190.367 16.5117L198.323 15.8794C205.238 15.3444 206.779 15.3444 209.863 16.0253C211.952 16.463 213.394 16.998 213.345 17.2898C213.293 17.6303 214.836 18.1653 217.223 18.6516C220.208 19.2352 221.153 19.6243 221.054 20.1593C221.004 20.5483 221.899 21.3753 223.292 22.1533L225.678 23.4665H224.036C223.042 23.4665 222.495 23.661 222.693 23.9529C222.894 24.2447 222.295 24.4392 221.351 24.4392C220.406 24.4392 219.412 24.6824 219.063 25.0229C218.566 25.5091 218.118 25.4119 216.926 24.7311C216.08 24.2447 215.284 24.0014 215.135 24.1474C214.688 24.5852 212.996 23.4665 212.996 22.737C212.996 22.348 213.194 22.0075 213.444 22.0075C213.691 22.0075 214.04 21.667 214.188 21.2293C214.438 20.5971 214.24 20.5483 212.996 20.7916C211.703 21.0833 211.453 20.9375 211.057 19.9161C210.708 19.0407 209.764 18.4084 207.773 17.6789C203.447 16.0739 201.259 16.5117 203.546 18.5057C204.192 19.0407 203.845 19.138 201.358 18.8948C198.971 18.7002 198.622 18.7489 199.32 19.2839C200.064 19.8189 199.817 19.9648 197.429 20.4998C195.937 20.7916 194.097 20.9375 193.4 20.743C192.107 20.4511 191.56 21.132 192.605 21.7643C193.251 22.1533 193.251 22.9802 192.555 22.9802C192.256 22.9802 191.66 22.6397 191.262 22.202C190.665 21.667 189.919 21.521 188.725 21.7157C186.686 22.0075 186.835 21.8615 186.487 23.7097L186.189 25.1689L191.809 24.8284C194.942 24.6824 197.876 24.2447 198.424 23.9042C200.413 22.6883 213.543 26.0928 214.688 28.0868C214.985 28.622 215.531 29.2542 215.88 29.4487C217.025 30.1782 216.528 30.8591 214.985 30.6646C213.891 30.5187 213.642 30.6159 213.99 31.0049C214.24 31.3454 214.389 31.6859 214.24 31.8319C214.139 31.9291 214.787 32.3181 215.731 32.6586C216.676 32.9991 217.472 33.4853 217.472 33.7286C217.472 33.9718 218.267 34.1663 219.263 34.1663C221.501 34.1663 222.743 34.7985 224.882 37.0359C226.623 38.8353 227.469 39.0786 231.795 39.0298C234.082 39.0298 236.869 40.5863 236.869 41.8507C236.869 42.4344 236.37 42.483 234.53 42.2397L232.143 41.948L233.635 42.8722C234.481 43.3584 235.922 44.5744 236.818 45.5471C238.262 47.006 238.907 47.298 240.648 47.298C242.488 47.298 242.986 47.541 244.279 49.0974C245.125 50.1187 245.82 51.1888 245.82 51.4806C245.82 52.3073 248.209 53.2315 248.456 52.5018C248.555 52.1613 249.003 52.6965 249.401 53.6205C249.999 55.0309 249.999 55.3714 249.45 55.4687C248.605 55.6632 248.656 56.1009 249.601 57.4141C250.049 58.0463 250.595 58.3381 250.944 58.1436C252.336 57.3168 252.933 57.7058 254.176 60.3322C255.42 63.0071 258.851 67.7734 259.796 68.1139C260.443 68.3569 260.342 67.5302 259.647 66.8493C259.199 66.4117 259.298 66.0712 259.946 65.3416C260.493 64.7093 260.641 64.3203 260.293 64.0771C259.548 63.6881 257.607 59.943 257.955 59.6027C258.055 59.4568 258.552 60.0405 258.999 60.8672C260.095 62.9584 260.443 62.7639 259.397 60.6727C258.95 59.7485 258.403 58.9703 258.205 58.9703C257.607 58.9703 252.336 52.356 251.79 50.9456C250.993 48.9515 251.191 48.5137 252.336 49.5352L253.43 50.4591L252.784 49.2434C251.988 47.7842 250.843 46.8603 249.75 46.8115C249.351 46.8115 248.357 46.1306 247.561 45.3526C246.765 44.5256 245.869 43.8934 245.622 43.8934C244.826 43.8449 242.09 41.559 242.439 41.2185C242.837 40.8293 245.422 42.1425 246.567 43.2612C247.064 43.6989 247.761 44.1366 248.159 44.1851C249.302 44.3799 252.933 46.617 255.319 48.6597C256.563 49.7297 258.403 52.0156 259.498 53.7178C261.636 57.1709 263.676 59.554 264.272 59.2135C264.472 59.0678 265.118 59.554 265.714 60.2835C266.312 61.0617 267.257 61.7427 267.853 61.8884C268.6 62.0831 269.146 62.8126 269.594 64.2231C269.992 65.3416 270.489 66.2657 270.737 66.2657C271.583 66.2657 271.184 64.3688 269.943 62.5694C268.051 59.8945 268.35 55.5659 270.341 56.3441C271.882 56.9276 271.234 55.5659 269.445 54.5445C267.853 53.6205 266.809 52.1613 265.664 49.2919C265.266 48.3679 265.316 48.222 265.963 48.4652C266.908 48.8057 266.958 49.0002 265.466 45.4498C264.769 43.7961 264.173 41.802 264.123 41.0725C264.074 40.343 263.377 38.9813 262.531 38.0571C261.339 36.6954 260.691 36.3549 259.199 36.3062C257.557 36.3062 257.409 36.4035 257.906 37.1817C258.255 37.6681 258.653 38.0571 258.9 38.0571C259.1 38.0571 259.15 37.8139 258.999 37.5709C258.851 37.2789 259.199 37.0844 259.895 37.0844C261.289 37.0844 262.929 39.6621 263.525 42.6775C263.874 44.5744 263.824 44.6229 262.879 43.7474C262.333 43.3097 261.685 42.9207 261.438 42.9207C260.94 42.9207 255.868 37.6194 255.121 36.3062C254.872 35.8685 254.275 35.7227 253.529 35.9172C251.938 36.3062 250.793 34.458 251.938 33.3396C252.534 32.7558 252.883 32.7073 253.729 33.1936C254.325 33.4853 255.22 33.5828 255.767 33.4368C256.264 33.2908 257.26 33.4853 257.955 33.9231C259.746 35.0905 260.095 33.9718 258.552 31.6859C257.26 29.8377 257.211 29.7892 256.016 30.5674C255.319 31.0049 254.773 31.6859 254.773 32.0264C254.773 32.6586 254.574 32.6586 253.43 32.0751C252.633 31.6859 251.241 31.2482 250.247 31.0537C249.252 30.9077 247.91 30.1782 247.264 29.4972C246.616 28.7678 245.372 27.8923 244.477 27.5518C243.582 27.1628 242.637 26.4333 242.34 25.9469C241.892 25.0714 241.942 25.0229 243.384 25.4119C244.229 25.6551 245.224 26.0928 245.622 26.4333C246.02 26.7738 246.468 26.8711 246.616 26.7251C247.264 26.0928 246.069 25.3634 242.787 24.4392C240.846 23.8557 239.157 23.0775 239.006 22.6883C238.559 21.4725 239.157 21.4238 241.344 22.4938C243.483 23.5637 244.427 23.5637 243.085 22.4938C241.494 21.1806 242.439 21.132 244.677 22.3965C246.02 23.1747 247.163 24.1962 247.264 24.7311C247.363 25.2174 247.91 25.9469 248.506 26.3846C249.052 26.7738 250.496 27.941 251.689 28.9623C254.325 31.3454 254.525 30.2269 251.938 27.6978C248.506 24.4392 243.732 20.5483 243.085 20.5483C242.738 20.5483 242.189 20.2079 241.843 19.8189C241.344 19.2352 241.395 19.0893 242.14 19.0893C242.936 19.0893 242.986 18.9921 242.34 18.603C241.942 18.3598 241.195 18.2625 240.747 18.4084C239.504 18.7975 237.913 17.8248 235.079 14.9553C233.239 13.1072 232.094 12.3776 230.701 12.1345C229.707 11.9886 226.225 10.8213 222.943 9.55678C218.665 7.90318 216.975 6.97911 216.775 6.29821C216.627 5.61732 216.278 5.42277 215.632 5.66596C215.135 5.8605 213.642 6.15232 212.299 6.29821C210.011 6.59003 209.962 6.63867 211.057 7.27092C212.15 7.85455 211.952 7.90318 208.767 7.90318C201.558 7.95182 199.817 7.85455 199.666 7.36819C199.567 7.12503 199.27 6.93048 199.02 6.93048C198.721 6.93048 198.622 7.12503 198.771 7.36819C199.119 7.85455 195.44 7.61136 191.461 6.78457C189.123 6.34686 188.626 6.05504 188.775 5.37415C188.924 4.93642 188.676 4.45006 188.327 4.30417C187.432 3.96371 184.697 4.49871 184.349 5.03369C183.901 5.76323 182.16 5.52004 182.16 4.79052C182.16 3.81781 187.034 2.26147 187.78 2.991C188.079 3.28281 189.073 3.526 189.919 3.526C191.212 3.526 191.709 3.23418 192.256 2.11558C192.953 0.753775 192.903 0.656504 191.908 0.413327C190.764 0.121514 187.034 0.121514 185.294 0.461962ZM184.05 12.7667C186.537 12.8154 186.786 12.864 186.04 13.4476C185.542 13.7881 185.144 14.3231 185.144 14.6149C185.144 15.5389 180.569 16.463 179.326 15.7335C178.48 15.2471 178.48 15.2471 179.326 15.1985C179.823 15.1985 180.121 15.004 179.922 14.7608C179.624 14.2258 173.705 16.0739 173.705 16.7062C173.705 17.1926 172.164 17.2898 171.02 16.8521C170.324 16.6089 170.324 16.4144 170.821 15.7821C171.368 15.1499 171.318 15.0526 170.721 15.2958C170.324 15.4417 168.334 16.0739 166.395 16.7062C162.465 17.9221 161.769 18.603 164.405 18.603C166.643 18.603 166.842 18.8948 165.649 20.8403C164.753 22.2993 164.455 22.4938 162.465 22.4938C161.272 22.4938 160.277 22.2507 160.277 22.0075C160.277 21.278 158.586 21.4238 157.492 22.2507C156.597 22.9315 156.647 22.9802 158.039 22.6397C159.382 22.348 159.481 22.3965 158.885 23.126C157.989 24.1962 151.325 26.8223 148.59 27.2115C146.501 27.4546 146.351 27.6005 146.351 28.9137C146.351 30.0809 146.053 30.4699 144.611 31.0049C143.268 31.5886 142.87 32.0751 142.572 33.4368C142.373 34.458 141.925 35.2363 141.328 35.3822C140.831 35.5767 140.383 35.9172 140.383 36.1604C140.383 36.7927 140.98 36.6954 142.074 35.8685C143.417 34.8958 144.412 34.9445 144.064 35.9659C143.914 36.4522 144.263 36.1117 144.859 35.2363C145.456 34.4095 146.302 33.68 146.749 33.68C147.495 33.7286 147.495 33.7773 146.749 34.215C146.252 34.458 145.854 34.9932 145.854 35.3335C145.854 36.0632 141.179 40.489 140.433 40.489C139.737 40.489 139.737 40.1971 140.433 38.8839C140.881 38.0086 140.881 37.9112 140.334 38.3976C139.389 39.3216 138.891 39.1758 138.891 38.0571C138.891 37.0844 138.841 37.0844 137.399 37.8139C136.554 38.2516 135.659 38.4463 135.36 38.3004C135.111 38.1059 134.316 38.3004 133.669 38.7381C132.028 39.8081 131.58 39.7108 132.674 38.5436C133.172 38.0086 134.515 37.2789 135.609 36.9386C138.493 36.0632 140.881 34.5555 140.881 33.5828C140.881 32.9018 140.582 32.9504 138.643 33.9718C136.206 35.1877 136.007 35.0417 137.101 32.4641C137.598 31.3454 137.648 30.7619 137.3 30.7619C136.802 30.7619 133.868 33.5341 130.884 36.8412C127.253 40.878 121.683 44.3799 118.848 44.3799H116.958L118.003 42.9207C118.6 42.094 119.246 41.559 119.445 41.7047C119.992 41.9967 121.982 39.8081 124.468 36.1117C126.557 33.0963 132.326 26.8711 133.122 26.8711C133.321 26.8711 133.321 27.0656 133.172 27.3573C132.724 28.0868 134.465 27.3573 136.156 26.1416C138.046 24.7797 143.019 22.348 145.556 21.521C146.65 21.1806 148.092 20.2566 148.838 19.4784C150.032 18.2139 150.281 18.1653 151.723 18.6516C153.762 19.3325 153.762 20.1593 151.723 21.1806L150.082 21.9588H151.474C153.066 22.0075 154.806 21.2293 154.806 20.4998C154.806 20.2079 155.602 19.0407 156.597 17.8734C158.089 16.0739 158.984 15.5389 162.167 14.5176C165.698 13.399 166.046 13.399 166.892 14.0799C167.688 14.8094 167.986 14.8094 170.622 13.9826C173.357 13.0585 179.226 12.2804 180.569 12.6208C180.967 12.6695 182.509 12.7667 184.05 12.7667ZM222.894 25.3634C223.49 25.7524 223.539 25.9469 222.943 26.6278C222.097 27.6493 219.263 27.406 219.063 26.2873C218.865 25.1689 221.501 24.5364 222.894 25.3634ZM116.063 56.3927C115.765 57.4141 115.516 58.8245 115.516 59.5053C115.516 60.235 115.118 61.3049 114.571 61.9372C114.074 62.5694 113.576 63.6394 113.427 64.3203C112.333 69.2324 111.438 71.4698 110.045 72.5883C108.703 73.707 107.857 75.5064 109.051 74.7769C109.349 74.6309 109.548 74.8742 109.548 75.3606C109.548 76.7711 108.056 82.0236 107.509 82.5586C107.161 82.8503 107.161 82.5586 107.509 81.6831C108.006 80.4187 108.006 80.3699 106.962 80.9049C106.017 81.3914 105.967 81.3427 106.166 80.1754C106.365 79.2027 106.265 78.911 105.818 79.1055C104.923 79.446 104.525 78.1813 105.022 76.8196C105.569 75.4579 107.061 74.096 107.061 74.9714C107.061 75.3119 107.31 75.4091 107.558 75.2634C108.354 74.7769 108.155 73.0747 107.36 73.3665C106.166 73.8042 105.967 72.637 106.813 70.1079C107.758 67.433 109.25 65.682 110.344 66.1198C110.742 66.2657 111.04 66.1685 111.04 65.974C111.04 65.7308 111.189 65.0498 111.338 64.4176C111.587 63.5421 111.438 63.3476 110.592 63.3476C109.946 63.3476 109.349 63.7853 109.051 64.4176C108.603 65.4875 108.603 65.4875 108.603 64.5148C108.553 63.1044 110.393 60.8672 111.289 61.2562C111.786 61.4022 112.035 61.2077 112.035 60.6727C112.035 60.089 111.736 59.8945 111.04 60.089C110.294 60.2835 110.045 60.089 110.045 59.3108C110.045 57.8518 111.139 55.0795 111.786 55.0795C113.228 55.1282 114.422 55.7119 114.173 56.3441C113.676 57.6086 114.472 57.0249 115.267 55.5172C116.312 53.5718 116.71 54.0095 116.063 56.3927ZM105.072 82.9963C105.072 83.3853 104.873 83.8718 104.574 84.0176C104.326 84.1635 104.077 83.8718 104.077 83.3368C104.077 82.7531 104.326 82.3154 104.574 82.3154C104.873 82.3154 105.072 82.6071 105.072 82.9963ZM101.491 88.0057C102.685 90.5835 103.281 92.6747 103.381 94.4744C103.48 97.0033 103.431 96.8088 102.784 93.1124C102.386 90.6808 101.342 91.2157 99.5512 94.7174C98.7058 96.4683 97.91 97.83 97.8603 97.7815C97.7609 97.6842 98.0591 95.3496 98.4073 92.5289C98.8053 89.7566 98.9544 87.0329 98.8053 86.5954C98.5068 85.6712 99.0041 83.5313 99.4518 83.969C99.6011 84.115 100.496 85.9145 101.491 88.0057ZM105.569 104.542C106.365 105.855 107.061 107.509 107.061 108.335C107.011 109.697 106.962 109.697 106.464 108.822C106.166 108.287 105.569 107.606 105.171 107.314C104.724 107.022 104.525 106.439 104.724 105.952C105.072 105.028 104.525 104.931 103.679 105.758C103.232 106.195 103.082 105.904 103.082 104.299C103.082 103.18 103.281 102.256 103.58 102.256C103.828 102.256 104.724 103.277 105.569 104.542ZM105.818 120.689C105.967 120.932 105.868 121.272 105.569 121.467C105.321 121.613 105.072 121.418 105.072 121.029C105.072 120.154 105.37 120.008 105.818 120.689Z" fill="#70A480"/>
<path d="M151.822 22.9802C151.374 23.272 151.325 23.4667 151.673 23.4667C151.971 23.4667 152.419 23.2235 152.568 22.9802C152.966 22.3967 152.767 22.3967 151.822 22.9802Z" fill="#70A480"/>
<path d="M146.351 24.7797C143.914 25.1201 141.428 26.0443 141.676 26.4821C141.825 26.7251 141.626 27.3088 141.179 27.7952C140.433 28.5733 140.433 28.7192 141.079 28.9625C141.975 29.3029 143.118 28.768 146.5 26.4821C149.584 24.3907 149.584 24.2934 146.351 24.7797Z" fill="#70A480"/>
<path d="M138.195 29.0597C138.394 29.4974 138.742 29.7407 138.991 29.6919C139.737 29.4487 139.538 28.5733 138.693 28.4275C138.145 28.3302 137.996 28.5247 138.195 29.0597Z" fill="#70A480"/>
<path d="M125.712 38.1059C125.165 38.9326 125.762 39.1273 126.458 38.3004C126.856 37.8627 126.856 37.5709 126.557 37.5709C126.259 37.5709 125.861 37.8141 125.712 38.1059Z" fill="#70A480"/>
<path d="M112.83 60.1863C112.383 61.451 112.482 61.7427 113.079 60.77C113.377 60.2838 113.527 59.7486 113.377 59.6513C113.278 59.5055 113.029 59.7486 112.83 60.1863Z" fill="#70A480"/>
<path d="M195.937 2.35886C195.141 2.79659 194.643 3.2343 194.743 3.38021C195.141 3.7693 198.573 2.4075 198.273 1.96978C197.926 1.43479 197.578 1.48342 195.937 2.35886Z" fill="#70A480"/>
<path d="M194.743 6.29832C195.191 6.78467 196.385 6.78467 200.064 6.39559C206.729 5.71469 206.68 5.52015 199.916 5.61742C195.241 5.66604 194.196 5.81196 194.743 6.29832Z" fill="#70A480"/>
<path d="M120.49 22.2507C119.943 22.883 119.992 22.9317 120.688 22.6885C121.136 22.5425 121.484 22.2022 121.484 21.959C121.484 21.3268 121.186 21.424 120.49 22.2507Z" fill="#70A480"/>
<path d="M218.964 22.4938C218.964 22.7857 219.312 22.9802 219.71 22.9802C220.108 22.9802 220.455 22.883 220.455 22.7857C220.455 22.6885 220.108 22.4938 219.71 22.2992C219.312 22.1535 218.964 22.2507 218.964 22.4938Z" fill="#70A480"/>
<path d="M248.058 22.9802C248.209 23.2234 248.607 23.4667 248.854 23.4667C249.153 23.4667 249.203 23.2234 249.054 22.9802C248.904 22.6885 248.506 22.494 248.258 22.494C247.959 22.494 247.91 22.6885 248.058 22.9802Z" fill="#70A480"/>
<path d="M183.055 24.2932C183.403 24.4392 183.851 24.3905 184 24.2447C184.199 24.0987 183.901 23.9527 183.354 24.0014C182.807 24.0014 182.657 24.1472 183.055 24.2932Z" fill="#70A480"/>
<path d="M111.04 30.4214C109.498 32.1238 109.2 32.6101 110.095 32.0751C110.791 31.6373 111.487 31.3941 111.637 31.5401C112.084 31.9778 113.626 29.4487 113.427 28.6707C113.328 28.233 112.482 28.8652 111.04 30.4214Z" fill="#70A480"/>
<path d="M132.277 44.6716C131.68 45.304 133.023 46.3253 134.366 46.2767H135.658L134.415 45.7903C133.769 45.4985 133.072 45.1093 132.923 44.8176C132.724 44.5744 132.476 44.5258 132.277 44.6716Z" fill="#70A480"/>
<path d="M102.386 46.1794C101.839 46.7143 102.038 47.1521 102.834 47.1521C103.231 47.1521 103.58 46.9576 103.58 46.7631C103.58 46.2281 102.784 45.7904 102.386 46.1794Z" fill="#70A480"/>
<path d="M244.328 51.4321C244.677 51.8698 245.075 52.0643 245.174 51.967C245.522 51.6266 244.825 50.7026 244.229 50.7026C243.93 50.7026 243.93 50.9943 244.328 51.4321Z" fill="#70A480"/>
<path d="M125.314 55.3228C124.369 57.2197 124.22 58.4841 124.916 58.4841C125.463 58.4841 126.309 56.1982 126.358 54.6906C126.408 53.2316 126.309 53.3288 125.314 55.3228Z" fill="#70A480"/>
<path d="M273.323 60.916C273.472 61.305 274.169 62.9587 274.864 64.5636C275.561 66.2658 275.91 67.579 275.611 67.7735C274.864 68.2113 276.556 71.6159 277.501 71.6159C278.148 71.6159 278.198 71.4699 277.75 71.0322C277.402 70.6917 277.152 70.1082 277.152 69.6704C277.152 69.184 277.6 69.4757 278.346 70.3999C278.994 71.1781 279.739 71.6644 279.939 71.4699C280.585 70.8862 276.407 63.2992 274.617 61.5968C273.721 60.8188 273.175 60.5268 273.323 60.916Z" fill="#70A480"/>
<path d="M265.216 61.9859C265.216 62.4236 265.466 62.9586 265.713 63.1044C266.361 63.4936 266.361 62.8613 265.713 61.8886C265.315 61.2564 265.216 61.2564 265.216 61.9859Z" fill="#70A480"/>
<path d="M268.201 64.3205C268.499 64.8555 268.847 65.2932 268.998 65.2932C269.097 65.2932 268.998 64.8555 268.699 64.3205C268.4 63.7855 268.051 63.3478 267.902 63.3478C267.803 63.3478 267.902 63.7855 268.201 64.3205Z" fill="#70A480"/>
<path d="M273.472 66.0225C273.522 67.5789 273.821 69.0379 274.12 69.3298C274.468 69.6701 274.567 68.9893 274.417 67.3357C274.12 63.688 273.274 62.5694 273.472 66.0225Z" fill="#70A480"/>
<path d="M261.237 65.3418C261.237 65.5363 261.437 65.828 261.685 65.974C261.934 66.12 262.382 67.1899 262.679 68.3571C262.978 69.5731 263.525 70.789 263.923 71.0808C264.521 71.567 264.521 71.178 263.874 68.6976C263.426 67.0927 262.879 65.7795 262.63 65.7795C262.382 65.7795 262.283 65.585 262.432 65.3905C262.58 65.1473 262.382 64.9528 261.984 64.9528C261.586 64.9528 261.237 65.1473 261.237 65.3418Z" fill="#70A480"/>
<path d="M262.234 70.8375C262.234 70.9348 262.63 71.324 263.127 71.6643C263.874 72.2967 263.923 72.248 263.277 71.4698C262.63 70.6915 262.234 70.4485 262.234 70.8375Z" fill="#70A480"/>
<path d="M272.428 71.713C272.628 72.3452 273.175 73.4152 273.722 74.1447C274.268 74.9229 274.815 76.7223 275.015 78.522C275.312 81.7806 275.71 82.3641 277.204 81.9751C277.948 81.7806 278.047 81.4401 277.849 80.4187C277.602 79.3002 277.701 79.3487 278.943 80.9537C279.689 81.9751 280.486 82.8018 280.733 82.8018C281.181 82.8018 281.232 79.9324 280.834 77.3548C280.585 76.1388 280.286 75.6524 279.838 75.8471C279.442 75.9929 279.143 76.5278 279.143 77.0143C279.143 79.2027 276.954 77.1115 276.457 74.4852C276.059 72.248 274.666 70.8863 274.666 72.637C274.666 73.707 274.617 73.707 273.672 72.1993C272.527 70.3998 271.981 70.1566 272.428 71.713Z" fill="#70A480"/>
<path d="M260.74 72.4425C260.99 72.9288 261.984 74.1932 262.978 75.2634L264.719 77.2088V75.8469C264.719 75.0202 264.371 74.3879 263.873 74.1932C263.376 73.9987 262.58 73.3665 262.083 72.7343C260.99 71.4211 259.946 71.2266 260.74 72.4425Z" fill="#70A480"/>
<path d="M85.2278 81.1481C85.2278 81.6831 85.3769 81.8291 85.5261 81.4399C85.6754 81.0996 85.6257 80.6619 85.4764 80.5159C85.3272 80.3214 85.1781 80.6132 85.2278 81.1481Z" fill="#70A480"/>
<path d="M276.457 85.4767C276.108 86.7899 276.556 88.2488 277.501 88.784C278.247 89.2215 278.396 90.9239 277.651 91.167C277.352 91.2644 277.352 91.8479 277.6 92.7721C277.899 93.7448 278.099 93.8906 278.099 93.2584C278.198 91.5562 279.093 93.2098 279.291 95.447C279.39 96.7602 279.491 95.982 279.541 93.5016C279.59 91.2157 279.788 88.8813 279.939 88.2976C280.236 87.3248 279.788 86.7411 277.501 84.8932C276.905 84.4067 276.705 84.504 276.457 85.4767Z" fill="#70A480"/>
<path d="M113.178 90.9241C113.178 91.7023 113.278 91.994 113.377 91.6536C113.527 91.3618 113.825 91.2158 114.123 91.3618C114.422 91.5563 114.372 91.2646 114.074 90.6321C113.328 89.2704 113.129 89.3191 113.178 90.9241Z" fill="#70A480"/>
<path d="M87.217 95.2524C87.217 95.7874 87.3662 95.9334 87.5153 95.5444C87.6647 95.2039 87.6149 94.7662 87.4656 94.6202C87.3165 94.4257 87.1673 94.7175 87.217 95.2524Z" fill="#70A480"/>
<path d="M266.361 105.904C266.361 106.974 266.46 107.363 266.559 106.73C266.658 106.147 266.658 105.271 266.559 104.785C266.411 104.347 266.312 104.834 266.361 105.904Z" fill="#70A480"/>
<path d="M84.1831 107.8C84.1831 108.19 84.382 108.627 84.6307 108.773C84.8793 108.968 84.9789 108.627 84.8296 108.092C84.5313 106.974 84.1831 106.828 84.1831 107.8Z" fill="#70A480"/>
<path d="M117.904 136.982C117.754 137.808 118.053 138.781 118.898 139.9C119.893 141.31 120.042 141.748 119.495 142.38C119.147 142.769 118.65 142.964 118.301 142.769C118.003 142.623 118.202 142.915 118.699 143.499C119.744 144.715 120.49 145.007 119.495 143.839C118.699 142.915 118.749 142.915 122.28 144.082C124.419 144.763 124.966 144.861 124.27 144.326C123.723 143.936 123.076 143.596 122.778 143.596C122.529 143.596 122.479 143.45 122.628 143.256C122.827 143.11 122.678 142.623 122.28 142.186C121.882 141.748 120.788 140.143 119.843 138.587C118.252 136.009 118.102 135.863 117.904 136.982Z" fill="#70A480"/>
<path d="M94.8264 143.742C95.075 145.736 96.5173 149.53 96.6168 148.265C96.6168 148.022 97.0147 148.168 97.4623 148.508C98.2581 149.092 98.2084 149.043 97.4126 147.779C96.9152 147.001 96.0697 145.25 95.5226 143.888L94.5776 141.407L94.8264 143.742Z" fill="#70A480"/>
<path d="M130.039 147.633C129.989 148.508 130.238 148.897 131.083 149.14C132.128 149.384 132.128 149.432 131.232 150.065C129.79 151.086 131.033 152.691 134.266 154.101C136.803 155.22 144.71 156.728 147.943 156.728C148.739 156.728 149.783 157.214 150.43 157.895C151.077 158.576 152.569 159.646 153.812 160.327L156.05 161.591H154.06L152.071 161.64L153.464 162.369C154.757 163.05 154.956 163.05 155.851 162.272C156.647 161.591 157.044 161.542 158.039 161.98C159.133 162.467 159.283 162.418 159.283 161.591C159.283 161.056 159.084 160.619 158.785 160.619C157.592 160.619 158.437 159.646 159.681 159.597L161.023 159.549L159.531 159.159C158.736 158.965 158.387 158.77 158.785 158.722C159.183 158.624 158.586 158.333 157.393 157.944C156.249 157.603 154.508 156.728 153.563 155.998C152.618 155.317 151.822 154.88 151.822 155.074C151.822 155.269 151.375 155.025 150.828 154.539C150.33 154.101 149.932 153.566 149.982 153.372C150.082 153.129 145.257 148.605 144.71 148.411C144.661 148.411 142.174 148.071 139.14 147.73C136.156 147.341 132.874 146.903 131.929 146.709C130.337 146.466 130.138 146.514 130.039 147.633Z" fill="#70A480"/>
<path d="M100.248 150.016C100.496 151.037 100.496 151.037 99.8995 150.308C98.8551 148.946 98.6562 149.773 99.3027 152.545C100.148 155.949 100.546 156.63 101.342 155.609C101.839 154.928 102.138 155.025 103.679 156.63C105.519 158.479 106.663 161.591 105.519 161.591C104.177 161.591 106.962 163.683 110.642 165.433C113.925 166.941 114.323 167.038 113.427 166.114C112.631 165.239 112.482 164.85 112.93 164.412C113.328 164.023 113.726 164.169 114.472 165.044C115.466 166.212 115.566 166.406 115.715 167.476C115.765 168.206 120.39 172.048 120.738 171.707C120.888 171.562 120.291 170.637 119.445 169.567C118.202 168.06 118.053 167.622 118.699 167.525C119.992 167.282 119.594 166.066 118.053 165.239C116.958 164.704 116.561 164.655 116.411 165.093C116.262 165.433 115.417 164.947 114.323 163.877C113.328 162.904 112.283 162.077 112.084 162.077C111.587 162.077 107.559 155.609 107.559 154.831C107.559 154.588 107.31 154.199 106.962 154.004C106.614 153.761 106.564 153.858 106.813 154.296C107.111 154.782 107.011 154.879 106.365 154.636C105.868 154.442 105.42 154.296 105.271 154.296C105.171 154.296 104.724 153.566 104.276 152.74C103.58 151.378 103.381 151.281 103.132 152.01C102.834 152.74 102.585 152.545 101.69 150.94C100.397 148.751 99.8497 148.362 100.248 150.016Z" fill="#70A480"/>
<path d="M141.229 158.041C140.682 158.576 143.467 161.105 144.561 161.105C145.158 161.105 145.954 161.348 146.352 161.591C146.948 161.98 146.948 162.078 146.103 162.078C144.064 162.126 149.932 165.142 152.27 165.239C153.464 165.288 154.558 165.579 154.757 165.823C154.906 166.114 155.851 166.503 156.796 166.698C157.741 166.893 159.929 167.622 161.62 168.303C163.51 169.033 165.002 169.373 165.599 169.13C166.444 168.789 166.444 168.741 165.499 168.4C164.952 168.157 163.908 167.963 163.211 167.963C162.117 167.914 161.918 167.719 162.167 166.698C162.366 165.482 161.62 164.996 161.023 165.968C160.426 166.893 157.989 166.455 154.458 164.801C151.723 163.488 150.778 162.807 150.529 161.883C150.281 160.91 149.734 160.521 148.142 160.084C147.048 159.792 145.158 159.159 143.964 158.624C141.527 157.555 141.677 157.603 141.229 158.041Z" fill="#70A480"/>
<path d="M162.167 160.229C162.764 160.521 163.261 161.153 163.261 161.591C163.261 162.467 165.052 163.05 167.588 163.05C168.285 163.05 169.478 163.439 170.274 163.877C171.766 164.753 174.153 164.363 174.551 163.196C174.8 162.515 170.622 160.521 170.224 161.153C169.926 161.591 168.633 161.786 167.091 161.688C166.593 161.64 166.345 161.348 166.494 161.105C166.693 160.813 166.196 160.618 165.3 160.618C164.505 160.618 163.659 160.375 163.51 160.132C163.361 159.84 162.714 159.646 162.117 159.694H161.023L162.167 160.229Z" fill="#70A480"/>
<path d="M160.924 162.418C161.371 162.515 162.067 162.515 162.416 162.418C162.714 162.272 162.366 162.175 161.52 162.175C160.725 162.175 160.426 162.272 160.924 162.418Z" fill="#70A480"/>
<path d="M156.795 163.488C156.795 164.12 157.84 164.412 158.934 164.12C159.68 163.926 159.73 163.78 159.183 163.488C158.337 162.904 156.795 162.953 156.795 163.488Z" fill="#70A480"/>
<path d="M177.038 164.12C176.839 164.752 176.938 165.336 177.237 165.385C178.182 165.725 176.59 166.941 175.247 166.941C174.253 166.941 174.104 166.844 174.7 166.455C175.098 166.211 175.297 165.871 175.098 165.725C174.949 165.579 174.501 165.725 174.104 166.114C173.706 166.503 172.611 167.233 171.716 167.719L169.976 168.595L173.208 169.227C179.972 170.491 181.315 169.908 181.066 165.774C180.917 163.293 180.917 163.293 179.127 163.148C177.585 163.002 177.286 163.148 177.038 164.12Z" fill="#70A480"/>
<path d="M144.213 164.558C144.561 164.899 144.959 165.045 145.108 164.899C145.257 164.753 145.009 164.461 144.511 164.315C143.815 164.023 143.765 164.072 144.213 164.558Z" fill="#70A480"/>
<path d="M254.424 167.719C252.087 170.103 252.386 170.93 254.772 168.644C255.816 167.622 256.612 166.601 256.464 166.358C256.165 165.871 256.313 165.774 254.424 167.719Z" fill="#70A480"/>
<path d="M249.7 170.686C248.555 171.902 248.456 172.145 249.054 172.972C249.451 173.458 249.95 173.702 250.247 173.507C250.993 173.069 250.944 171.318 250.197 171.318C249.849 171.318 250.098 170.881 250.793 170.346C251.491 169.811 251.79 169.373 251.491 169.373C251.241 169.373 250.395 169.957 249.7 170.686Z" fill="#70A480"/>
<path d="M117.505 172.097C119.296 173.701 120.489 174.188 120.489 173.361C120.489 172.583 118.003 170.686 116.809 170.54C115.715 170.443 115.764 170.54 117.505 172.097Z" fill="#70A480"/>
<path d="M122.678 172.242C123.026 172.777 126.507 173.847 126.855 173.507C127.104 173.312 125.91 172.777 123.523 172.048C122.727 171.804 122.479 171.853 122.678 172.242Z" fill="#70A480"/>
<path d="M119.793 174.917C119.942 175.355 120.44 175.696 120.887 175.696C121.285 175.696 121.534 175.647 121.434 175.55C121.335 175.501 120.837 175.112 120.34 174.772C119.594 174.188 119.495 174.188 119.793 174.917Z" fill="#70A480"/>
<path d="M122.479 176.62C122.479 177.301 126.905 181.143 127.353 180.851C127.602 180.705 128.895 181.289 130.238 182.116C131.58 182.942 133.769 184.158 135.062 184.79C136.355 185.423 137.3 186.152 137.151 186.395C137.002 186.639 137.847 187.076 138.991 187.417C140.184 187.709 142.82 188.681 144.859 189.557C155.901 194.372 168.633 197.29 180.867 197.825C186.736 198.068 187.383 197.971 184.498 197.387C183.752 197.193 183.255 196.852 183.404 196.609C183.553 196.317 183.155 196.123 182.459 196.123C181.763 196.123 181.066 195.879 180.867 195.588C180.668 195.199 181.265 195.101 182.857 195.199C185.344 195.393 185.443 195.344 184.448 194.031C183.652 193.01 181.265 192.961 178.828 193.934C176.342 194.955 174.402 194.907 174.054 193.739C173.905 193.156 173.208 192.718 172.015 192.523C171.02 192.378 169.428 192.086 168.483 191.94C167.538 191.794 166.743 191.453 166.743 191.21C166.743 190.967 165.798 190.773 164.604 190.773C163.46 190.773 161.173 190.432 159.631 190.043C158.039 189.654 156.348 189.314 155.901 189.314C155.453 189.314 153.364 188.73 151.325 188C147.844 186.736 147.694 186.639 149.087 186.347L150.579 186.006L148.988 185.958C147.048 185.909 145.804 185.423 146.103 184.936C146.401 184.45 145.904 184.304 141.229 183.234C137.151 182.359 137.051 182.359 137.797 183.088C139.538 184.79 137.3 184.353 135.261 182.553C134.366 181.824 134.366 181.775 135.509 181.483C136.305 181.24 136.007 181.143 134.366 181.094C132.774 181.046 131.929 180.802 131.73 180.316C131.382 179.441 133.023 179.343 135.36 180.121C138.344 181.143 137.399 180.267 133.918 178.76L130.437 177.252L130.735 178.468C131.033 179.635 130.984 179.684 129.89 179.051C129.243 178.711 128.099 178.03 127.353 177.495C126.11 176.62 122.479 175.939 122.479 176.62Z" fill="#70A480"/>
<path d="M195.34 177.641C195.191 177.884 195.39 178.127 195.788 178.127C196.186 178.127 196.683 177.884 196.832 177.641C196.981 177.349 196.782 177.155 196.384 177.155C195.987 177.155 195.489 177.349 195.34 177.641Z" fill="#70A480"/>
<path d="M234.381 183.04C233.239 183.526 233.187 183.574 234.082 184.061C235.128 184.645 237.614 183.769 237.117 182.991C236.719 182.407 236.023 182.407 234.381 183.04Z" fill="#70A480"/>
<path d="M231.896 183.477C231.896 183.72 232.143 183.964 232.393 183.964C232.69 183.964 232.89 183.72 232.89 183.477C232.89 183.185 232.69 182.991 232.393 182.991C232.143 182.991 231.896 183.185 231.896 183.477Z" fill="#70A480"/>
<path d="M230.402 184.985C230.402 185.228 230.652 185.325 230.899 185.179C231.198 185.033 231.396 184.79 231.396 184.644C231.396 184.547 231.198 184.45 230.899 184.45C230.652 184.45 230.402 184.693 230.402 184.985Z" fill="#70A480"/>
<path d="M219.461 188.292C213.792 190.335 213.244 190.627 212.499 191.502C211.802 192.28 211.851 192.329 212.996 192.037C214.188 191.697 214.188 191.697 213.244 192.475C211.851 193.594 207.723 194.664 205.087 194.664L202.799 194.615L204.54 193.691C205.485 193.156 207.127 192.523 208.221 192.232C209.266 191.891 209.962 191.502 209.714 191.259C209.464 191.064 206.381 191.405 202.799 192.037C199.268 192.621 194.644 193.399 192.605 193.739C189.919 194.129 189.173 194.42 189.869 194.664C190.764 195.004 190.764 195.101 189.471 195.588C188.675 195.879 187.88 196.122 187.631 196.122C187.382 196.122 187.084 196.317 186.935 196.56C186.736 196.803 188.079 196.998 189.919 197.047C192.903 197.047 193.152 196.998 192.853 196.122C192.605 195.296 192.754 195.15 193.898 195.15C194.644 195.15 195.688 195.539 196.185 195.977C197.031 196.706 197.528 196.755 201.657 196.171C207.028 195.393 216.278 192.864 221.699 190.675C225.379 189.168 227.021 187.855 225.231 187.855C224.783 187.855 224.434 187.611 224.434 187.368C224.434 186.639 223.539 186.785 219.461 188.292Z" fill="#70A480"/>
</g>
<mask id="mask1_36_289" style="mask-type:luminance" maskUnits="userSpaceOnUse" x="0" y="79" width="410" height="44">
<path d="M410 79.2271H0V122.802H410V79.2271Z" fill="white"/>
</mask>
<g mask="url(#mask1_36_289)">
<path d="M332.754 91.1112H400.097C405.565 91.1112 410 95.5452 410 101.015V104.976C410 108.258 407.34 110.918 404.058 110.918H332.754V91.1112Z" fill="white"/>
<path d="M332.754 82.1981C332.754 80.5573 331.423 79.2271 329.783 79.2271C328.142 79.2271 326.812 80.5573 326.812 82.1981V119.831C326.812 121.472 328.142 122.802 329.783 122.802C331.423 122.802 332.754 121.472 332.754 119.831V82.1981Z" fill="white"/>
<path d="M0 91.1112H322.851V110.918H30.9925C26.7606 110.918 22.5536 110.272 18.5166 109.003L17.5026 108.684C11.9354 106.934 7.2068 103.196 4.21776 98.184L0 91.1112Z" fill="white"/>
<path d="M81.2077 95.0726H25.7488V97.0533H81.2077V95.0726Z" fill="black"/>
<path d="M316.908 95.0726H245.604V97.0533H316.908V95.0726Z" fill="black"/>
<path d="M340.677 101.015L342.657 93.0919L344.638 101.015L342.657 108.937L340.677 101.015Z" fill="black"/>
<path d="M350.58 101.015L352.56 93.0919L354.541 101.015L352.56 108.937L350.58 101.015Z" fill="black"/>
<path d="M360.483 101.015L362.464 93.0919L364.445 101.015L362.464 108.937L360.483 101.015Z" fill="black"/>
<path d="M370.386 101.015L372.367 93.0919L374.348 101.015L372.367 108.937L370.386 101.015Z" fill="black"/>
<path d="M380.29 101.015L382.271 93.0919L384.252 101.015L382.271 108.937L380.29 101.015Z" fill="black"/>
<path d="M390.193 101.015L392.174 93.0919L394.154 101.015L392.174 108.937L390.193 101.015Z" fill="black"/>
</g>
<path d="M69.6031 87.1043H60.6286V81.1821H69.6031C74.2953 81.1821 77.9398 78.5399 79.6709 74.2577C70.8786 73.9388 64.0453 67.3788 62.2231 56.6277H58.8064V50.7054H86.5498V56.6277H68.2364C69.7853 64.0988 74.2953 68.3354 80.5364 68.3354H80.7186V66.3766H86.6409V68.5177C86.6409 79.2688 79.4886 87.1043 69.6031 87.1043ZM115.792 56.6277V50.7054H126.907V56.6277H121.76L124.675 58.4499V72.8454C124.675 78.1299 127.773 81.2277 133.057 81.2277H139.162V87.1499H132.693C124.766 87.1499 118.753 81.3643 118.753 73.2099V56.6277H115.792ZM167.349 56.6277V50.7054H190.218V87.1043H184.295V56.6277H173.317L176.232 58.4499V66.6499H182.473V72.5721H176.232V77.8566C176.232 83.2321 172.314 87.1499 166.939 87.1499V81.2277C168.852 81.2277 170.31 80.5899 170.31 76.581V56.6277H167.349ZM229.717 87.1043H220.743V81.1821H229.717C234.409 81.1821 238.054 78.5399 239.785 74.2577C230.993 73.9388 224.159 67.3788 222.337 56.6277H218.921V50.7054H246.664V56.6277H228.351C229.899 64.0988 234.409 68.3354 240.651 68.3354H240.833V66.3766H246.755V68.5177C246.755 79.2688 239.603 87.1043 229.717 87.1043ZM275.905 71.2055V65.2832H278.866V50.7054H284.788V65.2832H293.307V50.7054H299.229V65.2832H305.379V71.2055H299.457C300.186 77.7655 302.782 81.2277 305.379 81.2277V87.1499C299.001 87.1499 294.172 80.4532 293.398 71.2055H281.872L284.788 73.0277V87.1499H278.866V71.2055H275.905ZM69.6031 152.467H60.6286V146.544H69.6031C74.2953 146.544 77.9398 143.902 79.6709 139.62C70.8786 139.301 64.0453 132.741 62.2231 121.99H58.8064V116.068H86.5498V121.99H68.2364C69.7853 129.461 74.2953 133.698 80.5364 133.698H80.7186V131.739H86.6409V133.88C86.6409 144.631 79.4886 152.467 69.6031 152.467ZM116.202 121.99V116.068H139.071V152.467H133.149V121.99H122.17L125.085 123.812V132.012H131.326V137.934H125.085V143.219C125.085 148.594 121.167 152.512 115.792 152.512V146.59C117.705 146.59 119.163 145.952 119.163 141.943V121.99H116.202ZM168.229 121.99V116.068H197.703V121.99C197.703 126.956 195.699 131.238 192.373 134.244C195.699 137.297 197.703 141.579 197.703 146.544V152.467H178.934V146.544H191.781C191.781 139.984 186.633 135.429 178.934 135.429H177.112V152.467H171.19V135.429H168.229V129.507H171.19V121.99H168.229ZM174.197 121.99L177.112 123.812V129.507H179.117C181.987 129.507 184.629 130.008 186.998 130.919C190.004 129.006 191.781 125.862 191.781 121.99H174.197ZM226.405 121.99V116.068H254.149V121.99H232.373L235.289 123.812C235.289 126.318 235.38 128.596 235.562 130.646H250.003V136.568H236.61C238.523 143.538 242.669 146.59 250.049 146.59H254.149V152.512H250.049C238.979 152.512 232.874 146.818 230.506 136.568H226.405V130.646H229.594C229.458 128.869 229.367 127.001 229.367 125.042V121.99H226.405ZM283.78 121.99V116.068H313.254V121.99C313.254 129.871 308.289 136.021 301 138.208C302.412 143.356 306.33 146.544 311.523 146.544H313.254V152.467H311.523C301.638 152.467 294.485 144.631 294.485 133.88V128.368H300.408V132.149C304.644 130.463 307.332 126.682 307.332 121.99H289.748L292.663 123.812V152.467H286.741V121.99H283.78Z" fill="white"/>
<path d="M99.0278 94.8885C98.8852 95.0845 98.5643 95.6193 98.4039 95.9937C97.673 97.6872 96.3539 100.112 94.8209 101.894C92.8243 104.194 90.1326 106.404 87.3695 107.705L85.5156 105.78C88.4035 104.711 91.1487 102.536 92.8243 100.682C94.0009 99.345 95.0882 97.5802 95.4982 96.3145C94.7495 96.3145 90.2039 96.3145 89.4374 96.3145C88.7065 96.3145 87.7261 96.4037 87.3339 96.4393V93.8902C87.8152 93.9615 88.9204 94.015 89.4374 94.015C90.3821 94.015 94.9456 94.015 95.73 94.015C96.5143 94.015 97.2095 93.9258 97.5839 93.8011L99.0278 94.8885ZM95.0526 100.415C96.8887 101.912 99.42 104.568 100.579 105.994L98.5465 107.759C97.2274 105.923 95.2843 103.802 93.3769 102.072L95.0526 100.415ZM105.98 93.2841C106.461 93.3554 107.228 93.3911 107.834 93.3911C108.957 93.3911 113.645 93.3911 114.679 93.3911C115.25 93.3911 116.123 93.3554 116.604 93.2841V95.6015C116.141 95.5658 115.303 95.5302 114.643 95.5302C113.663 95.5302 108.886 95.5302 107.834 95.5302C107.246 95.5302 106.497 95.548 105.98 95.6015V93.2841ZM118.12 98.4715C117.995 98.7032 117.834 99.0241 117.781 99.2024C117.228 100.932 116.462 102.678 115.143 104.14C113.342 106.155 111.06 107.349 108.779 108.008L106.996 105.994C109.688 105.424 111.809 104.265 113.182 102.857C114.127 101.894 114.697 100.771 115 99.7906C114.109 99.7906 107.994 99.7906 106.408 99.7906C105.962 99.7906 105.071 99.8085 104.322 99.8619V97.5445C105.089 97.6159 105.837 97.6693 106.408 97.6693C107.62 97.6693 114.002 97.6693 115.214 97.6693C115.802 97.6693 116.283 97.598 116.533 97.4732L118.12 98.4715ZM128.815 96.3858C129.154 97.1345 130.027 99.4698 130.277 100.29L128.156 101.021C127.924 100.165 127.14 98.008 126.712 97.0811L128.815 96.3858ZM135.393 97.6693C135.197 98.2576 135.09 98.6319 134.983 98.9885C134.52 100.789 133.753 102.643 132.541 104.194C130.883 106.351 128.673 107.83 126.587 108.632L124.715 106.725C126.658 106.19 129.154 104.835 130.616 102.982C131.828 101.484 132.701 99.1132 132.897 96.8672L135.393 97.6693ZM124.68 97.3128C125.125 98.2219 125.999 100.397 126.337 101.395L124.163 102.197C123.877 101.252 122.968 98.8637 122.54 98.0972L124.68 97.3128ZM143.147 92.8563C144.324 93.498 146.285 94.7458 147.212 95.4054L145.893 97.3663C144.894 96.6711 143.04 95.4767 141.864 94.8171L143.147 92.8563ZM139.85 105.513C141.846 105.174 143.967 104.568 145.91 103.498C148.941 101.805 151.437 99.3628 152.845 96.8137L154.217 99.238C152.577 101.716 150.046 103.962 147.14 105.655C145.322 106.672 142.755 107.563 141.187 107.848L139.85 105.513ZM140.402 96.9206C141.597 97.5624 143.557 98.7746 144.484 99.4341L143.165 101.431C142.167 100.718 140.313 99.5232 139.119 98.8815L140.402 96.9206ZM168.995 98.4715C168.924 98.7032 168.853 99.0241 168.835 99.2202C168.657 100.468 168.05 104.515 167.837 105.798H165.377C165.608 104.622 166.143 101.181 166.232 99.9867C165.377 99.9867 161.918 99.9867 161.401 99.9867C160.849 99.9867 160.136 100.022 159.619 100.058V97.705C160.1 97.7763 160.92 97.8298 161.383 97.8298C162.293 97.8298 165.109 97.8298 165.965 97.8298C166.321 97.8298 167.052 97.7585 167.284 97.6337L168.995 98.4715ZM157.997 104.925C158.46 104.978 159.137 105.032 159.743 105.032C160.813 105.032 168.229 105.032 169.102 105.032C169.548 105.032 170.386 104.996 170.849 104.942V107.242C170.475 107.224 169.601 107.206 169.138 107.206C168.211 107.206 160.653 107.206 159.743 107.206C159.12 107.206 158.656 107.224 157.997 107.26V104.925ZM186.643 99.0954C186.643 103.498 185.574 106.19 181.26 108.098L179.352 106.297C182.81 105.103 184.308 103.552 184.308 99.1667V94.425C184.308 93.7119 184.272 93.1237 184.201 92.785H186.75C186.714 93.1415 186.643 93.7119 186.643 94.425V99.0954ZM180.19 92.9276C180.154 93.2663 180.083 93.8367 180.083 94.5498V100.914C180.083 101.716 180.137 102.447 180.172 102.785H177.677C177.712 102.447 177.766 101.716 177.766 100.914V94.5319C177.766 94.0328 177.73 93.4802 177.659 92.9276H180.19ZM174.325 96.1363C174.646 96.1898 175.377 96.3145 176.25 96.3145H187.944C188.889 96.3145 189.424 96.2611 189.923 96.1898V98.5606C189.531 98.5072 188.889 98.5072 187.962 98.5072H176.25C175.359 98.5072 174.735 98.5428 174.325 98.5606V96.1363ZM192.757 98.7032C193.417 98.7567 194.7 98.828 195.627 98.828C197.731 98.828 203.614 98.828 205.2 98.828C206.038 98.828 206.822 98.7389 207.304 98.7032V101.52C206.876 101.502 205.967 101.413 205.218 101.413C203.596 101.413 197.731 101.413 195.627 101.413C194.629 101.413 193.435 101.466 192.757 101.52V98.7032ZM221.582 94.6032C222.099 95.3519 222.866 96.6354 223.276 97.4554L221.671 98.1506C221.154 97.0276 220.691 96.1719 220.031 95.245L221.582 94.6032ZM223.971 93.6228C224.506 94.3358 225.308 95.6015 225.718 96.4037L224.149 97.1524C223.579 96.0293 223.097 95.2271 222.438 94.3358L223.971 93.6228ZM209.585 101.894C210.102 101.448 210.494 101.074 211.047 100.522C211.849 99.7193 213.24 97.9724 214.47 96.5106C215.539 95.245 216.591 95.0489 217.964 96.3502C219.176 97.4911 220.53 98.8993 221.6 100.058C222.794 101.342 224.63 103.302 226.003 104.764L224.024 106.885C222.83 105.406 221.333 103.552 220.281 102.322C219.229 101.092 217.66 99.3628 217.019 98.7032C216.43 98.1328 216.056 98.1685 215.557 98.8102C214.844 99.7193 213.596 101.466 212.865 102.447C212.455 102.999 212.045 103.641 211.724 104.105L209.585 101.894ZM235.736 106.565C235.825 106.226 235.879 105.745 235.879 105.263C235.879 104.318 235.879 96.3145 235.879 94.8706C235.879 94.0684 235.754 93.3732 235.754 93.3376H238.392C238.392 93.3732 238.267 94.0863 238.267 94.8885C238.267 96.3145 238.267 103.106 238.267 104.194C239.729 103.57 241.476 102.162 242.688 100.432L244.043 102.411C242.564 104.336 240.014 106.262 238 107.278C237.626 107.474 237.412 107.67 237.234 107.795L235.736 106.565ZM227.483 106.315C229.069 105.21 230.032 103.57 230.513 102.037C231.03 100.522 231.048 97.1345 231.048 94.9954C231.048 94.2645 230.977 93.8011 230.87 93.3554H233.49C233.49 93.4267 233.365 94.2289 233.365 94.9598C233.365 97.0811 233.312 100.842 232.848 102.643C232.296 104.639 231.19 106.404 229.657 107.759L227.483 106.315Z" fill="black"/>
</svg>
