<svg width="207" height="100" viewBox="0 0 207 100" fill="none" xmlns="http://www.w3.org/2000/svg">
<circle cx="93.5" cy="48.5" r="44.5" fill="white"/>
<g clip-path="url(#clip0_36_6)">
<path d="M93.5506 0.233229C92.8476 0.356004 92.7973 0.797993 93.4753 0.797993C93.7515 0.797993 93.9775 0.896213 93.9775 1.04354C93.9775 1.43642 90.8137 1.43642 90.3366 1.04354C90.1859 0.920768 89.8595 0.994433 89.6084 1.19087C89.1564 1.51009 89.2066 1.53464 90.2864 1.53464C91.1401 1.53464 91.4665 1.63286 91.4665 1.87841C91.4665 2.3204 90.9643 2.49228 90.1357 2.34496C89.6335 2.24674 89.4577 2.3204 89.4577 2.61506C89.4577 2.90972 89.3071 2.98338 88.8551 2.86061C88.5287 2.78694 87.8005 2.86061 87.1979 3.00794C86.319 3.22893 86.0679 3.22893 85.7164 2.90972C85.1388 2.39406 85.0384 2.41862 83.5569 3.13071C82.7283 3.54815 82.1005 3.72003 81.6486 3.62181C81.1966 3.52359 80.368 3.72003 79.1627 4.21113C77.405 4.94778 76.4006 5.16877 76.4006 4.7759C76.4257 4.38302 77.0786 3.81825 77.8319 3.54815C78.2838 3.40082 79.0371 2.98338 79.5142 2.63961C80.5688 1.85386 82.0754 1.41187 82.5023 1.75564C82.7032 1.90297 83.1803 1.8293 83.9838 1.48553C84.712 1.19087 85.3397 1.0681 85.6159 1.16632C85.9926 1.31365 85.9424 1.38731 85.3146 1.53464C84.486 1.70653 83.4314 2.29585 83.4314 2.54139C83.4314 2.63961 83.808 2.61506 84.26 2.49228C84.6869 2.39406 85.4904 2.22218 86.0177 2.14852C86.771 2.02574 86.9216 1.92752 86.7208 1.68197C86.5701 1.48553 86.4948 1.16632 86.5952 0.945323C86.6705 0.724328 86.7208 0.552444 86.6705 0.552444C86.1181 0.552444 78.5349 1.58375 78.3843 1.65742C78.2838 1.73108 78.2336 1.95208 78.309 2.12396C78.5098 2.66417 77.9072 2.86061 77.5557 2.36951C77.2543 1.97663 77.1539 2.02574 76.2248 2.90972C75.6975 3.42537 75.3711 3.7937 75.4967 3.67092C75.6473 3.5727 76.024 3.49904 76.3504 3.49904C76.9279 3.49904 76.953 3.52359 76.6015 4.03925C76.3755 4.35846 75.798 4.70223 75.2456 4.82501C74.6931 4.92322 73.9147 5.29155 73.4879 5.61076C73.061 5.92998 72.6341 6.12642 72.5588 6.05275C72.3328 5.83176 70.9769 6.64207 69.3447 7.96804C68.0641 8.99935 67.8633 9.26945 68.2148 9.39223C68.6166 9.515 68.5914 9.61322 67.9888 10.3253C67.2104 11.2338 66.7082 11.3321 66.4822 10.62C66.2311 9.88333 66.5575 9.17123 67.3108 8.80291C67.6875 8.60647 68.2148 8.21359 68.491 7.89437C68.9179 7.37872 68.8677 7.40327 68.0641 7.99259C67.5368 8.38547 67.11 8.63102 67.11 8.55736C67.11 8.50825 66.7584 8.5328 66.3316 8.65558C65.6285 8.85202 65.5783 8.82746 65.6536 8.33636C65.754 7.62427 67.5117 6.66663 67.8381 7.13317C68.0641 7.50149 68.8677 7.18228 70.1231 6.20008C70.4747 5.92998 71.0271 5.65987 71.3535 5.58621C71.9813 5.46343 73.8896 4.33391 73.8896 4.08836C73.8896 3.94103 73.5632 4.11291 72.5337 4.80045C72.0064 5.16877 71.7804 5.21788 71.6297 4.99689C71.5042 4.75134 71.2029 4.80045 70.4496 5.19333C69.8972 5.46343 69.3698 5.63532 69.2945 5.56165C69.0936 5.36521 66.3818 6.81396 65.3021 7.67338L64.4232 8.38547L64.5488 10.3008L64.6492 12.216L61.7113 14.7452C60.0792 16.1203 58.6982 17.2253 58.6479 17.1516C58.3215 16.8324 60.4558 14.205 60.8576 14.4505C60.958 14.4997 61.3096 14.205 61.6109 13.763C61.9373 13.321 62.5149 12.658 62.8915 12.2897C63.5444 11.7004 63.8457 10.8655 63.3937 10.8655C62.9417 10.8655 61.8369 11.504 61.6611 11.8723C61.5607 12.0933 60.8827 12.9036 60.1545 13.6648C58.9241 14.9908 58.8739 15.0153 59.0999 14.2541C59.2255 13.8121 59.6021 13.1982 59.9537 12.9036C60.3052 12.6089 60.481 12.3143 60.3805 12.2406C60.0541 12.0442 58.8488 13.2719 58.3215 14.3769C58.0202 14.9662 57.518 15.7274 57.1665 16.0221C56.84 16.3413 56.5638 16.7342 56.5638 16.906C56.5638 17.0534 55.8356 17.8146 54.9317 18.6003C54.0277 19.3615 53.2995 20.0982 53.2995 20.221C53.2995 20.7366 53.9775 20.3683 54.8815 19.3861C55.4088 18.8213 55.7854 18.5021 55.685 18.6494C55.6096 18.8213 55.4841 19.1897 55.4339 19.4843C55.3083 20.1473 54.8312 20.6875 54.4044 20.6875C54.2286 20.6875 53.9524 20.9085 53.8017 21.1786C53.5757 21.5715 53.6009 21.6206 53.9273 21.5224C54.4044 21.3259 54.4044 21.5224 53.9524 22.2345C53.4753 22.9711 53.2242 23.8796 53.4753 23.8796C53.6009 23.8796 53.9775 23.4377 54.2788 22.8729C54.6806 22.2099 54.9317 21.9644 55.0572 22.1608C55.3837 22.6765 56.5387 19.9263 56.2625 19.2388C56.0365 18.6003 56.2123 17.7164 56.6643 17.4462C57.1162 17.1516 57.9449 17.2253 58.4471 17.5936C58.9241 17.9373 58.9241 17.9619 58.4471 18.4776C58.1709 18.7722 57.7189 19.116 57.4176 19.2142C57.0409 19.3615 56.8149 19.8035 56.5889 20.7857C56.4132 21.5469 56.3378 22.259 56.4132 22.3818C56.4885 22.5046 56.0616 22.8974 55.459 23.2412C54.8563 23.585 53.9273 24.4444 53.4 25.1319C52.6216 26.1633 52.5211 26.4579 52.7471 26.8262C52.9731 27.17 52.9229 27.3419 52.5462 27.6857C52.1194 28.054 52.0943 28.054 51.9938 27.6366C51.9185 27.3173 51.7427 27.4892 51.3159 28.2995C50.9894 28.9134 50.5123 29.6992 50.2612 30.0675C49.6335 30.9024 49.6586 31.2216 50.2612 30.4849C51.0145 29.5764 51.1652 30.1166 50.5626 31.639C50.2864 32.4002 50.0353 33.2842 50.0353 33.6034C50.0353 34.0945 49.9097 34.1927 49.282 34.1927C48.4031 34.1927 48.0767 33.6525 48.0014 31.8846C47.9511 31.2707 47.8507 30.8287 47.7503 30.9024C47.6498 30.9515 47.1978 32.0073 46.7459 33.2105C46.319 34.4383 45.8419 35.4941 45.7415 35.5678C45.6159 35.6415 45.5155 35.0767 45.5155 34.3155C45.5155 33.0141 45.9172 31.86 46.6454 31.0006C46.8212 30.8041 47.2481 29.7974 47.6247 28.7906L48.2776 26.949V28.4714C48.2776 29.9693 48.604 30.7059 48.8802 29.8465C48.9555 29.601 49.0058 28.8643 48.9806 28.2013C48.9304 27.1946 49.0058 26.949 49.6084 26.4334C50.2612 25.8932 50.5375 25.4021 50.0353 25.7213C49.5833 25.9914 49.7842 25.4266 50.2864 24.9846C50.5877 24.7145 50.6881 24.469 50.5626 24.3707C50.4119 24.2971 50.889 23.6341 51.5921 22.922C52.5462 21.9398 52.8727 21.4242 52.9229 20.7857C52.948 20.3192 52.9229 19.9509 52.8727 19.9509C52.7973 19.9509 52.3454 20.2455 51.8181 20.5893C50.8137 21.3014 48.8049 24.5426 47.3987 27.6857C46.9467 28.6924 46.5199 29.4536 46.4445 29.38C46.3943 29.3063 46.0177 29.8465 45.6661 30.5831C44.938 32.0319 44.8375 32.9159 45.1388 36.2062C45.3146 37.9987 45.2644 38.4407 44.9128 38.9564C44.6869 39.3002 44.5111 39.7913 44.5111 40.0614C44.5111 40.3315 44.3855 40.6261 44.26 40.6998C44.1093 40.7735 44.0089 40.6261 44.0089 40.356C44.0089 40.0614 43.9084 39.8404 43.7578 39.8404C43.6071 39.8404 43.5318 40.4788 43.582 41.3628C43.6322 42.7624 43.582 42.9097 43.13 42.9097C42.8538 42.9097 42.5525 43.0816 42.4521 43.2781C42.1508 43.941 42.2512 45.488 42.6278 46.3965C43.1049 47.477 43.1049 48.6556 42.653 49.294C42.201 49.957 41.9248 52.167 42.2261 52.879C42.3767 53.2228 42.4772 53.321 42.5023 53.1C42.5274 52.9036 42.7534 53.4193 43.0296 54.2541C43.3058 55.1135 43.6322 55.8011 43.7578 55.8011C44.0842 55.8011 44.0842 54.7452 43.7829 54.426C43.6574 54.3032 43.5067 53.6402 43.4314 52.9773C43.3811 52.2897 43.3811 51.946 43.4314 52.167C43.4816 52.3879 43.7076 52.7072 43.8833 52.8545C44.1847 53.1 44.2349 53.0264 44.26 52.4371C44.26 52.0687 44.3353 51.0374 44.4106 50.1534C44.486 49.073 44.4609 48.6801 44.2851 48.9257C44.0842 49.2204 43.9838 49.1467 43.7829 48.6065C43.4063 47.6734 43.1552 44.6531 43.3811 44.0884C43.5318 43.6955 43.582 43.72 43.808 44.2603L44.0591 44.8741L44.3102 44.3339C44.5613 43.7937 44.6115 43.8183 45.3648 44.825C46.1432 45.8563 46.2186 46.4211 45.9675 49.294C45.9423 49.5641 45.9423 50.5218 45.9675 51.4303C46.0177 52.7317 46.093 53.1 46.3943 53.1C46.5952 53.1 46.771 53.2965 46.771 53.5175C46.771 53.763 46.8212 54.1805 46.8965 54.4506C46.997 54.7943 46.8212 55.089 46.3692 55.4082C45.6912 55.8747 45.6912 55.8747 45.3397 55.4082C45.0133 54.9662 44.9882 54.9908 45.1388 55.6046C45.2644 56.0466 45.2142 56.2922 45.0384 56.2922C44.712 56.2922 44.6617 58.4285 44.9882 58.5512C45.0886 58.5758 45.2644 59.4352 45.3146 60.4174L45.4402 62.2099L44.712 61.3505C43.7076 60.1719 43.3811 60.2455 44.034 61.4733C44.3102 62.038 44.5111 62.6765 44.4358 62.922C44.3604 63.2167 44.5864 63.4868 45.1137 63.7814C45.5406 64.027 46.1432 64.4444 46.4697 64.7145C47.2481 65.4266 47.223 64.7391 46.3943 63.5359C45.8168 62.7256 45.8921 62.7747 47.3987 64.0515C49.1313 65.5985 49.2568 65.7458 49.5331 67.1455C49.759 68.2259 49.3322 68.4223 48.7044 67.5138C48.378 67.0718 48.2525 67.0473 48.0767 67.3174C47.8758 67.5875 47.8005 67.5384 47.6498 67.1209C47.5494 66.8017 47.4238 66.6298 47.3485 66.7035C47.2732 66.7771 46.8212 66.3352 46.3441 65.7458C45.867 65.132 45.4402 64.6409 45.3648 64.6409C45.2895 64.6409 45.3146 65.0583 45.415 65.5494L45.5908 66.4825L45.0133 65.9914C44.6617 65.6967 44.5111 65.6476 44.6366 65.8686C45.0133 66.5562 45.8419 67.3174 46.0428 67.1946C46.1432 67.1455 46.4194 67.4156 46.6454 67.8085C47.0723 68.6433 47.0974 68.8398 46.8463 68.7907C46.7208 68.7661 46.4948 68.7661 46.319 68.7907C45.8419 68.8398 46.2186 69.3063 46.7208 69.3063C47.2481 69.3063 47.5745 69.6501 49.2568 72.0319C50.7132 74.1191 50.9643 74.4137 51.7929 75.0767L52.3956 75.5678L51.8432 74.8557C51.5418 74.4628 51.2907 73.9963 51.2907 73.8244C51.2907 73.6525 51.0648 73.3824 50.7634 73.2351C50.1859 72.9159 49.282 71.5899 49.282 71.0252C49.282 70.8287 49.7088 71.0988 50.3617 71.6881C50.9392 72.2283 51.6674 72.8177 51.9687 72.965C52.7973 73.3824 54.0528 75.2732 53.9022 75.8625C53.7515 76.4027 54.4546 77.1884 56.84 79.1528C57.8695 80.0123 58.2713 80.5525 58.5224 81.4119C58.9241 82.7133 59.3259 83.1062 60.7069 83.6464C61.2845 83.8919 61.9624 84.4076 62.314 84.8987C62.6655 85.4144 63.1175 85.7581 63.4439 85.7581C63.7201 85.7581 64.5739 86.3229 65.3272 86.9859C66.0805 87.6734 66.9091 88.2136 67.1602 88.2136C67.4113 88.2136 67.813 88.4346 68.0641 88.7293C68.2901 88.9994 68.943 89.4659 69.4954 89.736L70.4998 90.2517L70.0227 89.7115C69.3447 88.9748 69.6209 88.8766 70.8513 89.4905C71.5293 89.8097 71.8055 90.0798 71.6046 90.178C71.1275 90.4727 72.1068 91.5776 73.2619 92.0442C73.8394 92.2897 75.4213 92.5353 77.0284 92.6335C78.7107 92.7563 80.6442 93.0755 82.0252 93.4684C84.7873 94.2541 86.8212 94.4751 88.0516 94.1559C88.8551 93.9349 89.056 93.9595 89.4577 94.3524C89.9348 94.8189 89.9097 94.8189 88.4533 94.8926C87.2983 94.9417 86.997 95.0399 87.1727 95.2854C87.3234 95.5064 88.2022 95.6538 90.0604 95.7274C92.948 95.8257 93.9775 95.9975 93.9775 96.3413C93.9775 96.636 96.2123 96.6114 97.744 96.2922C99.0246 96.0221 99.6272 95.4573 99.0246 95.089C98.8237 94.9908 99.1501 94.7943 99.8783 94.6225C100.807 94.4015 101.134 94.4015 101.435 94.647C101.787 94.9171 101.762 94.9908 101.234 95.1381L100.632 95.3346L101.259 95.2363C101.611 95.1872 102.113 95.0644 102.364 94.9662C102.716 94.8189 102.791 94.8435 102.666 95.0644C102.465 95.3591 102.515 95.3591 106.08 94.8435C107.311 94.647 107.788 94.4015 109.922 92.7808C111.253 91.7495 112.509 90.9147 112.709 90.9147C112.91 90.9147 113.839 90.5709 114.768 90.1535C115.698 89.736 116.652 89.3677 116.928 89.3186C117.179 89.2449 117.957 88.852 118.635 88.4346C119.313 87.9926 120.067 87.6489 120.293 87.6489C120.544 87.6489 121.448 87.0841 122.352 86.3966C123.607 85.4144 123.858 85.1197 123.482 85.046C123.205 84.9969 122.829 85.1934 122.578 85.488C122.327 85.7581 121.9 86.0037 121.623 86.0037C121.171 86.0037 121.247 85.8563 122.126 85.0951C122.703 84.5795 123.256 83.9165 123.381 83.6218C123.507 83.3026 123.758 83.0571 123.959 83.0571C124.16 83.0571 124.662 82.4678 125.089 81.7311C125.942 80.2333 126.57 79.6685 126.269 80.6261C126.168 80.9454 126.068 81.3873 126.043 81.5838C126.018 81.7802 125.666 82.3695 125.29 82.8606C124.888 83.3763 124.612 83.9165 124.662 84.0638C124.812 84.4813 126.846 81.8293 128.001 79.7667C128.529 78.8827 129.232 77.8269 129.608 77.434C129.96 77.0411 130.563 76.2799 130.939 75.7151C131.366 75.1013 131.843 74.7084 132.119 74.7084C132.672 74.7084 133.852 72.5476 134.429 70.5341C134.58 69.9202 134.982 69.2081 135.283 68.938C135.811 68.496 136.413 67.5629 136.413 67.2437C136.413 67.17 136.237 67.0964 136.037 67.0964C135.585 67.0964 135.509 65.7458 135.936 65.5003C136.363 65.2302 138.221 61.2277 138.096 60.9085C137.995 60.7121 137.895 60.8103 137.794 61.1295C137.568 61.8662 137.091 61.8662 137.292 61.1295C137.644 59.9509 137.995 59.2388 138.171 59.3616C138.422 59.5089 138.748 55.8747 138.623 54.0822C138.573 53.3456 138.447 52.7563 138.296 52.8054C138.171 52.8545 137.97 52.6826 137.87 52.4371C137.744 52.167 137.719 52.3634 137.794 52.9036C137.97 53.984 137.568 54.1805 137.292 53.1737C137.141 52.5353 137.116 52.5107 136.79 52.9282C136.489 53.3456 136.388 53.1983 135.836 51.4549C135.233 49.6132 135.208 49.5887 135.183 50.5709C135.158 51.1356 135.333 52.3388 135.534 53.2228C135.961 54.9908 135.836 56.415 135.233 56.636C134.957 56.7587 134.881 57.1271 134.907 58.0847C134.982 59.9263 134.932 60.4665 134.681 60.4665C134.555 60.4665 134.354 60.1719 134.229 59.8035C134.028 59.2633 133.902 59.6317 133.425 62.0872C133.099 63.6832 132.521 65.8441 132.145 66.8508C131.416 68.8152 130.286 70.7796 129.885 70.7796C129.734 70.7796 129.634 71.0006 129.634 71.2461C129.634 71.5163 128.88 72.523 127.976 73.5298C126.043 75.5924 125.616 76.0098 126.118 75.3223C126.47 74.8557 126.47 74.8557 126.043 75.1749C125.792 75.3714 125.29 76.0344 124.938 76.6482C123.833 78.5635 123.055 79.6194 122.753 79.5948C122.075 79.5212 121.724 79.7176 119.941 81.3382C117.003 83.9902 114.317 85.8563 113.488 85.8072C113.111 85.7827 112.358 85.9791 111.806 86.2492C111.278 86.5193 110.5 86.7403 110.098 86.7403C109.671 86.7403 109.094 86.9613 108.767 87.2314L108.165 87.7225L108.918 87.5997C109.596 87.477 109.621 87.5015 109.194 87.7716C107.537 88.9012 106.959 89.1958 106.457 89.1958C106.156 89.1958 105.754 89.4168 105.578 89.6869C105.402 89.957 105.001 90.178 104.674 90.178C104.348 90.178 104.021 90.3499 103.921 90.5463C103.846 90.7428 103.595 90.9147 103.369 90.9147C102.992 90.9147 102.992 90.8656 103.394 90.2762C103.821 89.6378 103.821 89.6133 103.369 89.736C103.092 89.8097 102.666 89.957 102.389 90.0552C101.988 90.2026 102.038 90.0798 102.615 89.4905C103.293 88.7784 103.318 88.7047 102.866 88.7047C102.59 88.7047 101.485 89.1467 100.406 89.6869C98.3215 90.7428 96.3378 91.0865 97.0158 90.2517C97.3422 89.8834 97.292 89.8588 96.614 90.0307C94.8815 90.4481 92.496 90.4727 91.3661 90.1043C90.5375 89.8342 89.985 89.7851 89.2317 89.957C87.9511 90.2271 86.8212 89.8342 85.9172 88.7784C85.1388 87.8944 84.6115 87.5997 83.356 87.3787C82.8287 87.2805 82.2261 87.1332 82.0252 87.0595C81.7992 86.9859 81.6737 87.1086 81.6737 87.4279C81.6737 88.14 81.975 88.2382 82.879 87.919C83.3058 87.7471 83.7327 87.698 83.8331 87.7962C84.1344 88.0908 83.7327 88.2873 82.5023 88.4837C81.1213 88.6802 80.4182 88.2873 80.4182 87.3051C80.4182 87.0104 80.2675 86.7403 80.0918 86.7403C79.916 86.7403 78.6856 86.2247 77.405 85.6108C75.7478 84.825 74.7685 84.5058 74.1407 84.5549C72.6341 84.6286 72.4081 84.5549 71.3284 83.5482C70.7509 83.008 70.1985 82.6642 70.1231 82.787C70.0478 82.8852 69.7967 83.0325 69.5707 83.1307C69.0434 83.3272 68.5914 82.6151 68.7672 81.903C68.8677 81.5592 68.7672 81.3628 68.4408 81.2891C68.1897 81.2155 67.6122 80.6507 67.1853 80.0368C66.4822 79.0792 66.432 78.9564 66.8589 79.0546C67.813 79.3002 67.3611 78.9318 66.2311 78.539C65.4276 78.2934 65.1514 78.2689 65.2769 78.4653C65.3774 78.6372 65.1765 78.5881 64.8501 78.3671C64.4734 78.1461 64.0466 77.4831 63.8206 76.771C63.4439 75.6906 63.1928 75.445 61.5105 74.3401C59.9285 73.3088 59.5268 72.9159 59.0999 71.9091C58.7986 71.2461 58.5726 70.5341 58.5726 70.3131C58.5726 70.0921 58.4471 69.7483 58.2964 69.5519C58.0955 69.2572 58.0704 69.3063 58.1206 69.7974C58.2211 70.6568 57.5431 70.7059 56.5638 69.8711C55.8356 69.2818 55.7603 69.2572 56.0365 69.7483C56.1872 70.043 56.2625 70.2885 56.2123 70.2885C56.0114 70.2885 55.6348 69.5273 54.9568 67.6857C54.5801 66.7035 54.4546 66.1878 54.6806 66.4579C55.2079 67.1455 55.1577 66.8017 54.4295 65.132C54.0779 64.3217 53.8017 63.4131 53.8017 63.1185C53.8268 62.5537 53.8268 62.5537 54.2035 63.0448C54.7559 63.7569 56.8149 67.7593 56.8149 68.1277C56.8149 68.2996 56.4634 68.054 56.0616 67.5875C55.0823 66.4825 55.3837 67.391 56.4132 68.6188C57.0911 69.4782 57.8193 69.8465 57.8193 69.3554C57.8193 69.2326 57.5431 68.496 57.2167 67.6857C56.8902 66.8999 56.2123 65.0829 55.7101 63.6832L54.8061 61.1295L55.7352 61.2768C56.2625 61.3505 57.5682 61.4978 58.6479 61.5961C59.7026 61.6943 60.5814 61.8416 60.6065 61.9153C60.6316 61.9889 60.6567 62.4309 60.7069 62.8729C60.7572 63.3886 61.0585 64.0024 61.5356 64.469C61.9373 64.911 62.3642 65.5248 62.4646 65.8441C62.5651 66.1633 62.9417 66.7035 63.2933 67.0227C63.6448 67.3174 63.8206 67.5875 63.6699 67.5875C63.4188 67.5875 61.9876 66.2369 61.1087 65.132L60.6065 64.5181L60.5814 65.5494C60.5814 66.1142 60.4558 66.6544 60.3303 66.728C60.1294 66.8508 60.1545 66.9981 60.3554 67.2437C60.5563 67.4892 61.0334 67.5875 61.8118 67.5384C62.8915 67.4647 62.9668 67.5138 63.469 68.3732C63.7955 69.0116 64.147 69.3063 64.5236 69.3063C64.9254 69.3063 65.0258 69.4291 64.9254 69.7729C64.8501 70.043 64.9756 70.2885 65.2267 70.3622C65.4527 70.4604 65.8042 70.9269 66.0051 71.3935C66.206 71.8846 66.4822 72.2038 66.6078 72.1301C66.7333 72.0565 66.884 72.1056 66.9844 72.2529C67.0597 72.3757 66.9593 72.4984 66.7584 72.4984C66.5575 72.4984 66.3064 72.3757 66.2311 72.2529C66.1307 72.1056 65.9549 72.0565 65.8294 72.1547C65.5029 72.3511 66.0302 72.9895 66.5073 72.9895C66.7082 72.9895 67.0597 72.8668 67.3108 72.7194C67.9888 72.302 67.7377 71.4671 66.5575 70.2394C65.4527 69.0853 64.0968 67.2437 64.0968 66.9245C64.0968 66.8263 63.5695 65.5985 62.9166 64.1989C62.1633 62.5537 61.6109 61.6943 61.3598 61.6943C61.1338 61.6943 60.8074 61.4487 60.6316 61.1786C60.3554 60.7366 60.1294 60.6875 59.3259 60.8103C58.5224 60.9331 58.2964 60.8594 57.97 60.442C57.7691 60.1473 57.6687 59.779 57.7189 59.6071C57.7942 59.4598 57.6687 59.1651 57.4427 58.9932C57.2418 58.8213 57.066 58.5267 57.066 58.3548C57.066 58.1584 56.9405 58.011 56.7898 58.011C56.6643 58.011 56.614 58.1584 56.7145 58.3057C56.8149 58.4776 56.4885 58.2075 55.9863 57.6918C55.4339 57.1271 55.0572 56.5132 55.0572 56.1449C55.0572 55.4573 55.6599 55.3591 56.0365 55.973C56.2876 56.3904 56.2876 56.3904 56.3127 55.973C56.3127 55.2609 56.7647 55.5064 56.9405 56.3413C57.1413 57.2253 57.4427 57.5199 58.1457 57.5199C58.4973 57.5199 58.5475 57.4217 58.3717 57.1271C58.2462 56.9061 58.2462 56.3658 58.4219 55.7765C58.7484 54.5242 58.3717 54.0331 57.5933 54.7943L57.066 55.31V54.6224C57.066 54.2541 57.1665 53.8367 57.2669 53.6894C57.3924 53.5666 57.4176 53.1246 57.3171 52.7317L57.1665 51.9951L56.84 52.5844C56.6643 52.9036 56.5638 53.4193 56.6391 53.7385C56.7145 54.2296 56.6391 54.3278 56.1872 54.3278C55.6096 54.3278 55.0572 53.542 55.5343 53.3947C55.685 53.3456 55.8105 52.7808 55.8356 52.167C55.8607 50.841 56.4885 48.6065 56.5387 49.6623C56.5638 50.0061 56.6894 50.4481 56.84 50.6445C57.0409 50.9146 57.066 50.7919 56.9656 50.1289C56.84 49.4414 56.8902 49.1958 57.2167 49.073C57.518 48.9503 57.5682 48.852 57.3422 48.5819C57.1916 48.41 57.1413 48.0417 57.2418 47.8207C57.3422 47.5261 57.3171 47.4278 57.1162 47.5506C56.7145 47.7962 56.4634 46.2001 56.6643 44.4567C56.8651 42.5169 57.0911 42.2468 57.4678 43.4254L57.7942 44.383L57.6435 43.0571C57.518 41.8539 57.5682 41.7065 58.196 41.2154C58.8488 40.6998 58.8488 40.6261 58.5977 39.6439C58.3717 38.8582 58.3717 38.4898 58.5977 38.0724C58.7735 37.7777 58.8739 37.1393 58.8739 36.6728C58.8237 35.8379 59.577 34.4874 60.6065 33.4315C60.8576 33.2105 61.1087 32.6458 61.2091 32.2038C61.3096 31.7372 61.4854 31.2461 61.5858 31.1234C61.6862 30.976 61.862 30.5095 61.9624 30.0429L62.1382 29.2326L61.2343 30.1903C60.7321 30.7305 60.1796 31.5408 59.9788 31.9828C59.7779 32.4984 59.577 32.6703 59.4515 32.4984C59.2255 32.1301 59.5519 29.3308 59.8532 29.1344C59.9788 29.0607 60.0792 28.6679 60.0792 28.2504C60.0792 27.8084 60.3052 27.2437 60.5814 26.949C60.8827 26.6298 61.184 25.844 61.3096 25.1319C61.5356 23.7323 62.3391 22.5291 62.3391 23.585C62.3391 23.8796 62.1382 24.6654 61.862 25.3284C61.5607 26.0896 61.4854 26.5807 61.6611 26.6544C61.8118 26.7035 61.8118 26.9245 61.6109 27.2682C61.3096 27.833 61.4602 28.3978 61.862 28.1768C61.9876 28.0785 62.088 27.8084 62.088 27.5383C62.088 27.2928 62.2135 27.0963 62.3893 27.1209C62.54 27.17 62.7408 26.9736 62.7911 26.7035C62.9668 25.8932 63.3937 25.5494 64.0466 25.7213C64.373 25.7949 64.7999 25.7458 64.9756 25.5985C65.5029 25.1811 65.3021 26.4579 64.7747 27.0227C64.2977 27.5383 64.2223 27.8084 64.599 27.8084C64.9756 27.8084 66.1056 25.3529 66.1056 24.5426C66.1056 24.1498 66.0051 23.9042 65.8545 24.0024C65.7289 24.0761 65.3774 24.0024 65.1012 23.806C64.6241 23.4868 64.6241 23.4868 65.1012 23.0693C65.3774 22.8483 65.6034 22.48 65.6034 22.2836C65.6034 22.0626 65.8294 21.9153 66.1809 21.9153C66.5073 21.9153 67.4364 21.6943 68.2148 21.4242C69.3698 21.0558 69.7465 21.0067 70.1231 21.2523C70.6505 21.5715 70.5249 21.6451 73.5632 19.1405C75.3209 17.6672 76.3504 16.9797 76.0491 17.4708C75.9486 17.6181 76.0491 17.7409 76.2751 17.7409C77.0535 17.7409 77.631 17.2253 77.9323 16.2922C78.2085 15.3836 78.2838 15.3345 79.464 15.2117C80.4182 15.089 80.9455 14.8434 81.8243 14.0822C83.3309 12.7808 84.0591 12.6335 84.8124 13.4438C85.4904 14.1313 85.9926 14.2296 86.4194 13.7139C86.771 13.2965 88.604 12.8299 89.8344 12.8299C90.6379 12.8299 90.7383 12.7563 90.5877 12.3388C90.4621 11.9705 90.5375 11.8477 90.9141 11.8477C91.1903 11.8477 92.1194 11.5776 92.9982 11.2584C93.8771 10.9392 95.0823 10.5954 95.685 10.4972C96.2625 10.399 96.6894 10.2271 96.614 10.1289C96.4383 9.85877 97.3925 9.56411 97.744 9.76055C97.8695 9.83422 98.1709 9.80966 98.3968 9.68689C98.6982 9.515 98.4973 9.34312 97.4427 8.90113L96.1119 8.33636L100.129 8.01715C103.62 7.74704 104.398 7.74704 105.955 8.09081C107.01 8.31181 107.738 8.58191 107.713 8.72924C107.687 8.90113 108.466 9.17123 109.671 9.41678C111.178 9.71144 111.655 9.90788 111.605 10.178C111.58 10.3744 112.032 10.7919 112.735 11.1847L113.94 11.8477H113.111C112.609 11.8477 112.333 11.9459 112.433 12.0933C112.534 12.2406 112.232 12.3388 111.755 12.3388C111.278 12.3388 110.776 12.4616 110.6 12.6335C110.349 12.879 110.123 12.8299 109.521 12.4861C109.094 12.2406 108.692 12.1178 108.617 12.1915C108.391 12.4125 107.537 11.8477 107.537 11.4794C107.537 11.283 107.637 11.1111 107.763 11.1111C107.888 11.1111 108.064 10.9392 108.139 10.7182C108.265 10.399 108.165 10.3744 107.537 10.4972C106.884 10.6445 106.758 10.5709 106.558 10.0552C106.382 9.61322 105.905 9.29401 104.9 8.92568C102.716 8.11537 101.611 8.33636 102.766 9.34312C103.092 9.61322 102.917 9.66233 101.661 9.53956C100.456 9.44134 100.28 9.46589 100.632 9.736C101.008 10.0061 100.883 10.0798 99.6775 10.3499C98.9242 10.4972 97.9951 10.5709 97.6436 10.4726C96.9907 10.3253 96.7145 10.6691 97.2418 10.9883C97.5682 11.1847 97.5682 11.6022 97.2167 11.6022C97.066 11.6022 96.7647 11.4303 96.5638 11.2093C96.2625 10.9392 95.8859 10.8655 95.2832 10.9637C94.2537 11.1111 94.3291 11.0374 94.1533 11.9705L94.0026 12.7071L96.84 12.5353C98.422 12.4616 99.9034 12.2406 100.18 12.0687C101.184 11.4548 107.813 13.1737 108.391 14.1804C108.541 14.4505 108.817 14.7698 108.993 14.868C109.571 15.2363 109.32 15.5801 108.541 15.4819C107.989 15.4082 107.863 15.4573 108.039 15.6537C108.165 15.8256 108.24 15.9975 108.165 16.0712C108.114 16.1203 108.441 16.3167 108.918 16.4886C109.395 16.6605 109.797 16.906 109.797 17.0288C109.797 17.1516 110.198 17.2498 110.701 17.2498C111.831 17.2498 112.458 17.569 113.538 18.6986C114.417 19.6071 114.844 19.7299 117.028 19.7053C118.183 19.7053 119.59 20.4911 119.59 21.1295C119.59 21.4242 119.338 21.4487 118.409 21.3259L117.204 21.1786L117.957 21.6451C118.384 21.8907 119.112 22.5046 119.564 22.9957C120.293 23.7323 120.619 23.8796 121.498 23.8796C122.427 23.8796 122.678 24.0024 123.331 24.7882C123.758 25.3038 124.109 25.844 124.109 25.9914C124.109 26.4088 125.315 26.8754 125.44 26.507C125.49 26.3351 125.716 26.6052 125.917 27.0718C126.219 27.7839 126.219 27.9558 125.942 28.0049C125.515 28.1031 125.541 28.3241 126.018 28.9871C126.244 29.3063 126.52 29.4536 126.696 29.3554C127.399 28.938 127.7 29.1344 128.328 30.4604C128.956 31.8109 130.688 34.2173 131.165 34.3892C131.492 34.5119 131.441 34.0945 131.09 33.7507C130.864 33.5297 130.914 33.3579 131.241 32.9895C131.517 32.6703 131.592 32.4739 131.416 32.3511C131.04 32.1547 130.06 30.2639 130.236 30.092C130.286 30.0184 130.537 30.313 130.763 30.7305C131.316 31.7863 131.492 31.6881 130.964 30.6323C130.738 30.1657 130.462 29.7728 130.362 29.7728C130.06 29.7728 127.399 26.4334 127.123 25.7213C126.721 24.7145 126.821 24.4935 127.399 25.0092L127.951 25.4757L127.625 24.8618C127.223 24.1252 126.645 23.6587 126.093 23.6341C125.892 23.6341 125.39 23.2903 124.988 22.8974C124.586 22.48 124.134 22.1608 124.009 22.1608C123.607 22.1362 122.226 20.9822 122.402 20.8103C122.603 20.6138 123.908 21.2768 124.486 21.8416C124.737 22.0626 125.089 22.2836 125.29 22.3081C125.867 22.4064 127.7 23.5359 128.905 24.5672C129.533 25.1074 130.462 26.2615 131.015 27.1209C132.094 28.8643 133.124 30.0675 133.425 29.8956C133.526 29.8219 133.852 30.0675 134.153 30.4358C134.455 30.8287 134.932 31.1725 135.233 31.2461C135.61 31.3444 135.886 31.7127 136.112 32.4248C136.313 32.9895 136.564 33.4561 136.689 33.4561C137.116 33.4561 136.915 32.4984 136.288 31.5899C135.333 30.2394 135.484 28.054 136.489 28.4469C137.267 28.7415 136.94 28.054 136.037 27.5383C135.233 27.0718 134.706 26.3351 134.128 24.8864C133.927 24.4199 133.952 24.3462 134.279 24.469C134.756 24.6409 134.781 24.7391 134.028 22.9466C133.676 22.1117 133.375 21.1049 133.35 20.7366C133.325 20.3683 132.973 19.6808 132.546 19.2142C131.944 18.5267 131.617 18.3548 130.864 18.3302C130.035 18.3302 129.96 18.3793 130.211 18.7722C130.387 19.0178 130.588 19.2142 130.713 19.2142C130.814 19.2142 130.839 19.0914 130.763 18.9687C130.688 18.8213 130.864 18.7231 131.215 18.7231C131.919 18.7231 132.747 20.0245 133.048 21.5469C133.224 22.5046 133.199 22.5291 132.722 22.0871C132.446 21.8661 132.119 21.6697 131.994 21.6697C131.743 21.6697 129.182 18.9932 128.805 18.3302C128.679 18.1092 128.378 18.0356 128.001 18.1338C127.198 18.3302 126.62 17.3971 127.198 16.8324C127.499 16.5377 127.675 16.5132 128.102 16.7587C128.403 16.906 128.855 16.9552 129.131 16.8815C129.382 16.8078 129.885 16.906 130.236 17.127C131.14 17.7164 131.316 17.1516 130.537 15.9975C129.885 15.0644 129.86 15.0399 129.257 15.4327C128.905 15.6537 128.629 15.9975 128.629 16.1694C128.629 16.4886 128.529 16.4886 127.951 16.1939C127.549 15.9975 126.846 15.7765 126.344 15.6783C125.842 15.6046 125.164 15.2363 124.838 14.8925C124.511 14.5242 123.883 14.0822 123.431 13.9103C122.979 13.7139 122.502 13.3456 122.352 13.1C122.126 12.658 122.151 12.6335 122.879 12.8299C123.306 12.9527 123.808 13.1737 124.009 13.3456C124.21 13.5175 124.436 13.5666 124.511 13.4929C124.838 13.1737 124.235 12.8054 122.578 12.3388C121.598 12.0442 120.745 11.6513 120.669 11.4548C120.443 10.841 120.745 10.8164 121.849 11.3566C122.929 11.8968 123.406 11.8968 122.728 11.3566C121.925 10.6936 122.402 10.6691 123.532 11.3075C124.21 11.7004 124.787 12.216 124.838 12.4861C124.888 12.7317 125.164 13.1 125.465 13.321C125.741 13.5175 126.47 14.1068 127.072 14.6224C128.403 15.8256 128.504 15.2609 127.198 13.984C125.465 12.3388 123.055 10.3744 122.728 10.3744C122.553 10.3744 122.276 10.2025 122.101 10.0061C121.849 9.71144 121.875 9.63778 122.251 9.63778C122.653 9.63778 122.678 9.58867 122.352 9.39223C122.151 9.26945 121.774 9.22034 121.548 9.29401C120.92 9.49045 120.117 8.99935 118.686 7.5506C117.757 6.61752 117.179 6.24919 116.476 6.12642C115.974 6.05275 114.216 5.46343 112.559 4.82501C110.399 3.99014 109.546 3.52359 109.445 3.17982C109.37 2.83605 109.194 2.73783 108.868 2.86061C108.617 2.95883 107.863 3.10616 107.185 3.17982C106.03 3.32715 106.005 3.35171 106.558 3.67092C107.11 3.96558 107.01 3.99014 105.402 3.99014C101.762 4.01469 100.883 3.96558 100.807 3.72003C100.757 3.59726 100.607 3.49904 100.481 3.49904C100.33 3.49904 100.28 3.59726 100.355 3.72003C100.531 3.96558 98.6731 3.84281 96.6643 3.42537C95.4841 3.20438 95.233 3.05705 95.3083 2.71328C95.3837 2.49228 95.2581 2.24674 95.0823 2.17307C94.6304 2.00119 93.2493 2.27129 93.0736 2.54139C92.8476 2.90972 91.9687 2.78694 91.9687 2.41862C91.9687 1.92752 94.4295 1.14176 94.8061 1.51009C94.9568 1.65742 95.459 1.78019 95.8859 1.78019C96.5387 1.78019 96.7898 1.63286 97.066 1.0681C97.4176 0.380559 97.3925 0.331449 96.8903 0.208674C96.3127 0.0613446 94.4295 0.0613446 93.5506 0.233229ZM92.9229 6.44563C94.1784 6.47019 94.3039 6.49474 93.9273 6.7894C93.6762 6.96129 93.4753 7.23139 93.4753 7.37872C93.4753 7.84526 91.1652 8.31181 90.5375 7.94348C90.1106 7.69793 90.1106 7.69793 90.5375 7.67338C90.7886 7.67338 90.9392 7.57516 90.8388 7.45238C90.6881 7.18228 87.7 8.11537 87.7 8.43458C87.7 8.68013 86.9216 8.72924 86.3441 8.50825C85.9926 8.38547 85.9926 8.28725 86.2437 7.96804C86.5199 7.64882 86.4948 7.59971 86.1935 7.72249C85.9926 7.79615 84.9882 8.11537 84.0089 8.43458C82.0252 9.04846 81.6737 9.39223 83.0045 9.39223C84.1344 9.39223 84.2349 9.53956 83.6323 10.5218C83.1803 11.2584 83.0296 11.3566 82.0252 11.3566C81.4226 11.3566 80.9204 11.2338 80.9204 11.1111C80.9204 10.7427 80.0667 10.8164 79.5142 11.2338C79.0623 11.5776 79.0874 11.6022 79.7904 11.4303C80.4684 11.283 80.5186 11.3075 80.2173 11.6758C79.7653 12.216 76.4006 13.542 75.0196 13.7385C73.965 13.8612 73.8896 13.9349 73.8896 14.5979C73.8896 15.1872 73.739 15.3836 73.0108 15.6537C72.3328 15.9484 72.1319 16.1939 71.9813 16.8815C71.8808 17.3971 71.6548 17.79 71.3535 17.8637C71.1024 17.9619 70.8764 18.1338 70.8764 18.2566C70.8764 18.5758 71.1778 18.5267 71.7302 18.1092C72.4081 17.6181 72.9103 17.6427 72.7346 18.1583C72.6592 18.4039 72.835 18.232 73.1363 17.79C73.4376 17.3726 73.8645 17.0043 74.0905 17.0043C74.4672 17.0288 74.4672 17.0534 74.0905 17.2744C73.8394 17.3971 73.6385 17.6672 73.6385 17.8391C73.6385 18.2075 71.2782 20.442 70.9016 20.442C70.55 20.442 70.55 20.2946 70.9016 19.6316C71.1275 19.1897 71.1275 19.1405 70.8513 19.3861C70.3742 19.8526 70.1231 19.779 70.1231 19.2142C70.1231 18.7231 70.098 18.7231 69.3698 19.0914C68.943 19.3124 68.491 19.4106 68.3403 19.337C68.2148 19.2388 67.813 19.337 67.4866 19.558C66.658 20.0982 66.432 20.0491 66.9844 19.4598C67.2355 19.1897 67.9135 18.8213 68.4659 18.6494C69.9223 18.2075 71.1275 17.4462 71.1275 16.9552C71.1275 16.6114 70.9769 16.6359 69.9976 17.1516C68.7672 17.7655 68.6668 17.6918 69.2192 16.3904C69.4703 15.8256 69.4954 15.531 69.3196 15.531C69.0685 15.531 67.587 16.9306 66.0805 18.6003C64.2474 20.6384 61.4351 22.4064 60.0039 22.4064H59.0497L59.577 21.6697C59.8783 21.2523 60.2047 20.9822 60.3052 21.0558C60.5814 21.2032 61.5858 20.0982 62.8413 18.232C63.8959 16.7096 66.8086 13.5666 67.2104 13.5666C67.3108 13.5666 67.3108 13.6648 67.2355 13.8121C67.0095 14.1804 67.8884 13.8121 68.7421 13.1982C69.6963 12.5107 72.2073 11.283 73.4879 10.8655C74.0403 10.6936 74.7685 10.2271 75.1451 9.83422C75.7478 9.19579 75.8733 9.17123 76.6015 9.41678C77.631 9.76055 77.631 10.178 76.6015 10.6936L75.7729 11.0865H76.4759C77.2795 11.1111 78.1583 10.7182 78.1583 10.3499C78.1583 10.2025 78.5601 9.61322 79.0623 9.0239C79.8156 8.11537 80.2675 7.84526 81.8746 7.32961C83.6574 6.76485 83.8331 6.76485 84.26 7.10862C84.6618 7.47694 84.8124 7.47694 86.1432 7.05951C87.5243 6.59296 90.4872 6.20008 91.1652 6.37197C91.3661 6.39652 92.1445 6.44563 92.9229 6.44563ZM112.534 12.8054C112.835 13.0018 112.86 13.1 112.559 13.4438C112.132 13.9594 110.701 13.8367 110.6 13.2719C110.5 12.7071 111.831 12.3879 112.534 12.8054ZM58.5977 28.4714C58.4471 28.9871 58.3215 29.6992 58.3215 30.0429C58.3215 30.4113 58.1206 30.9515 57.8444 31.2707C57.5933 31.5899 57.3422 32.1301 57.2669 32.4739C56.7145 34.9539 56.2625 36.0835 55.5594 36.6482C54.8815 37.213 54.4546 38.1215 55.0572 37.7532C55.2079 37.6795 55.3083 37.8023 55.3083 38.0479C55.3083 38.7599 54.555 41.4119 54.2788 41.682C54.1031 41.8293 54.1031 41.682 54.2788 41.24C54.5299 40.6016 54.5299 40.577 54.0026 40.8471C53.5255 41.0927 53.5004 41.0681 53.6009 40.4788C53.7013 39.9877 53.6511 39.8404 53.4251 39.9386C52.9731 40.1105 52.7722 39.472 53.0233 38.7845C53.2995 38.097 54.0528 37.4094 54.0528 37.8514C54.0528 38.0233 54.1784 38.0724 54.3039 37.9987C54.7057 37.7532 54.6053 36.8938 54.2035 37.0411C53.6009 37.2621 53.5004 36.6728 53.9273 35.3959C54.4044 34.0454 55.1577 33.1614 55.7101 33.3824C55.911 33.4561 56.0616 33.407 56.0616 33.3087C56.0616 33.186 56.137 32.8422 56.2123 32.523C56.3378 32.081 56.2625 31.9828 55.8356 31.9828C55.5092 31.9828 55.2079 32.2038 55.0572 32.523C54.8312 33.0632 54.8312 33.0632 54.8312 32.5721C54.8061 31.86 55.7352 30.7305 56.1872 30.9269C56.4383 31.0006 56.5638 30.9024 56.5638 30.6323C56.5638 30.3376 56.4132 30.2394 56.0616 30.3376C55.685 30.4358 55.5594 30.3376 55.5594 29.9447C55.5594 29.2081 56.1118 27.8084 56.4383 27.8084C57.1665 27.833 57.7691 28.1277 57.6435 28.4469C57.3924 29.0853 57.7942 28.7906 58.196 28.0294C58.7233 27.0472 58.9241 27.2682 58.5977 28.4714ZM53.0484 41.903C53.0484 42.0994 52.948 42.345 52.7973 42.4186C52.6718 42.4923 52.5462 42.345 52.5462 42.0749C52.5462 41.7802 52.6718 41.5592 52.7973 41.5592C52.948 41.5592 53.0484 41.7065 53.0484 41.903ZM51.2405 44.4321C51.8432 45.7336 52.1445 46.7894 52.1947 47.6979C52.2449 48.9748 52.2198 48.8766 51.8934 47.0104C51.6925 45.7827 51.1652 46.0528 50.2612 47.8207C49.8344 48.7047 49.4326 49.3922 49.4075 49.3677C49.3573 49.3186 49.5079 48.1399 49.6837 46.7158C49.8846 45.3161 49.9599 43.941 49.8846 43.72C49.7339 43.2535 49.985 42.1731 50.211 42.3941C50.2864 42.4677 50.7383 43.3763 51.2405 44.4321ZM53.2995 52.7808C53.7013 53.4438 54.0528 54.2787 54.0528 54.6961C54.0277 55.3836 54.0026 55.3836 53.7515 54.9417C53.6009 54.6716 53.2995 54.3278 53.0987 54.1805C52.8727 54.0331 52.7722 53.7385 52.8727 53.4929C53.0484 53.0264 52.7722 52.9773 52.3454 53.3947C52.1194 53.6157 52.044 53.4684 52.044 52.658C52.044 52.0933 52.1445 51.6267 52.2951 51.6267C52.4207 51.6267 52.8727 52.1424 53.2995 52.7808ZM53.4251 60.9331C53.5004 61.0558 53.4502 61.2277 53.2995 61.3259C53.174 61.3996 53.0484 61.3014 53.0484 61.105C53.0484 60.663 53.1991 60.5893 53.4251 60.9331Z" fill="#70A480"/>
<path d="M76.6516 11.6022C76.4256 11.7495 76.4005 11.8478 76.5763 11.8478C76.7269 11.8478 76.9529 11.725 77.0283 11.6022C77.2291 11.3075 77.1287 11.3075 76.6516 11.6022Z" fill="#70A480"/>
<path d="M73.8895 12.5107C72.6592 12.6826 71.4037 13.1492 71.5292 13.3702C71.6045 13.4929 71.5041 13.7876 71.2781 14.0331C70.9015 14.426 70.9015 14.4997 71.2279 14.6225C71.6799 14.7943 72.2574 14.5242 73.9649 13.3702C75.5217 12.3143 75.5217 12.2652 73.8895 12.5107Z" fill="#70A480"/>
<path d="M69.7717 14.6716C69.8722 14.8926 70.0479 15.0154 70.1735 14.9908C70.5501 14.868 70.4497 14.426 70.0228 14.3524C69.7466 14.3033 69.6713 14.4015 69.7717 14.6716Z" fill="#70A480"/>
<path d="M63.4691 19.2388C63.1929 19.6562 63.4943 19.7544 63.8458 19.337C64.0467 19.116 64.0467 18.9687 63.896 18.9687C63.7454 18.9687 63.5445 19.0915 63.4691 19.2388Z" fill="#70A480"/>
<path d="M56.9656 30.3867C56.7397 31.0252 56.7899 31.1725 57.0912 30.6814C57.2418 30.4359 57.3172 30.1657 57.2418 30.1166C57.1916 30.043 57.0661 30.1657 56.9656 30.3867Z" fill="#70A480"/>
<path d="M98.9242 1.19095C98.5224 1.41194 98.2713 1.63293 98.3216 1.7066C98.5224 1.90304 100.255 1.2155 100.104 0.994506C99.9286 0.724402 99.7528 0.748957 98.9242 1.19095Z" fill="#70A480"/>
<path d="M98.3216 3.17987C98.5476 3.42542 99.1502 3.42542 101.008 3.22898C104.373 2.88521 104.348 2.78699 100.933 2.8361C98.5727 2.86065 98.0454 2.93432 98.3216 3.17987Z" fill="#70A480"/>
<path d="M60.8326 11.2339C60.5564 11.5531 60.5815 11.5777 60.933 11.4549C61.159 11.3812 61.3348 11.2093 61.3348 11.0866C61.3348 10.7674 61.1841 10.8165 60.8326 11.2339Z" fill="#70A480"/>
<path d="M110.55 11.3566C110.55 11.504 110.726 11.6022 110.927 11.6022C111.128 11.6022 111.303 11.5531 111.303 11.504C111.303 11.4549 111.128 11.3566 110.927 11.2584C110.726 11.1848 110.55 11.2339 110.55 11.3566Z" fill="#70A480"/>
<path d="M125.239 11.6022C125.315 11.725 125.516 11.8478 125.641 11.8478C125.792 11.8478 125.817 11.725 125.742 11.6022C125.666 11.4549 125.465 11.3567 125.34 11.3567C125.189 11.3567 125.164 11.4549 125.239 11.6022Z" fill="#70A480"/>
<path d="M92.4206 12.2651C92.5964 12.3388 92.8224 12.3142 92.8977 12.2405C92.9981 12.1669 92.8475 12.0932 92.5713 12.1178C92.2951 12.1178 92.2197 12.1914 92.4206 12.2651Z" fill="#70A480"/>
<path d="M56.0616 15.3591C55.2832 16.2185 55.1325 16.4641 55.5845 16.194C55.936 15.973 56.2875 15.8502 56.3629 15.9239C56.5889 16.1449 57.3673 14.868 57.2668 14.4751C57.2166 14.2541 56.7897 14.5734 56.0616 15.3591Z" fill="#70A480"/>
<path d="M66.7836 22.5537C66.4822 22.873 67.1602 23.3886 67.8382 23.3641H68.491L67.8633 23.1185C67.5368 22.9712 67.1853 22.7747 67.11 22.6274C67.0095 22.5046 66.884 22.4801 66.7836 22.5537Z" fill="#70A480"/>
<path d="M51.6925 23.3149C51.4163 23.585 51.5167 23.806 51.9185 23.806C52.1193 23.806 52.2951 23.7078 52.2951 23.6096C52.2951 23.3395 51.8933 23.1185 51.6925 23.3149Z" fill="#70A480"/>
<path d="M123.356 25.9669C123.532 26.1879 123.733 26.2861 123.783 26.237C123.959 26.0651 123.607 25.5986 123.306 25.5986C123.155 25.5986 123.155 25.7459 123.356 25.9669Z" fill="#70A480"/>
<path d="M63.2682 27.9312C62.7911 28.8889 62.7158 29.5273 63.0673 29.5273C63.3435 29.5273 63.7704 28.3732 63.7955 27.612C63.8206 26.8754 63.7704 26.9245 63.2682 27.9312Z" fill="#70A480"/>
<path d="M137.995 30.7551C138.07 30.9515 138.422 31.7864 138.773 32.5967C139.125 33.4561 139.301 34.1191 139.15 34.2173C138.773 34.4383 139.627 36.1572 140.104 36.1572C140.431 36.1572 140.456 36.0835 140.23 35.8625C140.054 35.6906 139.928 35.3959 139.928 35.175C139.928 34.9294 140.154 35.0767 140.531 35.5433C140.858 35.9362 141.234 36.1817 141.335 36.0835C141.661 35.7888 139.552 31.9583 138.648 31.0988C138.196 30.706 137.92 30.5586 137.995 30.7551Z" fill="#70A480"/>
<path d="M133.902 31.2953C133.902 31.5163 134.028 31.7864 134.153 31.86C134.48 32.0565 134.48 31.7373 134.153 31.2462C133.952 30.927 133.902 30.927 133.902 31.2953Z" fill="#70A480"/>
<path d="M135.409 32.4739C135.559 32.744 135.735 32.965 135.811 32.965C135.861 32.965 135.811 32.744 135.66 32.4739C135.509 32.2038 135.333 31.9828 135.258 31.9828C135.208 31.9828 135.258 32.2038 135.409 32.4739Z" fill="#70A480"/>
<path d="M138.07 33.3333C138.095 34.1191 138.246 34.8557 138.397 35.0031C138.573 35.1749 138.623 34.8312 138.547 33.9963C138.397 32.1547 137.97 31.5899 138.07 33.3333Z" fill="#70A480"/>
<path d="M131.893 32.9896C131.893 33.0878 131.994 33.2351 132.119 33.3088C132.245 33.3825 132.471 33.9227 132.621 34.512C132.772 35.1259 133.048 35.7397 133.249 35.8871C133.551 36.1326 133.551 35.9362 133.224 34.6839C132.998 33.8736 132.722 33.2106 132.596 33.2106C132.471 33.2106 132.421 33.1124 132.496 33.0141C132.571 32.8914 132.471 32.7931 132.27 32.7931C132.069 32.7931 131.893 32.8914 131.893 32.9896Z" fill="#70A480"/>
<path d="M132.396 35.7643C132.396 35.8134 132.596 36.0098 132.847 36.1817C133.224 36.5009 133.249 36.4764 132.923 36.0835C132.596 35.6906 132.396 35.5679 132.396 35.7643Z" fill="#70A480"/>
<path d="M137.543 36.2063C137.644 36.5255 137.92 37.0657 138.196 37.434C138.472 37.8269 138.748 38.7354 138.849 39.644C138.999 41.2891 139.2 41.5838 139.954 41.3874C140.33 41.2891 140.38 41.1173 140.28 40.6016C140.155 40.0368 140.205 40.0614 140.832 40.8717C141.209 41.3874 141.611 41.8048 141.736 41.8048C141.962 41.8048 141.988 40.3561 141.787 39.0546C141.661 38.4408 141.51 38.1952 141.284 38.2934C141.084 38.3671 140.933 38.6372 140.933 38.8828C140.933 39.9877 139.828 38.9319 139.577 37.6059C139.376 36.4764 138.673 35.7888 138.673 36.6728C138.673 37.213 138.648 37.213 138.171 36.4518C137.593 35.5433 137.317 35.4205 137.543 36.2063Z" fill="#70A480"/>
<path d="M131.642 36.5746C131.768 36.8201 132.27 37.4585 132.772 37.9987L133.651 38.9809V38.2934C133.651 37.876 133.475 37.5568 133.224 37.4585C132.973 37.3603 132.571 37.0411 132.32 36.7219C131.768 36.0589 131.241 35.9607 131.642 36.5746Z" fill="#70A480"/>
<path d="M43.0296 40.9699C43.0296 41.24 43.1049 41.3137 43.1802 41.1172C43.2556 40.9454 43.2305 40.7244 43.1551 40.6507C43.0798 40.5525 43.0045 40.6998 43.0296 40.9699Z" fill="#70A480"/>
<path d="M139.577 43.1553C139.401 43.8183 139.627 44.5549 140.104 44.825C140.481 45.046 140.556 45.9055 140.18 46.0282C140.029 46.0773 140.029 46.372 140.154 46.8385C140.305 47.3296 140.406 47.4033 140.406 47.0841C140.456 46.2247 140.908 47.0595 141.008 48.1891C141.058 48.852 141.109 48.4592 141.134 47.2069C141.159 46.0528 141.259 44.8741 141.335 44.5795C141.485 44.0884 141.259 43.7937 140.104 42.8606C139.803 42.6151 139.702 42.6642 139.577 43.1553Z" fill="#70A480"/>
<path d="M57.1413 45.9055C57.1413 46.2984 57.1915 46.4457 57.2418 46.2738C57.3171 46.1265 57.4678 46.0528 57.6184 46.1265C57.7691 46.2247 57.744 46.0774 57.5933 45.7581C57.2167 45.0706 57.1162 45.0952 57.1413 45.9055Z" fill="#70A480"/>
<path d="M44.034 48.0908C44.034 48.3609 44.1093 48.4346 44.1846 48.2382C44.26 48.0663 44.2349 47.8453 44.1595 47.7716C44.0842 47.6734 44.0089 47.8207 44.034 48.0908Z" fill="#70A480"/>
<path d="M134.48 53.4684C134.48 54.0086 134.53 54.205 134.58 53.8858C134.63 53.5911 134.63 53.1491 134.58 52.9036C134.505 52.6826 134.455 52.9282 134.48 53.4684Z" fill="#70A480"/>
<path d="M42.5022 54.426C42.5022 54.6225 42.6026 54.8435 42.7282 54.9171C42.8537 55.0154 42.904 54.8435 42.8286 54.5734C42.678 54.0086 42.5022 53.9349 42.5022 54.426Z" fill="#70A480"/>
<path d="M59.5269 69.159C59.4516 69.5764 59.6022 70.0675 60.0291 70.6323C60.5313 71.3444 60.6066 71.5654 60.3304 71.8846C60.1547 72.081 59.9036 72.1792 59.7278 72.081C59.5771 72.0073 59.6776 72.1547 59.9287 72.4493C60.456 73.0632 60.8326 73.2105 60.3304 72.6212C59.9287 72.1547 59.9538 72.1547 61.7366 72.744C62.8163 73.0878 63.0925 73.1369 62.741 72.8668C62.4648 72.6703 62.1383 72.4984 61.9877 72.4984C61.8621 72.4984 61.837 72.4248 61.9123 72.3266C62.0128 72.2529 61.9375 72.0073 61.7366 71.7863C61.5357 71.5654 60.9833 70.755 60.5062 69.9693C59.7027 68.6679 59.6273 68.5942 59.5269 69.159Z" fill="#70A480"/>
<path d="M47.8758 72.5721C48.0013 73.5789 48.7295 75.4942 48.7797 74.8558C48.7797 74.733 48.9806 74.8066 49.2066 74.9785C49.6084 75.2732 49.5833 75.2486 49.1815 74.6102C48.9304 74.2173 48.5035 73.3333 48.2273 72.6458L47.7502 71.3935L47.8758 72.5721Z" fill="#70A480"/>
<path d="M65.6537 74.5365C65.6286 74.9785 65.7541 75.175 66.181 75.2977C66.7083 75.4205 66.7083 75.4451 66.2563 75.7643C65.5281 76.2799 66.1559 77.0902 67.788 77.8023C69.0686 78.3671 73.0611 79.1283 74.6932 79.1283C75.095 79.1283 75.6223 79.3738 75.9487 79.7176C76.2752 80.0614 77.0285 80.6016 77.6562 80.9454L78.7861 81.5838H77.7817L76.7774 81.6083L77.4804 81.9767C78.1333 82.3204 78.2337 82.3204 78.6857 81.9276C79.0875 81.5838 79.2883 81.5592 79.7905 81.7802C80.343 82.0258 80.4183 82.0012 80.4183 81.5838C80.4183 81.3137 80.3178 81.0927 80.1672 81.0927C79.5645 81.0927 79.9914 80.6016 80.6192 80.577L81.2971 80.5525L80.5438 80.356C80.1421 80.2578 79.9663 80.1596 80.1672 80.1351C80.3681 80.0859 80.0667 79.9386 79.4641 79.7422C78.8866 79.5703 78.0077 79.1283 77.5307 78.76C77.0536 78.4162 76.6518 78.1952 76.6518 78.2934C76.6518 78.3917 76.4258 78.2689 76.1496 78.0233C75.8985 77.8023 75.6976 77.5322 75.7227 77.434C75.773 77.3112 73.3373 75.0276 73.0611 74.9294C73.036 74.9294 71.7805 74.7575 70.2488 74.5856C68.7422 74.3892 67.085 74.1682 66.6079 74.07C65.8044 73.9472 65.7039 73.9718 65.6537 74.5365Z" fill="#70A480"/>
<path d="M50.6128 75.7397C50.7383 76.2554 50.7383 76.2554 50.437 75.887C49.9097 75.1995 49.8093 75.6169 50.1357 77.0166C50.5626 78.7354 50.7634 79.0792 51.1652 78.5635C51.4163 78.2198 51.567 78.2689 52.3454 79.0792C53.2744 80.0123 53.852 81.5838 53.2744 81.5838C52.5965 81.5838 54.0026 82.6397 55.8608 83.5236C57.518 84.2848 57.7189 84.3339 57.2669 83.8674C56.8651 83.4254 56.7898 83.229 57.0158 83.008C57.2167 82.8115 57.4176 82.8852 57.7942 83.3272C58.2964 83.9165 58.3466 84.0147 58.422 84.5549C58.4471 84.9233 60.7823 86.8631 60.9581 86.6912C61.0334 86.6176 60.7321 86.151 60.3052 85.6108C59.6775 84.8496 59.6021 84.6286 59.9285 84.5795C60.5814 84.4567 60.3805 83.8428 59.6021 83.4254C59.0497 83.1553 58.8488 83.1308 58.7735 83.3517C58.6982 83.5236 58.2713 83.2781 57.7189 82.7379C57.2167 82.2468 56.6894 81.8293 56.5889 81.8293C56.3378 81.8293 54.3039 78.5635 54.3039 78.1707C54.3039 78.0479 54.1784 77.8514 54.0026 77.7532C53.8269 77.6304 53.8017 77.6796 53.9273 77.9006C54.078 78.1461 54.0277 78.1952 53.7013 78.0724C53.4502 77.9742 53.2242 77.9006 53.1489 77.9006C53.0987 77.9006 52.8727 77.5322 52.6467 77.1148C52.2952 76.4273 52.1947 76.3781 52.0692 76.7465C51.9185 77.1148 51.793 77.0166 51.341 76.2063C50.6881 75.1013 50.4119 74.9048 50.6128 75.7397Z" fill="#70A480"/>
<path d="M71.3034 79.7913C71.0272 80.0614 72.4333 81.3382 72.9857 81.3382C73.2871 81.3382 73.6888 81.461 73.8897 81.5838C74.191 81.7802 74.191 81.8293 73.7642 81.8293C72.7346 81.8539 75.6976 83.3763 76.8778 83.4254C77.4804 83.45 78.0328 83.5973 78.1333 83.7201C78.2086 83.8674 78.6857 84.0638 79.1628 84.1621C79.6399 84.2603 80.7447 84.6286 81.5984 84.9724C82.5526 85.3407 83.3059 85.5126 83.6072 85.3898C84.0341 85.2179 84.0341 85.1934 83.557 85.0215C83.2808 84.8987 82.7535 84.8005 82.4019 84.8005C81.8495 84.7759 81.7491 84.6777 81.8746 84.1621C81.9751 83.5482 81.5984 83.3026 81.2971 83.7937C80.9958 84.2603 79.7654 84.0393 77.9826 83.2044C76.6016 82.5414 76.1245 82.1977 75.9989 81.7311C75.8734 81.24 75.5972 81.0436 74.7937 80.8226C74.2412 80.6753 73.2871 80.356 72.6844 80.0859C71.454 79.5457 71.5294 79.5703 71.3034 79.7913Z" fill="#70A480"/>
<path d="M81.8746 80.8963C82.176 81.0436 82.4271 81.3628 82.4271 81.5838C82.4271 82.0258 83.331 82.3204 84.6116 82.3204C84.9632 82.3204 85.5658 82.5169 85.9676 82.7379C86.7208 83.1799 87.9261 82.9834 88.127 82.3941C88.2525 82.0503 86.1433 81.0436 85.9424 81.3628C85.7918 81.5838 85.1389 81.682 84.3605 81.6329C84.1094 81.6084 83.9839 81.461 84.0592 81.3382C84.1596 81.1909 83.9085 81.0927 83.4566 81.0927C83.0548 81.0927 82.6279 80.9699 82.5526 80.8472C82.4773 80.6998 82.1509 80.6016 81.8495 80.6262H81.2971L81.8746 80.8963Z" fill="#70A480"/>
<path d="M81.2468 82.0012C81.4728 82.0503 81.8243 82.0503 82.0001 82.0012C82.1507 81.9276 81.975 81.8785 81.5481 81.8785C81.1463 81.8785 80.9957 81.9276 81.2468 82.0012Z" fill="#70A480"/>
<path d="M79.1626 82.5414C79.1626 82.8606 79.6899 83.008 80.2423 82.8606C80.619 82.7624 80.6441 82.6888 80.3679 82.5414C79.941 82.2468 79.1626 82.2713 79.1626 82.5414Z" fill="#70A480"/>
<path d="M89.3825 82.8607C89.2821 83.1799 89.3323 83.4745 89.4829 83.4991C89.96 83.671 89.1565 84.2848 88.4785 84.2848C87.9763 84.2848 87.901 84.2357 88.2023 84.0393C88.4032 83.9165 88.5037 83.7446 88.4032 83.671C88.3279 83.5973 88.1019 83.671 87.901 83.8674C87.7001 84.0638 87.1477 84.4322 86.6957 84.6777L85.8169 85.1197L87.449 85.4389C90.864 86.0774 91.5419 85.7827 91.4164 83.6955C91.3411 82.4432 91.3411 82.4432 90.4371 82.3696C89.6587 82.2959 89.508 82.3696 89.3825 82.8607Z" fill="#70A480"/>
<path d="M72.8099 83.0816C72.9856 83.2535 73.1865 83.3272 73.2618 83.2535C73.3372 83.1799 73.2116 83.0325 72.9605 82.9589C72.609 82.8115 72.5839 82.8361 72.8099 83.0816Z" fill="#70A480"/>
<path d="M128.453 84.6777C127.273 85.8809 127.424 86.2983 128.629 85.1443C129.156 84.6286 129.558 84.113 129.483 83.9902C129.332 83.7446 129.407 83.6955 128.453 84.6777Z" fill="#70A480"/>
<path d="M126.068 86.1756C125.49 86.7894 125.44 86.9122 125.742 87.3296C125.942 87.5752 126.194 87.698 126.344 87.5997C126.721 87.3787 126.696 86.4948 126.319 86.4948C126.143 86.4948 126.269 86.2738 126.62 86.0037C126.972 85.7336 127.123 85.5126 126.972 85.5126C126.846 85.5126 126.419 85.8072 126.068 86.1756Z" fill="#70A480"/>
<path d="M59.3259 86.8877C60.2298 87.698 60.8325 87.9435 60.8325 87.5261C60.8325 87.1332 59.577 86.1756 58.9743 86.1019C58.4219 86.0528 58.447 86.1019 59.3259 86.8877Z" fill="#70A480"/>
<path d="M61.9372 86.9613C62.113 87.2314 63.8707 87.7716 64.0465 87.5998C64.172 87.5015 63.5694 87.2314 62.3641 86.8631C61.9624 86.7403 61.8368 86.7649 61.9372 86.9613Z" fill="#70A480"/>
<path d="M60.4809 88.3118C60.5563 88.5328 60.8074 88.7047 61.0333 88.7047C61.2342 88.7047 61.3598 88.6802 61.3096 88.6311C61.2593 88.6065 61.0082 88.4101 60.7571 88.2382C60.3805 87.9435 60.3303 87.9435 60.4809 88.3118Z" fill="#70A480"/>
<path d="M61.8369 89.1713C61.8369 89.515 64.0717 91.4549 64.2977 91.3076C64.4232 91.2339 65.0761 91.5286 65.7541 91.946C66.432 92.3634 67.5369 92.9773 68.1897 93.2965C68.8426 93.6157 69.3197 93.984 69.2443 94.1068C69.169 94.2296 69.5959 94.4506 70.1734 94.6225C70.776 94.7698 72.1068 95.2609 73.1363 95.7029C78.7107 98.1338 85.1389 99.6071 91.3159 99.8772C94.2788 100 94.6053 99.9509 93.1489 99.6562C92.7723 99.558 92.5212 99.3861 92.5965 99.2634C92.6718 99.116 92.4709 99.0178 92.1194 99.0178C91.7679 99.0178 91.4163 98.895 91.3159 98.7477C91.2154 98.5513 91.5168 98.5022 92.3203 98.5513C93.5758 98.6495 93.626 98.6249 93.1238 97.9619C92.722 97.4463 91.5168 97.4217 90.2864 97.9128C89.0309 98.4285 88.0516 98.4039 87.8758 97.8146C87.8005 97.52 87.449 97.299 86.8463 97.2007C86.3441 97.1271 85.5406 96.9797 85.0635 96.9061C84.5864 96.8324 84.1847 96.6605 84.1847 96.5378C84.1847 96.415 83.7076 96.3168 83.105 96.3168C82.5274 96.3168 81.3724 96.1449 80.594 95.9484C79.7905 95.752 78.9367 95.5801 78.7107 95.5801C78.4847 95.5801 77.4301 95.2855 76.4006 94.9171C74.6429 94.2787 74.5676 94.2296 75.2707 94.0823L76.024 93.9104L75.2205 93.8858C74.2412 93.8613 73.6134 93.6157 73.7641 93.3702C73.9148 93.1246 73.6637 93.051 71.3033 92.5107C69.2443 92.0688 69.1941 92.0688 69.5707 92.4371C70.4496 93.2965 69.3197 93.0755 68.2901 92.167C67.8382 91.7987 67.8382 91.7741 68.4157 91.6268C68.8175 91.504 68.6668 91.4549 67.8382 91.4303C67.0347 91.4058 66.6078 91.283 66.5073 91.0375C66.3316 90.5955 67.1602 90.5464 68.3404 90.9392C69.847 91.4549 69.3699 91.0129 67.6122 90.2517L65.8545 89.4905L66.0052 90.1044C66.1558 90.6937 66.1307 90.7182 65.5783 90.399C65.2519 90.2271 64.6743 89.8834 64.2977 89.6133C63.6699 89.1713 61.8369 88.8275 61.8369 89.1713Z" fill="#70A480"/>
<path d="M98.6229 89.6869C98.5476 89.8097 98.648 89.9325 98.8489 89.9325C99.0498 89.9325 99.3009 89.8097 99.3762 89.6869C99.4515 89.5396 99.3511 89.4414 99.1502 89.4414C98.9493 89.4414 98.6982 89.5396 98.6229 89.6869Z" fill="#70A480"/>
<path d="M118.334 92.4125C117.757 92.6581 117.731 92.6826 118.183 92.9282C118.711 93.2228 119.966 92.7808 119.715 92.388C119.514 92.0933 119.163 92.0933 118.334 92.4125Z" fill="#70A480"/>
<path d="M117.079 92.6335C117.079 92.7563 117.204 92.8791 117.33 92.8791C117.48 92.8791 117.581 92.7563 117.581 92.6335C117.581 92.4862 117.48 92.388 117.33 92.388C117.204 92.388 117.079 92.4862 117.079 92.6335Z" fill="#70A480"/>
<path d="M116.325 93.3947C116.325 93.5175 116.451 93.5666 116.576 93.493C116.727 93.4193 116.827 93.2965 116.827 93.2228C116.827 93.1737 116.727 93.1246 116.576 93.1246C116.451 93.1246 116.325 93.2474 116.325 93.3947Z" fill="#70A480"/>
<path d="M110.801 95.0645C107.939 96.0958 107.662 96.2431 107.286 96.6851C106.934 97.078 106.959 97.1025 107.537 96.9552C108.139 96.7833 108.139 96.7833 107.662 97.1762C106.959 97.741 104.875 98.2812 103.544 98.2812L102.389 98.2566L103.268 97.7901C103.745 97.52 104.574 97.2007 105.126 97.0534C105.654 96.8815 106.005 96.6851 105.88 96.5623C105.754 96.4641 104.197 96.636 102.389 96.9552C100.606 97.2499 98.2713 97.6427 97.2418 97.8146C95.8858 98.0111 95.5092 98.1584 95.8607 98.2812C96.3127 98.453 96.3127 98.5022 95.6599 98.7477C95.2581 98.895 94.8563 99.0178 94.7308 99.0178C94.6052 99.0178 94.4546 99.116 94.3793 99.2388C94.2788 99.3616 94.9568 99.4598 95.8858 99.4844C97.3924 99.4844 97.518 99.4598 97.3673 99.0178C97.2418 98.6004 97.3171 98.5267 97.8946 98.5267C98.2713 98.5267 98.7986 98.7231 99.0497 98.9441C99.4765 99.3125 99.7276 99.337 101.812 99.0424C104.524 98.6495 109.194 97.3726 111.931 96.2677C113.789 95.5065 114.618 94.8435 113.714 94.8435C113.488 94.8435 113.312 94.7207 113.312 94.5979C113.312 94.2296 112.86 94.3033 110.801 95.0645Z" fill="#70A480"/>
</g>
<g clip-path="url(#clip1_36_6)">
<path d="M168 46H202C204.761 46 207 48.2386 207 51V53C207 54.6569 205.657 56 204 56H168V46Z" fill="black"/>
<rect x="165" y="40" width="3" height="22" rx="1.5" fill="black"/>
<path d="M0 46H163V56H15.6474C13.5108 56 11.3868 55.674 9.34861 55.0331L8.83668 54.8722C6.02593 53.9884 3.63855 52.1015 2.12945 49.5709L0 46Z" fill="black"/>
<rect x="13" y="48" width="28" height="1" fill="white"/>
<rect x="124" y="48" width="36" height="1" fill="white"/>
<path d="M172 51L173 47L174 51L173 55L172 51Z" fill="white"/>
<path d="M177 51L178 47L179 51L178 55L177 51Z" fill="white"/>
<path d="M182 51L183 47L184 51L183 55L182 51Z" fill="white"/>
<path d="M187 51L188 47L189 51L188 55L187 51Z" fill="white"/>
<path d="M192 51L193 47L194 51L193 55L192 51Z" fill="white"/>
<path d="M197 51L198 47L199 51L198 55L197 51Z" fill="white"/>
</g>
<path d="M35.141 43.977H30.61V40.987H35.141C37.51 40.987 39.35 39.653 40.224 37.491C35.785 37.33 32.335 34.018 31.415 28.59H29.69V25.6H43.697V28.59H34.451C35.233 32.362 37.51 34.501 40.661 34.501H40.753V33.512H43.743V34.593C43.743 40.021 40.132 43.977 35.141 43.977ZM58.4607 28.59V25.6H64.0727V28.59H61.4737L62.9457 29.51V36.778C62.9457 39.446 64.5097 41.01 67.1777 41.01H70.2597V44H66.9937C62.9917 44 59.9557 41.079 59.9557 36.962V28.59H58.4607ZM84.4906 28.59V25.6H96.0366V43.977H93.0466V28.59H87.5036L88.9756 29.51V33.65H92.1266V36.64H88.9756V39.308C88.9756 42.022 86.9976 44 84.2836 44V41.01C85.2496 41.01 85.9856 40.688 85.9856 38.664V28.59H84.4906ZM115.979 43.977H111.448V40.987H115.979C118.348 40.987 120.188 39.653 121.062 37.491C116.623 37.33 113.173 34.018 112.253 28.59H110.528V25.6H124.535V28.59H115.289C116.071 32.362 118.348 34.501 121.499 34.501H121.591V33.512H124.581V34.593C124.581 40.021 120.97 43.977 115.979 43.977ZM139.298 35.95V32.96H140.793V25.6H143.783V32.96H148.084V25.6H151.074V32.96H154.179V35.95H151.189C151.557 39.262 152.868 41.01 154.179 41.01V44C150.959 44 148.521 40.619 148.13 35.95H142.311L143.783 36.87V44H140.793V35.95H139.298ZM35.141 76.977H30.61V73.987H35.141C37.51 73.987 39.35 72.653 40.224 70.491C35.785 70.33 32.335 67.018 31.415 61.59H29.69V58.6H43.697V61.59H34.451C35.233 65.362 37.51 67.501 40.661 67.501H40.753V66.512H43.743V67.593C43.743 73.021 40.132 76.977 35.141 76.977ZM58.6677 61.59V58.6H70.2137V76.977H67.2237V61.59H61.6807L63.1527 62.51V66.65H66.3037V69.64H63.1527V72.308C63.1527 75.022 61.1747 77 58.4607 77V74.01C59.4267 74.01 60.1627 73.688 60.1627 71.664V61.59H58.6677ZM84.9349 61.59V58.6H99.8159V61.59C99.8159 64.097 98.8039 66.259 97.1249 67.777C98.8039 69.318 99.8159 71.48 99.8159 73.987V76.977H90.3399V73.987H96.8259C96.8259 70.675 94.2269 68.375 90.3399 68.375H89.4199V76.977H86.4299V68.375H84.9349V65.385H86.4299V61.59H84.9349ZM87.9479 61.59L89.4199 62.51V65.385H90.4319C91.8809 65.385 93.2149 65.638 94.4109 66.098C95.9289 65.132 96.8259 63.545 96.8259 61.59H87.9479ZM114.307 61.59V58.6H128.314V61.59H117.32L118.792 62.51C118.792 63.775 118.838 64.925 118.93 65.96H126.221V68.95H119.459C120.425 72.469 122.518 74.01 126.244 74.01H128.314V77H126.244C120.655 77 117.573 74.125 116.377 68.95H114.307V65.96H115.917C115.848 65.063 115.802 64.12 115.802 63.131V61.59H114.307ZM143.274 61.59V58.6H158.155V61.59C158.155 65.569 155.648 68.674 151.968 69.778C152.681 72.377 154.659 73.987 157.281 73.987H158.155V76.977H157.281C152.29 76.977 148.679 73.021 148.679 67.593V64.81H151.669V66.719C153.808 65.868 155.165 63.959 155.165 61.59H146.287L147.759 62.51V76.977H144.769V61.59H143.274Z" fill="black"/>
<path d="M49.997 47.907C49.925 48.006 49.763 48.276 49.682 48.465C49.313 49.32 48.647 50.544 47.873 51.444C46.865 52.605 45.506 53.721 44.111 54.378L43.175 53.406C44.633 52.866 46.019 51.768 46.865 50.832C47.459 50.157 48.008 49.266 48.215 48.627C47.837 48.627 45.542 48.627 45.155 48.627C44.786 48.627 44.291 48.672 44.093 48.69V47.403C44.336 47.439 44.894 47.466 45.155 47.466C45.632 47.466 47.936 47.466 48.332 47.466C48.728 47.466 49.079 47.421 49.268 47.358L49.997 47.907ZM47.99 50.697C48.917 51.453 50.195 52.794 50.78 53.514L49.754 54.405C49.088 53.478 48.107 52.407 47.144 51.534L47.99 50.697ZM53.507 47.097C53.75 47.133 54.137 47.151 54.443 47.151C55.01 47.151 57.377 47.151 57.899 47.151C58.187 47.151 58.628 47.133 58.871 47.097V48.267C58.637 48.249 58.214 48.231 57.881 48.231C57.386 48.231 54.974 48.231 54.443 48.231C54.146 48.231 53.768 48.24 53.507 48.267V47.097ZM59.636 49.716C59.573 49.833 59.492 49.995 59.465 50.085C59.186 50.958 58.799 51.84 58.133 52.578C57.224 53.595 56.072 54.198 54.92 54.531L54.02 53.514C55.379 53.226 56.45 52.641 57.143 51.93C57.62 51.444 57.908 50.877 58.061 50.382C57.611 50.382 54.524 50.382 53.723 50.382C53.498 50.382 53.048 50.391 52.67 50.418V49.248C53.057 49.284 53.435 49.311 53.723 49.311C54.335 49.311 57.557 49.311 58.169 49.311C58.466 49.311 58.709 49.275 58.835 49.212L59.636 49.716ZM65.036 48.663C65.207 49.041 65.648 50.22 65.774 50.634L64.703 51.003C64.586 50.571 64.19 49.482 63.974 49.014L65.036 48.663ZM68.357 49.311C68.258 49.608 68.204 49.797 68.15 49.977C67.916 50.886 67.529 51.822 66.917 52.605C66.08 53.694 64.964 54.441 63.911 54.846L62.966 53.883C63.947 53.613 65.207 52.929 65.945 51.993C66.557 51.237 66.998 50.04 67.097 48.906L68.357 49.311ZM62.948 49.131C63.173 49.59 63.614 50.688 63.785 51.192L62.687 51.597C62.543 51.12 62.084 49.914 61.868 49.527L62.948 49.131ZM72.272 46.881C72.866 47.205 73.856 47.835 74.324 48.168L73.658 49.158C73.154 48.807 72.218 48.204 71.624 47.871L72.272 46.881ZM70.607 53.271C71.615 53.1 72.686 52.794 73.667 52.254C75.197 51.399 76.457 50.166 77.168 48.879L77.861 50.103C77.033 51.354 75.755 52.488 74.288 53.343C73.37 53.856 72.074 54.306 71.282 54.45L70.607 53.271ZM70.886 48.933C71.489 49.257 72.479 49.869 72.947 50.202L72.281 51.21C71.777 50.85 70.841 50.247 70.238 49.923L70.886 48.933ZM85.322 49.716C85.286 49.833 85.25 49.995 85.241 50.094C85.151 50.724 84.845 52.767 84.737 53.415H83.495C83.612 52.821 83.882 51.084 83.927 50.481C83.495 50.481 81.749 50.481 81.488 50.481C81.209 50.481 80.849 50.499 80.588 50.517V49.329C80.831 49.365 81.245 49.392 81.479 49.392C81.938 49.392 83.36 49.392 83.792 49.392C83.972 49.392 84.341 49.356 84.458 49.293L85.322 49.716ZM79.769 52.974C80.003 53.001 80.345 53.028 80.651 53.028C81.191 53.028 84.935 53.028 85.376 53.028C85.601 53.028 86.024 53.01 86.258 52.983V54.144C86.069 54.135 85.628 54.126 85.394 54.126C84.926 54.126 81.11 54.126 80.651 54.126C80.336 54.126 80.102 54.135 79.769 54.153V52.974ZM94.232 50.031C94.232 52.254 93.692 53.613 91.514 54.576L90.551 53.667C92.297 53.064 93.053 52.281 93.053 50.067V47.673C93.053 47.313 93.035 47.016 92.999 46.845H94.286C94.268 47.025 94.232 47.313 94.232 47.673V50.031ZM90.974 46.917C90.956 47.088 90.92 47.376 90.92 47.736V50.949C90.92 51.354 90.947 51.723 90.965 51.894H89.705C89.723 51.723 89.75 51.354 89.75 50.949V47.727C89.75 47.475 89.732 47.196 89.696 46.917H90.974ZM88.013 48.537C88.175 48.564 88.544 48.627 88.985 48.627H94.889C95.366 48.627 95.636 48.6 95.888 48.564V49.761C95.69 49.734 95.366 49.734 94.898 49.734H88.985C88.535 49.734 88.22 49.752 88.013 49.761V48.537ZM97.319 49.833C97.652 49.86 98.3 49.896 98.768 49.896C99.83 49.896 102.8 49.896 103.601 49.896C104.024 49.896 104.42 49.851 104.663 49.833V51.255C104.447 51.246 103.988 51.201 103.61 51.201C102.791 51.201 99.83 51.201 98.768 51.201C98.264 51.201 97.661 51.228 97.319 51.255V49.833ZM111.872 47.763C112.133 48.141 112.52 48.789 112.727 49.203L111.917 49.554C111.656 48.987 111.422 48.555 111.089 48.087L111.872 47.763ZM113.078 47.268C113.348 47.628 113.753 48.267 113.96 48.672L113.168 49.05C112.88 48.483 112.637 48.078 112.304 47.628L113.078 47.268ZM105.815 51.444C106.076 51.219 106.274 51.03 106.553 50.751C106.958 50.346 107.66 49.464 108.281 48.726C108.821 48.087 109.352 47.988 110.045 48.645C110.657 49.221 111.341 49.932 111.881 50.517C112.484 51.165 113.411 52.155 114.104 52.893L113.105 53.964C112.502 53.217 111.746 52.281 111.215 51.66C110.684 51.039 109.892 50.166 109.568 49.833C109.271 49.545 109.082 49.563 108.83 49.887C108.47 50.346 107.84 51.228 107.471 51.723C107.264 52.002 107.057 52.326 106.895 52.56L105.815 51.444ZM119.018 53.802C119.063 53.631 119.09 53.388 119.09 53.145C119.09 52.668 119.09 48.627 119.09 47.898C119.09 47.493 119.027 47.142 119.027 47.124H120.359C120.359 47.142 120.296 47.502 120.296 47.907C120.296 48.627 120.296 52.056 120.296 52.605C121.034 52.29 121.916 51.579 122.528 50.706L123.212 51.705C122.465 52.677 121.178 53.649 120.161 54.162C119.972 54.261 119.864 54.36 119.774 54.423L119.018 53.802ZM114.851 53.676C115.652 53.118 116.138 52.29 116.381 51.516C116.642 50.751 116.651 49.041 116.651 47.961C116.651 47.592 116.615 47.358 116.561 47.133H117.884C117.884 47.169 117.821 47.574 117.821 47.943C117.821 49.014 117.794 50.913 117.56 51.822C117.281 52.83 116.723 53.721 115.949 54.405L114.851 53.676Z" fill="white"/>
<defs>
<clipPath id="clip0_36_6">
<rect width="100" height="100" fill="white" transform="translate(42)"/>
</clipPath>
<clipPath id="clip1_36_6">
<rect width="207" height="22" fill="white" transform="translate(0 40)"/>
</clipPath>
</defs>
</svg>
