<svg width="120" height="120" viewBox="0 0 120 120" fill="none" xmlns="http://www.w3.org/2000/svg">
<path d="M10.8875 49.2858L14.8231 60.0572L14.8218 103.142L10.8855 113.913L37.1121 113.914L33.1765 103.143L33.1779 60.0577L37.1141 49.2866L10.8875 49.2858Z" fill="#83B991" stroke="#2F2F2F" stroke-width="4.04954" stroke-linejoin="round"/>
<path d="M46.8875 51.6857L50.8231 62.4571L50.8218 105.542L46.8855 116.313L73.1121 116.314L69.1765 105.543L69.1779 62.4576L73.1141 51.6865L46.8875 51.6857Z" fill="#83B991" stroke="#2F2F2F" stroke-width="4.04954" stroke-linejoin="round"/>
<path d="M82.8875 49.2858L86.8231 60.0572L86.8218 103.142L82.8855 113.913L109.112 113.914L105.177 103.143L105.178 60.0577L109.114 49.2866L82.8875 49.2858Z" fill="#83B991" stroke="#2F2F2F" stroke-width="4.04954" stroke-linejoin="round"/>
<path d="M76.3973 37.5674L65.5764 32.3088L76.3973 27.051C76.9975 26.7462 77.2454 26.0123 76.9403 25.4126L75.8544 23.231C75.5495 22.6309 74.8256 22.3829 74.216 22.6881L59.9983 29.5968L45.7841 22.693C45.1836 22.3882 44.4506 22.6321 44.1458 23.2341L43.0595 25.4134C42.7546 26.0154 43.0023 26.7469 43.6026 27.0517L54.4235 32.3096L43.6026 37.5682C43.0024 37.873 42.7544 38.6068 43.0595 39.2065L44.1454 41.3881C44.4503 41.9883 45.184 42.2363 45.7837 41.9311L59.9983 35.0299L74.2103 41.936C74.8104 42.2408 75.5438 41.9932 75.8486 41.3931L76.9345 39.2115C77.2432 38.6114 76.9917 37.8722 76.3973 37.5674ZM54.2907 21.1309L53.9402 23.0969C53.742 24.0646 54.2907 24.9943 55.1289 24.9943H64.7306C65.5787 24.9943 66.1883 24.0608 65.9879 23.0984L65.5687 21.1263C68.7509 19.4217 70.8343 16.3447 70.8343 12.7976C70.9716 7.41096 66.0565 3.04846 59.9983 3.04846C53.9402 3.04846 49.0243 7.41096 49.0243 12.7336C49.0243 16.3455 51.174 19.424 54.2907 21.1309ZM64.2657 11.583C65.6092 11.583 66.7042 12.6787 66.7042 14.0214C66.7042 15.364 65.6069 16.4598 64.2657 16.4598C62.9223 16.4598 61.8265 15.364 61.8265 14.0214C61.8265 12.6787 62.9245 11.583 64.2657 11.583ZM55.6624 11.583C57.0058 11.583 58.1009 12.6787 58.1009 14.0214C58.1009 15.364 57.0721 16.4598 55.6624 16.4598C54.2526 16.4598 53.2231 15.364 53.2231 14.0214C53.2231 12.6787 54.3898 11.583 55.6624 11.583Z" fill="white"/>
<path d="M2 80H117.2" stroke="url(#paint0_linear_28_308)" stroke-width="2.51339" stroke-linecap="round"/>
<rect x="19" y="56" width="2" height="13" fill="#70A480"/>
<rect x="23" y="68" width="2" height="9" fill="#70A480"/>
<rect x="20" y="90" width="2" height="9" fill="#70A480"/>
<rect x="57" y="61" width="2" height="9" fill="#70A480"/>
<rect x="61" y="88" width="2" height="9" fill="#70A480"/>
<rect x="92" y="95" width="2" height="13" fill="#70A480"/>
<rect x="100" y="85" width="2" height="5" fill="#70A480"/>
<rect x="93" y="57" width="2" height="16" fill="#70A480"/>
<defs>
<linearGradient id="paint0_linear_28_308" x1="2" y1="80.5" x2="117.2" y2="80.5" gradientUnits="userSpaceOnUse">
<stop stop-color="white"/>
<stop offset="1" stop-color="#19D7FF"/>
</linearGradient>
</defs>
</svg>
