<svg width="120" height="120" viewBox="0 0 120 120" fill="none" xmlns="http://www.w3.org/2000/svg">
<g clip-path="url(#clip0_27_263)">
<path d="M33.4836 26.9598L46.8103 34.8914L83.0384 80.2564L87.8258 95.0073L116.276 72.287L102.95 64.3555L66.7215 18.9905L61.9342 4.2395L33.4836 26.9598Z" fill="#83B991" stroke="#2F2F2F" stroke-width="5.5386" stroke-linejoin="round"/>
<rect x="76" y="49.2313" width="2" height="13" transform="rotate(-38 76 49.2313)" fill="#70A480"/>
<path d="M28.6794 29.4695L45.1595 35.4065L82.4035 82.0436L84.5481 99.4286L100.474 86.7107L98.1119 81.8712L93.4876 78.167L89.8173 71.3493L83.1018 65.6891L79.4794 57.5449L72.927 52.8368L68.376 44.352L60.3366 38.5481L54.2825 28.0317L47.1705 21.362L44.6049 16.7516L28.6794 29.4695Z" fill="#B3C7D1" stroke="#91AEBC" stroke-width="2.37355" stroke-linejoin="round"/>
<path d="M88.8771 32C84.1864 34.7152 81.6568 39.5531 80.4861 45.7247C84.6217 42.6291 87.5742 38.2262 88.8771 32ZM53.6097 32.3842C55.1358 36.7952 57.7037 40.3504 61.1257 43.2184C61.2806 39.2247 60.9371 35.5971 60.0356 32.3843L53.6097 32.3842ZM75.5837 33.6005C72.8827 40.9087 70.6844 48.3422 68.9132 55.8825C67.6321 50.7339 66.0327 45.6692 64.0748 40.6988C64.099 45.3617 64.4206 49.8988 65.0027 54.3255C61.1768 49.8069 57.1473 45.5113 52.8903 41.4651C55.8298 47.0775 59.0048 52.3356 62.3843 57.2854C59.7807 56.2333 56.7934 55.9875 53.7312 56.5216C55.6612 58.4356 57.9264 60.1239 60.3323 61.1274C55.5751 61.4801 50.7983 62.1283 46 63.1041C50.078 64.1077 54.1393 64.8152 58.1862 65.2588C55.9968 66.4088 53.8485 67.6872 51.7478 69.09C55.7372 69.0548 59.6068 68.5399 63.3727 67.6089C61.7282 70.3898 60.264 73.3868 58.9528 76.5681C61.4811 74.6337 63.8628 72.4895 66.0807 70.1102C64.8522 77.5623 63.9871 85.1049 63.4191 92.7217C65.546 86.2497 67.4513 79.6729 69.105 72.9773C70.2134 76.5693 71.4822 80.0932 72.8928 83.5573C72.6492 78.7803 72.2051 74.0561 71.5378 69.3907C76.1386 74.9023 81.0181 79.9944 86.1239 84.7454C82.3077 78.1093 78.2412 71.7474 73.8846 65.7031C80.287 65.3835 86.6566 64.48 93 63.1042C88.3335 62.2319 83.6515 61.5936 78.9524 61.2139C80.8787 60.1089 82.7799 58.9033 84.6581 57.6063C81.0658 57.9168 77.5123 58.4768 74.0022 59.3159C75.2161 57.1922 76.3225 54.9678 77.3144 52.6568C75.705 53.6833 74.1519 54.8529 72.6659 56.1571C73.9654 48.7926 74.951 41.28 75.5837 33.6006L75.5837 33.6005ZM92.7809 37.3907C87.9918 40.8712 84.0183 46.2286 80.9984 53.8115C85.55 53.6838 89.4408 52.1605 92.7808 49.5044V37.3907H92.7809ZM46.7131 45.9003C46.5869 45.8991 46.4599 45.8998 46.3322 45.9023C48.7027 50.4597 51.8761 52.9563 56.328 52.1757C53.9152 47.8007 50.6306 45.9387 46.7131 45.9003ZM83.4633 68.8674C82.4291 68.8636 81.3582 69.0033 80.2547 69.2704C83.6863 73.9356 87.8233 76.2136 92.9434 75.1624C90.3807 70.7298 87.1567 68.8815 83.4631 68.8674H83.4633ZM55.3991 71.7367C54.6123 71.7372 53.8427 71.8078 53.0931 71.9056C50.5944 72.2344 48.28 73.1325 46.1508 74.6002V83.6411C49.9028 81.1186 53.2776 77.2659 56.1914 71.7607C55.9253 71.7441 55.6614 71.7364 55.3991 71.7364V71.7367ZM61.0702 78.115C56.1135 81.0768 54.1017 86.321 53.9409 93C58.1731 89.6301 60.7657 84.8538 61.0702 78.115ZM76.5594 80.1293C76.6411 85.0651 77.6149 89.2839 79.3134 92.906H87.059C84.8335 87.7127 81.408 83.404 76.5593 80.1292L76.5594 80.1293Z" fill="#FDBA39"/>
<path d="M76.9134 79.1963C76.7349 79.3795 76.4445 79.269 76.2646 78.9495C74.1031 75.1098 72.2615 73.16 70.7912 73.1531C69.3182 73.1488 68.1811 75.0851 67.405 78.9107C66.3401 79.883 66.4293 79.853 66.5175 78.2398C67.2935 74.4128 67.1386 71.4985 66.057 69.5772C64.975 67.655 62.9372 66.674 59.9991 66.6603C58.8874 66.0493 58.815 66.067 59.7578 65.326C62.6959 65.338 64.382 64.3757 64.7713 62.4592C65.1596 60.544 64.261 57.626 62.0996 53.7863C61.9213 52.8054 61.95 52.7949 62.561 53.1147C64.7225 56.9544 66.7489 58.9124 68.2192 58.9192C69.6901 58.9257 70.8282 56.9868 71.6049 53.1622C72.4508 52.8919 72.5546 52.9204 72.4924 53.8331C71.7163 57.6601 71.8713 60.5744 72.9533 62.4966C74.0349 64.4179 76.0727 65.3989 79.0108 65.4126C79.6024 65.4124 79.8446 66.7519 79.252 66.7469C76.315 66.7337 74.6279 67.6972 74.239 69.6131C73.8508 71.5284 74.7493 74.4463 76.9108 78.286C77.0906 78.6056 77.0919 79.0131 76.9134 79.1963Z" fill="#EAEE17"/>
<path d="M5.71509 42.0688C5.71509 42.0688 125.254 60.6426 42.2276 119.221" stroke="url(#paint0_linear_27_263)" stroke-width="4.0252" stroke-linecap="round"/>
<rect x="58" y="22.2313" width="2" height="13" transform="rotate(-38 58 22.2313)" fill="#70A480"/>
</g>
<defs>
<linearGradient id="paint0_linear_27_263" x1="10.4696" y1="43.1801" x2="56.974" y2="139.383" gradientUnits="userSpaceOnUse">
<stop stop-color="white"/>
<stop offset="1" stop-color="#78FFFF"/>
</linearGradient>
<clipPath id="clip0_27_263">
<rect width="120" height="120" fill="white"/>
</clipPath>
</defs>
</svg>
