<svg width="72" height="136" viewBox="0 0 72 136" fill="none" xmlns="http://www.w3.org/2000/svg">
<path d="M64.8 95.2H7.19995V102.4H64.8V95.2Z" fill="#6C5353"/>
<path d="M40.7999 101.2H31.2V130H40.7999V101.2Z" fill="#6C5353"/>
<path d="M70 128H2V135.2H70V128Z" fill="#6C5353"/>
<path d="M8.76953 64.1113L10.1512 66.6525V76.8174L8.76953 79.3599H17.9758L16.5942 76.8174V66.6525L17.9758 64.1113H8.76953ZM19.5658 64.1113L20.9474 66.6525V76.8174L19.5658 79.3599H28.7708L27.3904 76.8174V66.6525L28.7708 64.1113H19.5658ZM30.362 64.1113L31.7424 66.6525V76.8174L30.362 79.3599H39.567L38.1854 76.8174V66.6525L39.567 64.1113H30.362ZM41.1583 64.1113L42.5386 66.6525V76.8174L41.1583 79.3599H50.3633L48.9817 76.8174V66.6525L50.3633 64.1113H41.1583ZM51.9533 64.1113L53.3349 66.6525V76.8174L51.9533 79.3599H61.1583L59.7779 76.8174V66.6525L61.1583 64.1113H51.9533ZM8.76953 79.5831L10.1512 82.1244V92.2893L8.76953 94.8306H17.9758L16.5942 92.2893V82.1244L17.9758 79.5831H8.76953ZM19.5658 79.5831L20.9474 82.1244V92.2893L19.5658 94.8306H28.7708L27.3904 92.2893V82.1244L28.7708 79.5831H19.5658ZM30.362 79.5831L31.7424 82.1244V92.2893L30.362 94.8306H39.567L38.1854 92.2893V82.1244L39.567 79.5831H30.362ZM41.1583 79.5831L42.5386 82.1244V92.2893L41.1583 94.8306H50.3633L48.9817 92.2893V82.1244L50.3633 79.5831H41.1583ZM51.9533 79.5831L53.3349 82.1244V92.2893L51.9533 94.8306H61.1583L59.7779 92.2893V82.1244L61.1583 79.5831H51.9533Z" fill="#83B991"/>
<path d="M8.76953 32.9998L10.1512 35.541V45.7059L8.76953 48.2484H17.9758L16.5942 45.7059V35.541L17.9758 32.9998H8.76953ZM19.5658 32.9998L20.9474 35.541V45.7059L19.5658 48.2484H28.7708L27.3904 45.7059V35.541L28.7708 32.9998H19.5658ZM30.362 32.9998L31.7424 35.541V45.7059L30.362 48.2484H39.567L38.1854 45.7059V35.541L39.567 32.9998H30.362ZM41.1583 32.9998L42.5386 35.541V45.7059L41.1583 48.2484H50.3633L48.9817 45.7059V35.541L50.3633 32.9998H41.1583ZM51.9533 32.9998L53.3349 35.541V45.7059L51.9533 48.2484H61.1583L59.7779 45.7059V35.541L61.1583 32.9998H51.9533ZM8.76953 48.4716L10.1512 51.0129V61.1778L8.76953 63.7191H17.9758L16.5942 61.1778V51.0129L17.9758 48.4716H8.76953ZM19.5658 48.4716L20.9474 51.0129V61.1778L19.5658 63.7191H28.7708L27.3904 61.1778V51.0129L28.7708 48.4716H19.5658ZM30.362 48.4716L31.7424 51.0129V61.1778L30.362 63.7191H39.567L38.1854 61.1778V51.0129L39.567 48.4716H30.362ZM41.1583 48.4716L42.5386 51.0129V61.1778L41.1583 63.7191H50.3633L48.9817 61.1778V51.0129L50.3633 48.4716H41.1583ZM51.9533 48.4716L53.3349 51.0129V61.1778L51.9533 63.7191H61.1583L59.7779 61.1778V51.0129L61.1583 48.4716H51.9533Z" fill="#83B991"/>
<path d="M8.76953 1.78076L10.1512 4.322V14.487L8.76953 17.0294H17.9758L16.5942 14.487V4.322L17.9758 1.78076H8.76953ZM19.5658 1.78076L20.9474 4.322V14.487L19.5658 17.0294H28.7708L27.3904 14.487V4.322L28.7708 1.78076H19.5658ZM30.362 1.78076L31.7424 4.322V14.487L30.362 17.0294H39.567L38.1854 14.487V4.322L39.567 1.78076H30.362ZM41.1583 1.78076L42.5386 4.322V14.487L41.1583 17.0294H50.3633L48.9817 14.487V4.322L50.3633 1.78076H41.1583ZM51.9533 1.78076L53.3349 4.322V14.487L51.9533 17.0294H61.1583L59.7779 14.487V4.322L61.1583 1.78076H51.9533ZM8.76953 17.2527L10.1512 19.7939V29.9589L8.76953 32.5001H17.9758L16.5942 29.9589V19.7939L17.9758 17.2527H8.76953ZM19.5658 17.2527L20.9474 19.7939V29.9589L19.5658 32.5001H28.7708L27.3904 29.9589V19.7939L28.7708 17.2527H19.5658ZM30.362 17.2527L31.7424 19.7939V29.9589L30.362 32.5001H39.567L38.1854 29.9589V19.7939L39.567 17.2527H30.362ZM41.1583 17.2527L42.5386 19.7939V29.9589L41.1583 32.5001H50.3633L48.9817 29.9589V19.7939L50.3633 17.2527H41.1583ZM51.9533 17.2527L53.3349 19.7939V29.9589L51.9533 32.5001H61.1583L59.7779 29.9589V19.7939L61.1583 17.2527H51.9533Z" fill="#83B991"/>
<path d="M8.76953 64.1113L10.1512 66.6525V76.8174L8.76953 79.3599H17.9758L16.5942 76.8174V66.6525L17.9758 64.1113H8.76953ZM19.5658 64.1113L20.9474 66.6525V76.8174L19.5658 79.3599H28.7708L27.3904 76.8174V66.6525L28.7708 64.1113H19.5658ZM30.362 64.1113L31.7424 66.6525V76.8174L30.362 79.3599H39.567L38.1854 76.8174V66.6525L39.567 64.1113H30.362ZM41.1583 64.1113L42.5386 66.6525V76.8174L41.1583 79.3599H50.3633L48.9817 76.8174V66.6525L50.3633 64.1113H41.1583ZM51.9533 64.1113L53.3349 66.6525V76.8174L51.9533 79.3599H61.1583L59.7779 76.8174V66.6525L61.1583 64.1113H51.9533ZM8.76953 79.5831L10.1512 82.1244V92.2893L8.76953 94.8306H17.9758L16.5942 92.2893V82.1244L17.9758 79.5831H8.76953ZM19.5658 79.5831L20.9474 82.1244V92.2893L19.5658 94.8306H28.7708L27.3904 92.2893V82.1244L28.7708 79.5831H19.5658ZM30.362 79.5831L31.7424 82.1244V92.2893L30.362 94.8306H39.567L38.1854 92.2893V82.1244L39.567 79.5831H30.362ZM41.1583 79.5831L42.5386 82.1244V92.2893L41.1583 94.8306H50.3633L48.9817 92.2893V82.1244L50.3633 79.5831H41.1583ZM51.9533 79.5831L53.3349 82.1244V92.2893L51.9533 94.8306H61.1583L59.7779 92.2893V82.1244L61.1583 79.5831H51.9533Z" stroke="#132E1C" stroke-width="1.16537" stroke-linejoin="round"/>
<path d="M8.76953 32.9998L10.1512 35.541V45.7059L8.76953 48.2484H17.9758L16.5942 45.7059V35.541L17.9758 32.9998H8.76953ZM19.5658 32.9998L20.9474 35.541V45.7059L19.5658 48.2484H28.7708L27.3904 45.7059V35.541L28.7708 32.9998H19.5658ZM30.362 32.9998L31.7424 35.541V45.7059L30.362 48.2484H39.567L38.1854 45.7059V35.541L39.567 32.9998H30.362ZM41.1583 32.9998L42.5386 35.541V45.7059L41.1583 48.2484H50.3633L48.9817 45.7059V35.541L50.3633 32.9998H41.1583ZM51.9533 32.9998L53.3349 35.541V45.7059L51.9533 48.2484H61.1583L59.7779 45.7059V35.541L61.1583 32.9998H51.9533ZM8.76953 48.4716L10.1512 51.0129V61.1778L8.76953 63.7191H17.9758L16.5942 61.1778V51.0129L17.9758 48.4716H8.76953ZM19.5658 48.4716L20.9474 51.0129V61.1778L19.5658 63.7191H28.7708L27.3904 61.1778V51.0129L28.7708 48.4716H19.5658ZM30.362 48.4716L31.7424 51.0129V61.1778L30.362 63.7191H39.567L38.1854 61.1778V51.0129L39.567 48.4716H30.362ZM41.1583 48.4716L42.5386 51.0129V61.1778L41.1583 63.7191H50.3633L48.9817 61.1778V51.0129L50.3633 48.4716H41.1583ZM51.9533 48.4716L53.3349 51.0129V61.1778L51.9533 63.7191H61.1583L59.7779 61.1778V51.0129L61.1583 48.4716H51.9533Z" stroke="#132E1C" stroke-width="1.16537" stroke-linejoin="round"/>
<path d="M8.76953 1.78076L10.1512 4.322V14.487L8.76953 17.0294H17.9758L16.5942 14.487V4.322L17.9758 1.78076H8.76953ZM19.5658 1.78076L20.9474 4.322V14.487L19.5658 17.0294H28.7708L27.3904 14.487V4.322L28.7708 1.78076H19.5658ZM30.362 1.78076L31.7424 4.322V14.487L30.362 17.0294H39.567L38.1854 14.487V4.322L39.567 1.78076H30.362ZM41.1583 1.78076L42.5386 4.322V14.487L41.1583 17.0294H50.3633L48.9817 14.487V4.322L50.3633 1.78076H41.1583ZM51.9533 1.78076L53.3349 4.322V14.487L51.9533 17.0294H61.1583L59.7779 14.487V4.322L61.1583 1.78076H51.9533ZM8.76953 17.2527L10.1512 19.7939V29.9589L8.76953 32.5001H17.9758L16.5942 29.9589V19.7939L17.9758 17.2527H8.76953ZM19.5658 17.2527L20.9474 19.7939V29.9589L19.5658 32.5001H28.7708L27.3904 29.9589V19.7939L28.7708 17.2527H19.5658ZM30.362 17.2527L31.7424 19.7939V29.9589L30.362 32.5001H39.567L38.1854 29.9589V19.7939L39.567 17.2527H30.362ZM41.1583 17.2527L42.5386 19.7939V29.9589L41.1583 32.5001H50.3633L48.9817 29.9589V19.7939L50.3633 17.2527H41.1583ZM51.9533 17.2527L53.3349 19.7939V29.9589L51.9533 32.5001H61.1583L59.7779 29.9589V19.7939L61.1583 17.2527H51.9533Z" stroke="#132E1C" stroke-width="1.16537" stroke-linejoin="round"/>
</svg>
