<svg width="120" height="120" viewBox="0 0 120 120" fill="none" xmlns="http://www.w3.org/2000/svg">
<g clip-path="url(#clip0_24_229)">
<path d="M88.8002 79.2H31.2002V86.4H88.8002V79.2Z" fill="#6C5353"/>
<path d="M64.8002 85.2H55.2002V114H64.8002V85.2Z" fill="#6C5353"/>
<path d="M96 112.8H24V120H96V112.8Z" fill="#6C5353"/>
<path d="M83.7779 26.8275L77.3349 29.5052V29.876L75.9533 32.4185H85.1583L83.7779 29.876V26.8275ZM73.6204 31.0505L70.3288 32.4185H74.3633L73.6204 31.0505ZM69.7942 32.6405L66.0128 34.2131L66.5386 35.1817V45.3467L65.1582 47.8892H74.3633L72.9817 45.3467V35.1817L74.3633 32.6405H69.7942ZM75.9533 32.6405L77.3349 35.1817V45.3467L75.9533 47.8892H85.1583L83.7779 45.3467V35.1817L85.1583 32.6405H75.9533ZM62.1854 35.8043L55.7424 38.482V45.3467L54.362 47.8892H63.567L62.1854 45.3467V35.8043ZM51.3904 40.2915L44.9474 42.9704V45.3467L43.5658 47.8892H52.7708L51.3904 45.3467V40.2915ZM40.5942 44.7799L33.1156 47.8892H41.9758L40.5942 45.3467V44.7799ZM32.7695 48.1112L34.1512 50.6524V60.8174L32.7695 63.3599H41.9758L40.5942 60.8174V50.6524L41.9758 48.1112H32.7695ZM43.5658 48.1112L44.9474 50.6524V60.8174L43.5658 63.3599H52.7708L51.3904 60.8174V50.6524L52.7708 48.1112H43.5658ZM54.362 48.1112L55.7424 50.6524V60.8174L54.362 63.3599H63.567L62.1854 60.8174V50.6524L63.567 48.1112H54.362ZM65.1582 48.1112L66.5386 50.6524V60.8174L65.1582 63.3599H74.3633L72.9817 60.8174V50.6524L74.3633 48.1112H65.1582ZM75.9533 48.1112L77.3349 50.6524V60.8174L75.9533 63.3599H85.1583L83.7779 60.8174V50.6524L85.1583 48.1112H75.9533ZM32.7695 63.5831L34.1512 66.1243V76.2893L32.7695 78.8305H41.9758L40.5942 76.2893V66.1243L41.9758 63.5831H32.7695ZM43.5658 63.5831L44.9474 66.1243V76.2893L43.5658 78.8305H52.7708L51.3904 76.2893V66.1243L52.7708 63.5831H43.5658ZM54.362 63.5831L55.7424 66.1243V76.2893L54.362 78.8305H63.567L62.1854 76.2893V66.1243L63.567 63.5831H54.362ZM65.1582 63.5831L66.5386 66.1243V76.2893L65.1582 78.8305H74.3633L72.9817 76.2893V66.1243L74.3633 63.5831H65.1582ZM75.9533 63.5831L77.3349 66.1243V76.2893L75.9533 78.8305H85.1583L83.7779 76.2893V66.1243L85.1583 63.5831H75.9533Z" fill="#83B991" stroke="black" stroke-width="1.16537" stroke-linejoin="round"/>
<path d="M3.55371 20.7193L5.70348 22.6546L9.0922 32.238L8.63722 35.0957L17.3168 32.0265L15.1666 30.0901L11.7779 20.5066L12.2333 17.6502L3.55371 20.7193ZM13.7324 17.1201L15.8821 19.0554L19.2708 28.6389L18.8159 31.4965L27.4943 28.4278L25.3453 26.4909L21.9566 16.9074L22.4108 14.0514L13.7324 17.1201ZM23.911 13.5209L26.0596 15.4566L29.4483 25.0401L28.9945 27.8973L37.6729 24.8286L35.5228 22.8922L32.134 13.3087L32.5894 10.4522L23.911 13.5209ZM34.0896 9.92175L36.2382 11.8574L39.627 21.4409L39.1731 24.2981L43.9824 22.5976L46.6744 20.1697L45.7014 19.293L42.3127 9.7095L42.7681 6.85304L34.0896 9.92175ZM44.2671 6.32298L46.4169 8.25825L49.6725 17.4652L54.8538 12.7916L52.4913 6.11032L52.9455 3.25427L44.2671 6.32298ZM8.71123 35.305L10.861 37.2402L14.2497 46.8237L13.7947 49.6813L14.0566 49.5887L20.1257 44.1145L16.9354 35.0923L17.3908 32.2358L8.71123 35.305ZM18.8899 31.7058L21.0396 33.6411L23.6267 40.9573L28.808 36.2837L27.1141 31.4931L27.5683 28.6371L18.8899 31.7058ZM29.0685 28.1066L31.2171 30.0423L32.3078 33.1269L37.4892 28.4533L37.2915 27.8944L37.7469 25.0379L29.0685 28.1066ZM39.2471 24.5074L40.5563 25.6875L43.5525 22.9851L39.2471 24.5074Z" fill="#83B991" stroke="black" stroke-width="1.16537" stroke-linejoin="round"/>
<path d="M4.94067 57.1994L103.7 16.7754" stroke="url(#paint0_linear_24_229)" stroke-width="1.07763" stroke-linecap="round"/>
<path fill-rule="evenodd" clip-rule="evenodd" d="M2.79695 58.9254C3.02307 58.8222 3.28866 58.8603 3.47653 59.0231L14.9458 68.9601C15.1422 69.1303 15.2151 69.4032 15.1297 69.6487C15.0442 69.8943 14.8176 70.063 14.5579 70.0744L10.3234 70.2612L12.7763 75.651C12.9216 75.9702 12.7807 76.3466 12.4616 76.4919L9.72827 77.7371C9.40921 77.8825 9.03273 77.7417 8.88728 77.4227L6.43041 72.0335L3.52148 75.1009C3.34263 75.2895 3.06694 75.35 2.82555 75.2538C2.58414 75.1575 2.42578 74.9238 2.42578 74.6638V59.5031C2.42578 59.2545 2.57083 59.0287 2.79695 58.9254ZM3.69573 60.8934V73.0716L6.15687 70.4765C6.30213 70.3233 6.51404 70.2523 6.72224 70.2871C6.93046 70.3219 7.10777 70.4579 7.19535 70.65L9.77947 76.3183L11.3576 75.5993L8.77798 69.9313C8.69058 69.7392 8.70427 69.5163 8.81452 69.3364C8.92476 69.1565 9.11716 69.0431 9.32793 69.0339L12.909 68.8759L3.69573 60.8934Z" fill="url(#paint1_linear_24_229)"/>
</g>
<defs>
<linearGradient id="paint0_linear_24_229" x1="21.2432" y1="29.65" x2="97.9633" y2="38.7315" gradientUnits="userSpaceOnUse">
<stop stop-color="white"/>
<stop offset="1" stop-color="#00C1E0"/>
</linearGradient>
<linearGradient id="paint1_linear_24_229" x1="2.42578" y1="68.3312" x2="15.165" y2="68.3312" gradientUnits="userSpaceOnUse">
<stop stop-color="white"/>
<stop offset="1" stop-color="#87FFF3"/>
</linearGradient>
<clipPath id="clip0_24_229">
<rect width="120" height="120" fill="white"/>
</clipPath>
</defs>
</svg>
