<?xml version="1.0" standalone="no"?>
<!DOCTYPE svg PUBLIC "-//W3C//DTD SVG 20010904//EN"
 "http://www.w3.org/TR/2001/REC-SVG-20010904/DTD/svg10.dtd">
<svg version="1.0" xmlns="http://www.w3.org/2000/svg"
 width="700.000000pt" height="700.000000pt" viewBox="0 0 700.000000 700.000000"
 preserveAspectRatio="xMidYMid meet">
<metadata>
Created by potrace 1.14, written by Peter Selinger 2001-2017
</metadata>
<g transform="translate(0.000000,700.000000) scale(0.100000,-0.100000)"
fill="#000000" stroke="none">
<path d="M3920 5376 c-4 -12 -24 -66 -45 -121 -20 -55 -47 -127 -60 -160 -13
-33 -42 -112 -65 -175 -23 -63 -46 -124 -51 -135 -8 -19 -113 -299 -166 -445
-13 -36 -28 -74 -33 -85 -4 -11 -65 -173 -134 -360 -70 -187 -131 -349 -136
-360 -5 -11 -20 -54 -35 -95 -14 -41 -30 -84 -35 -95 -5 -11 -34 -90 -66 -175
-31 -85 -60 -164 -65 -175 -12 -28 -88 -229 -109 -290 -9 -27 -61 -167 -115
-310 -54 -143 -110 -294 -125 -335 -16 -41 -60 -160 -99 -264 -39 -104 -71
-190 -71 -191 0 -1 99 -2 220 -2 l221 0 13 31 c10 25 642 1705 771 2051 12 33
66 177 120 320 53 143 110 294 125 335 15 41 74 197 130 345 56 149 117 311
135 360 50 137 95 256 111 292 28 61 35 59 -207 59 -214 0 -221 0 -229 -20z"/>
<path d="M1955 4888 c-99 -55 -223 -122 -275 -150 -52 -29 -113 -61 -135 -73
-22 -12 -71 -39 -110 -60 -38 -21 -117 -63 -175 -95 -58 -32 -134 -73 -170
-92 -36 -19 -171 -93 -300 -163 -129 -70 -257 -140 -285 -155 -27 -15 -86 -47
-130 -70 -44 -24 -93 -51 -110 -60 -16 -9 -83 -45 -148 -80 l-117 -63 2 -326
3 -325 95 -51 c143 -77 246 -133 340 -185 115 -63 201 -110 285 -155 39 -21
88 -48 110 -60 22 -13 65 -36 95 -52 68 -37 162 -88 215 -118 22 -12 81 -44
130 -70 50 -26 95 -51 100 -55 6 -4 51 -29 100 -55 50 -26 133 -71 185 -100
52 -29 120 -66 150 -82 30 -17 75 -41 100 -55 25 -14 81 -44 125 -68 44 -24
86 -47 93 -53 14 -11 13 -43 14 413 l1 335 -741 370 c-408 204 -742 373 -742
376 0 3 53 31 118 62 64 30 191 91 282 135 207 100 397 191 520 250 52 24 185
88 295 142 110 53 215 103 233 111 30 13 32 17 33 64 2 174 1 706 -2 709 -2 1
-85 -42 -184 -96z"/>
<path d="M4859 4969 c0 -13 -1 -183 -1 -377 l-1 -354 129 -63 c71 -35 290
-142 487 -239 197 -97 475 -233 618 -303 l261 -128 -359 -177 c-197 -97 -532
-263 -745 -368 l-388 -192 -1 -37 c-1 -46 -1 -692 0 -708 1 -7 29 4 69 26 37
21 99 55 137 76 144 77 201 108 230 125 17 10 66 37 110 60 67 36 222 121 530
290 28 15 151 83 275 150 124 68 239 131 255 140 17 9 144 79 283 154 l252
138 0 322 0 322 -247 134 c-136 74 -290 158 -343 186 -52 28 -144 78 -205 111
-60 33 -141 77 -180 98 -38 21 -92 50 -120 65 -58 32 -134 73 -225 122 -36 20
-195 106 -355 193 -159 87 -324 176 -365 198 -41 22 -81 44 -87 50 -10 7 -13
3 -14 -14z"/>
</g>
</svg>
